<?xml version="1.0" encoding="utf-8"?>
<!-- Generator: Adobe Illustrator 19.0.0, SVG Export Plug-In . SVG Version: 6.00 Build 0)  -->
<svg version="1.1" id="Capa_1" xmlns="http://www.w3.org/2000/svg" xmlns:xlink="http://www.w3.org/1999/xlink" x="0px" y="0px"
	 viewBox="-178 55.9 483.3 483.3" style="enable-background:new -178 55.9 483.3 483.3;" xml:space="preserve">
<style type="text/css">
	.st0{fill-rule:evenodd;clip-rule:evenodd;fill:#E51766;}
	.st1{fill-rule:evenodd;clip-rule:evenodd;fill:#D80927;}
	.st2{fill-rule:evenodd;clip-rule:evenodd;fill:#E51550;}
	.st3{fill-rule:evenodd;clip-rule:evenodd;fill:#FFFFFF;}
	.st4{fill-rule:evenodd;clip-rule:evenodd;fill:#1A87C7;}
</style>
<g id="XMLID_68_">
	<path id="XMLID_213_" class="st0" d="M80,438.2l-2.4,4.6c-2,3.6-6.4,5.2-10.2,5.9c-3.8,0.6-7.1,0.5-10.7-0.5
		c-3.2-0.9-6.5-2.4-8.2-5.5l-2.4-4.6C56.7,441.4,69.4,441.4,80,438.2z"/>
	<path id="XMLID_210_" class="st1" d="M50,441.4l0.3,0.5c1.1,2,3.3,3.4,6.9,4.4c3.3,0.8,6.3,0.9,9.9,0.4c4.5-0.8,7.4-2.5,8.8-4.9
		l0.3-0.5C67.7,443.1,58.5,443.1,50,441.4L50,441.4z M63,451.2c-2.3,0-4.5-0.3-6.8-0.9c-4.7-1.3-7.8-3.4-9.5-6.5l-2.4-4.6
		c-0.4-0.7-0.3-1.6,0.3-2.3c0.5-0.6,1.4-0.9,2.2-0.6c10.2,3,22.5,3,32.7,0c0.8-0.2,1.6,0,2.2,0.6c0.5,0.6,0.6,1.5,0.2,2.3l-2.4,4.6
		c-2,3.6-5.9,5.9-11.7,7C66.1,451,64.5,451.2,63,451.2z"/>
	<path id="XMLID_209_" class="st2" d="M89.3,434.3c10-5.7,13.1-14,9.3-21.3l-7.1-13.8h-57l-7.1,13.8c-3.7,7.3-0.6,15.5,9.3,21.3
		C51.3,442.7,74.8,442.7,89.3,434.3z"/>
	<path id="XMLID_205_" class="st1" d="M89.3,434.3L89.3,434.3L89.3,434.3L89.3,434.3z M35.9,401.3L29.3,414
		c-3.4,6.6-0.2,13.5,8.5,18.6c13.9,8,36.5,8,50.5,0c8.7-5,11.9-12,8.5-18.6l-6.6-12.7H35.9L35.9,401.3z M63.1,442.6
		c-9.9,0-19.8-2.2-27.3-6.5c-10.7-6.2-14.6-15.3-10.2-24l7.1-13.9c0.4-0.7,1.1-1.1,1.8-1.1h57c0.8,0,1.5,0.4,1.8,1.1l7.1,13.9
		c4.4,8.6,0.5,17.8-10.1,24l0,0C82.8,440.4,73,442.6,63.1,442.6z"/>
	<path id="XMLID_204_" class="st3" d="M138.7,263c10.5,33.1-0.9,55.7-12.8,75.9c-7.5,12.8-12.8,14.6-16.9,29.1
		c-2.5,8.7-1.6,15.5-8.5,22.6c-18.8,19.5-58.2,20.1-75.1,0c-6.4-7.6-6-13.9-8.5-22.6c-4.1-14.5-9.4-16.3-16.9-29.1
		c-11.8-20.3-23.3-42.8-12.8-75.9c10.8-34,43.2-51,75.7-51C95.5,212,128,229,138.7,263z"/>
	<path id="XMLID_201_" class="st1" d="M63.1,214.1c-35.2,0-64.2,19.5-73.7,49.6c-10,31.5,0.3,53.1,12.6,74.3c2.6,4.5,5,7.7,7.2,10.5
		c3.9,5.1,7.2,9.5,9.9,19.1c0.7,2.3,1.1,4.5,1.6,6.6c1.2,5.6,2.2,10.1,6.5,15.3c7.1,8.5,19.1,13.6,32.8,14.1
		c15.5,0.5,30.1-4.8,39.2-14.2c4.5-4.7,5.4-9.1,6.4-14.7c0.4-2.2,0.9-4.6,1.6-7.1c2.7-9.6,6.1-14,9.9-19.1c2.1-2.8,4.5-6,7.2-10.5
		c12.3-21.1,22.6-42.7,12.6-74.3C127.2,233.5,98.3,214.1,63.1,214.1L63.1,214.1z M62.1,407.6c-0.8,0-1.5,0-2.3-0.1
		c-14.9-0.5-28-6.2-35.8-15.6c-5-6-6.2-11.4-7.4-17.1c-0.4-2-0.9-4.1-1.5-6.3c-2.5-8.9-5.5-12.8-9.2-17.7c-2.2-2.9-4.7-6.2-7.4-10.9
		c-12.8-22-23.5-44.4-13-77.6C-4.4,230.5,26,210,63.1,210c37.1,0,67.5,20.6,77.6,52.4l0,0c10.5,33.2-0.1,55.6-13,77.6
		c-2.8,4.7-5.2,8-7.4,10.9c-3.8,4.9-6.7,8.8-9.2,17.7c-0.7,2.4-1.1,4.6-1.5,6.7c-1.1,5.8-2.1,11.2-7.5,16.8
		C92.6,401.9,77.8,407.6,62.1,407.6z"/>
	<path id="XMLID_200_" class="st3" d="M84.4,420.8c11.8-6.8,11.8-17.8,0-24.6c-11.8-6.8-30.9-6.8-42.7,0C30,403,30,414,41.7,420.8
		C53.5,427.6,72.6,427.6,84.4,420.8z"/>
	<path id="XMLID_196_" class="st4" d="M63.1,393.1c-7.4,0-14.7,1.6-20.3,4.8c-5,2.9-7.8,6.6-7.8,10.5c0,3.9,2.8,7.6,7.8,10.5
		c11.2,6.5,29.4,6.5,40.6,0c5-2.9,7.8-6.6,7.8-10.5c0-3.9-2.8-7.6-7.8-10.5C77.8,394.7,70.4,393.1,63.1,393.1L63.1,393.1z
		 M63.1,427.9c-8.1,0-16.2-1.8-22.4-5.3c-6.4-3.7-9.9-8.7-9.9-14.1c0-5.4,3.5-10.4,9.9-14.1c12.3-7.1,32.4-7.1,44.7,0
		c6.4,3.7,9.9,8.7,9.9,14.1c0,5.4-3.5,10.4-9.9,14.1C79.3,426.2,71.2,427.9,63.1,427.9z"/>
	<path id="XMLID_195_" class="st2" d="M89.3,423c10-5.8,13.1-14,9.3-21.2l-7.1-13.9h-57l-7.1,13.9c-3.7,7.3-0.6,15.5,9.3,21.2
		C51.3,431.3,74.8,431.3,89.3,423z"/>
	<path id="XMLID_191_" class="st1" d="M35.9,389.9l-6.6,12.7c-3.4,6.6-0.2,13.5,8.5,18.6c13.9,8,36.5,8,50.5,0l0,0
		c8.7-5,11.9-12,8.5-18.6l-6.6-12.7H35.9L35.9,389.9z M63.1,431.3c-9.9,0-19.8-2.2-27.3-6.5c-10.7-6.2-14.6-15.4-10.2-24l7.1-13.9
		c0.4-0.7,1.1-1.1,1.8-1.1h57c0.8,0,1.5,0.4,1.8,1.1l7.1,13.9c4.4,8.6,0.5,17.8-10.1,24l0,0C82.8,429.1,73,431.3,63.1,431.3z"/>
	<path id="XMLID_190_" class="st0" d="M89.6,367.8c14.7,8.5,14.7,22.2,0,30.7c-14.7,8.5-38.5,8.5-53.1,0c-14.7-8.5-14.7-22.2,0-30.7
		C51.2,359.3,75,359.3,89.6,367.8z"/>
	<path id="XMLID_186_" class="st1" d="M63.1,363.5c-9.2,0-18.5,2-25.5,6.1c-6.4,3.7-10,8.5-10,13.6c0,5,3.5,9.8,10,13.6
		c14.1,8.1,37,8.1,51.1,0c6.4-3.7,10-8.5,10-13.6c0-5-3.6-9.8-10-13.6l0,0C81.6,365.5,72.3,363.5,63.1,363.5L63.1,363.5z
		 M63.1,406.8c-10,0-20-2.2-27.6-6.6c-7.8-4.5-12-10.6-12-17.1s4.3-12.6,12-17.1c15.2-8.8,40-8.8,55.2,0c7.8,4.5,12,10.6,12,17.1
		s-4.3,12.6-12,17.1C83.1,404.6,73.1,406.8,63.1,406.8z"/>
	<path id="XMLID_184_" class="st2" d="M100.6,384.2v13.1c-0.1,2.4-1.3,5.1-2.7,7.1c-5.1,7.3-15.7,11.2-24.1,12.6
		c-12.4,2.1-27.9,0.6-38.6-6.3c-4.4-2.8-8.6-7.1-9.5-12.5l-0.1-1v-13.1c0.2,1.5,0.4,2.6,1,4.1c3.3,7.8,13,12.5,20.7,14.5
		c13.6,3.6,31.7,2.5,43.7-5.2c4.4-2.8,8.6-7.1,9.5-12.5L100.6,384.2z"/>
	<path id="XMLID_180_" class="st1" d="M27.6,393.8l0.1,4.2c0.9,5.3,5.7,9.2,8.6,11c9.2,5.9,23.8,8.3,37.1,6
		c3.9-0.7,16.9-3.5,22.8-11.8c1.3-1.9,2.2-4.2,2.4-6.1v-3.3c-1.7,2.1-3.9,4-6.5,5.6c-13.4,8.6-32.4,8.9-45.4,5.4
		C42.4,403.6,33.1,400.5,27.6,393.8L27.6,393.8z M63,419.9c-9.6,0-20.3-2-28.9-7.5c-5.9-3.7-9.6-8.7-10.4-13.8l-0.2-1.1l0-13.3
		c0-1.1,0.8-2,1.9-2c1-0.1,2,0.7,2.2,1.8c0.2,1.4,0.4,2.3,0.9,3.6c3.6,8.5,15.7,12.4,19.3,13.3c14.3,3.8,31.6,1.8,42.1-4.9
		c2.8-1.8,7.7-5.6,8.6-11.1l0.1-0.9c0.1-1.1,0.9-1.9,2.2-1.8c1.1,0.1,1.9,1,1.9,2v13.1c-0.2,2.7-1.3,5.8-3.1,8.3
		c-6.6,9.4-20,12.5-25.5,13.5C70.8,419.6,67,419.9,63,419.9z"/>
	<polygon id="XMLID_179_" class="st2" points="76.4,368.2 76.4,379.5 76.3,379.6 76.3,379.7 76.3,379.8 76.2,379.9 76.2,379.9 
		76.1,380 76,380.1 75.9,380.2 56.8,391.2 56.7,391.3 56.5,391.3 56.4,391.4 56.3,391.4 56.1,391.4 56,391.4 55.8,391.5 55.7,391.5 
		55.5,391.5 55.4,391.4 55.3,391.4 55.1,391.4 55,391.4 54.8,391.3 54.7,391.3 54.6,391.2 54.5,391.1 53.1,390.3 49.5,388.3 
		49.4,388.2 49.3,388.1 49.3,388.1 49.2,388 49.2,387.9 49.1,387.8 49.1,387.7 49.1,376.3 49.1,376.4 49.1,376.5 49.2,376.6 
		49.2,376.6 49.3,376.7 49.3,376.8 49.4,376.9 49.5,376.9 53.1,379 54.5,379.8 54.6,379.9 54.7,379.9 54.8,380 55,380 55.1,380 
		55.3,380.1 55.4,380.1 55.5,380.1 55.7,380.1 55.8,380.1 56,380.1 56.1,380.1 56.3,380 56.4,380 56.5,380 56.7,379.9 56.8,379.9 
		75.9,368.8 76,368.8 76.1,368.7 76.2,368.6 76.2,368.5 76.3,368.4 76.3,368.3 76.3,368.3 	"/>
	<path id="XMLID_175_" class="st1" d="M51.2,386.8l4.4,2.5l18.8-10.6l0-6.6l-16.5,9.5c-0.1,0.1-0.4,0.2-0.5,0.2c0,0-0.6,0.2-0.6,0.2
		c-0.1,0-0.5,0.1-0.6,0.1c-0.1,0-0.5,0-0.5,0c-0.1,0-0.6,0-0.6,0c-0.1,0-0.6-0.2-0.7-0.2c-0.1,0-0.4-0.2-0.5-0.2l-2.6-1.5V386.8
		L51.2,386.8z M55.6,393.5c-0.1,0-0.6-0.1-0.7-0.1c-0.1,0-0.4-0.1-0.5-0.1c-0.1,0-0.4-0.1-0.5-0.2c-0.1-0.1-0.4-0.2-0.5-0.3
		l-4.9-2.8c-0.1-0.1-0.6-0.4-0.7-0.5c-0.1-0.1-0.3-0.4-0.4-0.5c-0.1-0.1-0.2-0.4-0.3-0.5c0-0.1-0.2-0.6-0.2-0.7l0-11.6
		c0-1.1,0.9-2,2-2.1c0.9-0.1,1.7,0.5,2,1.3l4.5,2.5l19-10.8c0.3-0.9,1.1-1.4,2.1-1.3c1.1,0.1,1.9,1.2,1.9,2.2v11.3
		c0,0.1-0.1,0.5-0.1,0.6c0,0.2-0.1,0.4-0.2,0.5c-0.1,0.1-0.2,0.4-0.3,0.5c0,0.1-0.4,0.5-0.5,0.5c-0.1,0.1-0.3,0.3-0.4,0.3L57.8,393
		c-0.1,0-0.4,0.2-0.5,0.2c0,0-0.6,0.2-0.6,0.2c-0.1,0-0.5,0.1-0.5,0.1C56.1,393.5,55.7,393.5,55.6,393.5z"/>
	<path id="XMLID_174_" class="st0" d="M70.8,364.6l5.1,2.9c0.6,0.3,0.6,0.9,0,1.3l-19.1,11c-0.6,0.4-1.6,0.4-2.2,0l-0.1-0.1
		l-1.4-0.8l-3.5-2c-0.6-0.3-0.6-0.9,0-1.3l19.1-11C69.3,364.3,70.3,364.3,70.8,364.6z"/>
	<path id="XMLID_168_" class="st1" d="M74.9,369.3L74.9,369.3L74.9,369.3L74.9,369.3z M52.6,376.3l2.9,1.7l17.4-9.8l-3-1.7
		L52.6,376.3L52.6,376.3z M55.7,382.2c-0.8,0-1.5-0.2-2.1-0.5l-5-2.9c-0.9-0.5-1.5-1.4-1.5-2.4c0-1,0.6-1.9,1.5-2.4l19.1-11.1
		c1.2-0.7,3-0.7,4.2,0l5.1,2.9c0.9,0.5,1.5,1.4,1.5,2.4c0,1-0.5,1.9-1.5,2.4l-19.1,11.1C57.2,382,56.4,382.2,55.7,382.2z"/>
	<path id="XMLID_165_" class="st1" d="M69.4,369.7C69.4,369.7,69.4,369.7,69.4,369.7c-1.1,0-2.1-0.9-2.1-2.1
		c0.1-27.3,10-65.5,13.1-76.6c0.3-1.1,1.4-1.7,2.5-1.5c1.1,0.3,1.7,1.5,1.4,2.5c-6.2,22.5-12.9,54.2-13,75.5
		C71.5,368.8,70.6,369.7,69.4,369.7L69.4,369.7z M56.5,377.1c-1.1,0-2.1-0.9-2.1-2c0-20.1-4.7-43.9-12.2-62c-0.4-1,0.1-2.3,1.1-2.7
		c1.1-0.4,2.3,0.1,2.7,1.1c7.7,18.6,12.5,43,12.5,63.6C58.5,376.2,57.6,377.1,56.5,377.1z"/>
	<path id="XMLID_134_" class="st1" d="M50.9,299.8c-1.3,1.1-3.2,3.8-3.6,6.3l-1.1,6.9c-0.2,1.1,0,1.6,0,1.6c1.3-1.1,3.2-3.8,3.6-6.3
		l0,0l1.1-6.9C51.1,300.3,50.9,299.8,50.9,299.8L50.9,299.8z M45.8,318.5c-0.8,0-1.5-0.2-2.1-0.7c-0.8-0.6-2.1-2.1-1.6-5.5l1.1-6.9
		c0.6-3.6,3.1-7.5,5.8-8.9c1.6-0.8,3.2-0.8,4.3,0.1c0.8,0.6,2.1,2.1,1.6,5.4l-1.1,6.9c-0.6,3.7-3.1,7.5-5.8,8.9
		C47.3,318.3,46.5,318.5,45.8,318.5z"/>
	<path id="XMLID_131_" class="st1" d="M59,293c-1.3,1-3.2,3.7-3.6,6.3l-1.8,11.1c-0.2,1.2,0,1.6,0,1.6c1.3-1.1,3.2-3.7,3.6-6.3
		l2,0.3l-2-0.3l1.8-11.1C59.3,293.4,59,293,59,293L59,293z M53.3,315.8c-0.8,0-1.5-0.2-2.1-0.7c-0.8-0.6-2.1-2.1-1.6-5.5l1.8-11.2
		c0.6-3.7,3.1-7.5,5.8-8.9c1.6-0.8,3.1-0.8,4.3,0.1c0.8,0.6,2.1,2.1,1.6,5.5l-1.8,11.1c-0.6,3.7-3.1,7.5-5.8,8.9
		C54.8,315.6,54,315.8,53.3,315.8z"/>
	<path id="XMLID_127_" class="st1" d="M66.7,303.5L66.7,303.5L66.7,303.5L66.7,303.5z M67.2,286.2c-1.3,1.1-3.2,3.8-3.6,6.3
		l-2.5,15.4c-0.2,1.1,0,1.6,0,1.6c1.3-1.1,3.2-3.8,3.6-6.3l2.5-15.4C67.4,286.7,67.2,286.2,67.2,286.2L67.2,286.2z M60.7,313.3
		c-0.8,0-1.5-0.2-2.1-0.7c-0.8-0.6-2.1-2.1-1.6-5.4l2.5-15.4c0.6-3.7,3.1-7.5,5.8-8.9c1.6-0.8,3.2-0.8,4.4,0.1
		c0.8,0.6,2.1,2.1,1.6,5.4l-2.5,15.4l0,0c-0.6,3.7-3.1,7.5-5.8,8.9C62.2,313.1,61.4,313.3,60.7,313.3z"/>
	<path id="XMLID_124_" class="st1" d="M74.7,283.3c-1.3,1.1-3.2,3.8-3.6,6.3l-1.8,11.1c-0.2,1.1,0,1.6,0,1.6
		c1.3-1.1,3.2-3.8,3.6-6.3l0,0l1.8-11.2C74.9,283.7,74.7,283.3,74.7,283.3L74.7,283.3z M68.9,306.2c-0.8,0-1.5-0.2-2.1-0.7
		c-0.8-0.6-2.1-2.1-1.6-5.5l1.8-11.1c0.6-3.7,3.1-7.5,5.8-8.9c1.6-0.8,3.1-0.8,4.4,0.1c0.8,0.6,2.1,2.1,1.6,5.5l-1.8,11.1
		c-0.6,3.7-3.1,7.5-5.8,8.9C70.4,306,69.6,306.2,68.9,306.2z"/>
	<path id="XMLID_121_" class="st1" d="M82,281.4c-1.3,1.1-3.2,3.8-3.6,6.3l-1.1,6.9c-0.2,1.2,0,1.6,0,1.6c1.3-1.1,3.2-3.7,3.6-6.3
		l0,0L82,283C82.2,281.8,82,281.4,82,281.4L82,281.4z M76.9,300c-0.8,0-1.5-0.2-2.1-0.7c-0.8-0.6-2.1-2.1-1.6-5.4l1.1-6.9
		c0.6-3.7,3.1-7.5,5.8-8.9c1.6-0.8,3.1-0.8,4.4,0.1c0.8,0.6,2.1,2.1,1.6,5.5l-1.1,6.9c-0.6,3.6-3.1,7.5-5.8,8.9
		C78.4,299.9,77.6,300,76.9,300z"/>
	<path id="XMLID_120_" class="st1" d="M63.6,199.4c-1.6,0-2.9-1.3-2.9-2.9v-49.6c0-1.6,1.3-2.9,2.9-2.9c1.6,0,2.9,1.3,2.9,2.9v49.6
		C66.5,198.1,65.2,199.4,63.6,199.4z"/>
	<path id="XMLID_119_" class="st1" d="M-10.5,224c-0.7,0-1.5-0.3-2-0.8l-34.8-34.8c-1.1-1.1-1.1-2.9,0-4.1c1.1-1.1,3-1.1,4.1,0
		l34.8,34.7c1.1,1.1,1.1,2.9,0,4.1C-9,223.8-9.7,224-10.5,224z"/>
	<path id="XMLID_118_" class="st1" d="M-37.2,297.8h-48.7c-1.6,0-2.9-1.3-2.9-2.9s1.3-2.9,2.9-2.9h48.7c1.6,0,2.9,1.3,2.9,2.9
		S-35.6,297.8-37.2,297.8z"/>
	<path id="XMLID_117_" class="st1" d="M137.8,224c-0.7,0-1.5-0.3-2-0.9c-1.1-1.1-1.1-2.9,0-4.1l34.8-34.7c1.1-1.1,3-1.1,4.1,0
		c1.1,1.1,1.1,2.9,0,4.1l-34.8,34.8C139.3,223.8,138.5,224,137.8,224z"/>
	<path id="XMLID_116_" class="st1" d="M213.3,297.8h-48.7c-1.6,0-2.9-1.3-2.9-2.9s1.3-2.9,2.9-2.9h48.7c1.6,0,2.9,1.3,2.9,2.9
		S214.8,297.8,213.3,297.8z"/>
</g>
</svg>
