<?xml version="1.0" encoding="utf-8"?>
<!-- Generator: Adobe Illustrator 19.0.0, SVG Export Plug-In . SVG Version: 6.00 Build 0)  -->
<svg version="1.1" id="Capa_1" xmlns="http://www.w3.org/2000/svg" xmlns:xlink="http://www.w3.org/1999/xlink" x="0px" y="0px"
	 viewBox="-178 55.9 483.3 483.3" style="enable-background:new -178 55.9 483.3 483.3;" xml:space="preserve">
<style type="text/css">
	.st0{fill-rule:evenodd;clip-rule:evenodd;fill:#E51766;}
	.st1{fill-rule:evenodd;clip-rule:evenodd;fill:#D80927;}
	.st2{fill-rule:evenodd;clip-rule:evenodd;fill:#F93E78;}
	.st3{fill-rule:evenodd;clip-rule:evenodd;fill:#FFFFFF;}
	.st4{fill-rule:evenodd;clip-rule:evenodd;fill:#BDEDF8;}
	.st5{fill-rule:evenodd;clip-rule:evenodd;fill:#66CEEF;}
	.st6{fill-rule:evenodd;clip-rule:evenodd;fill:#1A87C7;}
	.st7{fill-rule:evenodd;clip-rule:evenodd;fill:#FF8FB7;}
</style>
<g>
	<path id="XMLID_531_" class="st0" d="M-70.7,185c11.8-7,31.9-10.3,43.7-11.1c12.3-0.8,21,8.5,21,25.2c0,22.6-15.9,50-35.4,61.3
		c-21,12.1-30-0.9-32.7-6.4c-6.6-13.5-14.8-28.7-12.8-43.8C-85.5,200.6-79.2,190-70.7,185z"/>
	<path id="XMLID_528_" class="st1" d="M-69.6,186.9c-7.4,4.4-13.7,14.3-15,23.6c-1.8,13.4,5.1,27.3,11.3,39.7l1.4,2.8
		c1.4,2.8,4.5,7.7,10.3,9.5c5.4,1.6,11.8,0.3,19.2-4c18.9-10.9,34.3-37.5,34.3-59.3c0-8.3-2.3-14.9-6.5-18.9
		c-3.1-2.9-7.4-4.3-12.1-4C-37.1,176.9-57.7,179.8-69.6,186.9L-69.6,186.9L-69.6,186.9z M-57.1,267.7c-2,0-4-0.3-5.9-0.8
		c-7.5-2.3-11.4-8.4-13.1-11.9l-1.4-2.8c-6.4-12.9-13.6-27.6-11.6-42.4c1.5-10.7,8.5-21.7,17.2-26.9l0,0
		c12.7-7.5,34.1-10.7,44.8-11.4c6.1-0.4,11.4,1.5,15.5,5.3c5.2,4.9,8,12.6,8,22.2c0,23.3-16.4,51.7-36.6,63.3
		C-46.3,266-52,267.7-57.1,267.7z"/>
	<path id="XMLID_527_" class="st2" d="M-70.7,185c11.8-7,31.9-10.3,43.7-11.1c4-0.3,7.7,0.6,10.7,2.4c-7.9,7.6-16.3,16.5-22.4,25.8
		l-33.2-16.3C-71.5,185.4-71.1,185.2-70.7,185z"/>
	<path id="XMLID_524_" class="st1" d="M-66.9,185.5l27.6,13.5c4.8-6.9,11.3-14.3,19.1-22.1c-2-0.7-4.2-0.9-6.6-0.8
		C-36.4,176.8-54.8,179.4-66.9,185.5L-66.9,185.5z M-38.6,204.3c-0.3,0-0.6-0.1-1-0.3l-33.3-16.3c-0.8-0.4-1.2-1.1-1.3-1.9
		c-0.1-0.8,0.3-1.6,1-2.1c0.4-0.3,0.8-0.5,1.2-0.8l0,0c12.7-7.5,34.1-10.7,44.8-11.4c4.5-0.3,8.5,0.6,12,2.7c0.6,0.4,1,1,1.2,1.7
		c0.1,0.7-0.2,1.4-0.7,1.9c-9.5,9-16.9,17.5-22,25.3C-37.1,203.9-37.8,204.3-38.6,204.3z"/>
	<path id="XMLID_523_" class="st2" d="M-38,180.9c19.6-11.3,35.4-2.1,35.4,20.4c0,22.6-15.8,50-35.4,61.3
		c-19.6,11.3-35.4,2.2-35.4-20.4C-73.5,219.7-57.6,192.2-38,180.9z"/>
	<path id="XMLID_519_" class="st1" d="M-38,180.9L-38,180.9L-38,180.9L-38,180.9z M-22.2,178.4c-4.4,0-9.4,1.5-14.6,4.5l0,0
		c-18.9,10.9-34.3,37.5-34.3,59.3c0,10.1,3.2,17.5,9.2,20.9c5.9,3.4,14,2.5,22.7-2.5c18.9-10.9,34.3-37.5,34.3-59.3
		c0-10.1-3.3-17.5-9.3-20.9C-16.5,179.1-19.2,178.4-22.2,178.4L-22.2,178.4z M-53.8,269.9c-3.8,0-7.3-0.9-10.4-2.7
		c-7.4-4.3-11.5-13.1-11.5-24.9c0-23.3,16.4-51.6,36.6-63.3c10.2-5.9,19.9-6.8,27.4-2.5c7.4,4.3,11.5,13.1,11.5,24.9
		c0,23.3-16.4,51.7-36.5,63.3C-42.8,268.1-48.6,269.9-53.8,269.9z"/>
	<path id="XMLID_518_" class="st3" d="M-30.7,276.5l-26.1-15.1c-6.1-3.9-8.1-9.5-8.9-16.4c-0.3-4.7,0-8.4,0.8-13
		c2.5-11.3,7-20.5,13.9-29.6c4.8-6,9.3-10.4,16-14.4c7-3.8,14.4-6.1,21.8-2.2L13,200.8c-11-5.7-23,1.7-31,9.1
		c-8.8,8.5-14.6,17.9-18.7,29.4c-2.4,7.7-3.6,14.4-2.7,22.4C-38.3,268-36.3,272.9-30.7,276.5z"/>
	<path id="XMLID_515_" class="st1" d="M-21.4,186c-3.6,0-7.7,1.3-12.6,4c-5.8,3.5-10.2,7.5-15.3,13.8c-7,9.3-11.2,18.1-13.5,28.7
		c-0.8,4.7-1,8.2-0.8,12.4c0.9,7.4,3.2,11.7,7.8,14.7l15.6,9c-0.8-2.1-1.3-4.3-1.6-6.3c-0.9-7.7-0.1-14.5,2.7-23.5
		c4.3-12.2,10.4-21.8,19.2-30.3c7.3-6.6,14.4-10.5,20.9-11.5l-15.6-9C-16.6,186.6-18.9,186-21.4,186L-21.4,186z M-30.7,278.8
		c-0.4,0-0.8-0.1-1.2-0.3L-58,263.4c-7.5-4.8-9.3-11.9-10-18.1c-0.3-4.7-0.1-8.5,0.8-13.7c2.4-11.2,6.9-20.9,14.3-30.6
		c5.5-6.8,10.3-11.1,16.6-15c6.5-3.5,15-7,24.1-2.2l26.2,15.1c1.1,0.6,1.5,2,0.9,3.1c-0.6,1.1-2,1.5-3.1,0.9
		c-9.8-5.1-20.9,1.9-28.4,8.7c-8.3,8-14,17-18,28.4c-2.6,8.3-3.4,14.5-2.5,21.4c0.9,5.5,2.6,9.9,7.6,13.1c1,0.7,1.4,2.1,0.7,3.1
		C-29.2,278.4-29.9,278.8-30.7,278.8z"/>
	<path id="XMLID_514_" class="st2" d="M-6,270.3L3,341c0.6,7.6,0.5,12.6-7.9,17.1c-13.8,7.5-15.7,7.3-23.5,3.5
		c-5.6-2.8-7-3.3-8.9-17.6l-8.7-68.9v0.1l0.1,0.1v0.1l0.1,0.1l0.1,0v0.1l0.1,0.1l0.1,0.1l0.1,0.1l0.1,0.1l0.1,0l0.1,0l13.5,7.8
		l0.1,0l0.1,0l0.1,0.1l0.1,0l0.1,0l0.1,0l0.1,0l0.1,0l0.1,0l0.1,0h0.1l0.1,0l0.1,0h0.1l0.1,0h0.3l0.1,0h0.1l0.1,0l0.1,0h0.1l0.1,0
		l0.1,0l0.1,0l0.1,0l0.1,0l0.1,0l0.1,0l0.1-0.1l0.1,0l0.1,0l22-12.7l0.1-0.1l0.1,0l0.1-0.1v-0.1l0.1-0.1l0.1-0.1l0.1-0.1l0.1-0.1
		v-0.1l0.1-0.1v-0.1L-6,270.3L-6,270.3z"/>
	<path id="XMLID_511_" class="st1" d="M-43.1,279.9l8.1,63.8c1.6,12.8,2.5,13.3,7.3,15.7c7.1,3.6,8.2,4.1,21.6-3.3
		c7.3-4,7.3-7.8,6.7-14.9l-8.5-66.9l-19.6,11.3c-0.1,0.1-0.5,0.3-0.6,0.3c-0.1,0-0.5,0.2-0.5,0.2c-0.1,0-0.5,0.1-0.6,0.1
		c-0.1,0-0.5,0.1-0.6,0.1c-0.1,0-0.5,0-0.6,0c0,0-0.5,0-0.6-0.1c-0.1,0-0.5-0.1-0.6-0.1c-0.1,0-0.5-0.2-0.6-0.2c0,0-0.5-0.2-0.5-0.2
		L-43.1,279.9L-43.1,279.9z M-20.1,366.5c-2.9,0-5.5-1-9.3-2.9c-6.9-3.5-8.3-5.3-10.1-19.4l-8.7-68.9c-0.2-1.2,0.6-2.4,1.9-2.5
		c1-0.2,2,0.4,2.5,1.3l13.8,7.6L-8,269.1c0.5-0.7,1.4-1.2,2.2-1c1,0.1,1.9,0.9,2,1.9l9.1,70.8c0.6,8.2,0.4,14.2-9.1,19.4
		C-11.9,364.6-16.2,366.5-20.1,366.5z"/>
	<path id="XMLID_510_" class="st2" d="M-6,270.3L3,341c0.6,7.6,0.5,12.6-7.9,17.1c-10,6.2-15,4.4-16.3-5.8l-8.3-68.3l0.1,0l0.1,0
		l0.1,0l0.1,0l0.1,0l0.1,0l0.1-0.1l0.1,0l0.1,0l22-12.7l0.1-0.1l0.1,0l0.1-0.1v-0.1l0.1-0.1l0.1-0.1l0.1-0.1l0.1-0.1v-0.1l0.1-0.1
		v-0.1L-6,270.3L-6,270.3z"/>
	<path id="XMLID_507_" class="st1" d="M-27,285.4l8.1,66.6c0.3,2.7,1.2,6.1,3.1,7.1c1.3,0.6,4,0.6,9.7-2.9c7.3-4,7.3-7.9,6.8-15
		l-8.5-66.9L-27,285.4L-27,285.4z M-14.3,364c-1.3,0-2.5-0.3-3.5-0.8c-3.1-1.5-4.9-5-5.7-10.6l-8.3-68.3c-0.2-1.2,0.6-2.3,1.8-2.5
		l22-12.7c0.5-0.7,1.4-1.2,2.2-1c1,0.1,1.9,0.9,2,1.9l9.1,70.8c0.6,8.2,0.4,14.2-9.1,19.4C-8,362.8-11.4,364-14.3,364z"/>
	<path id="XMLID_506_" class="st4" d="M-7,319.5c-1.1,1.1-2.3,1.4-3.3,1.1l-2.9-0.9l-0.2-0.1l-0.2-0.1l-0.1-0.1l-0.2-0.1l-0.1-0.1
		l-0.2-0.1l-0.1-0.1l-0.1-0.2l-0.1-0.2l-0.1-0.2l-0.1-0.2L-15,318l-0.1-0.3l-0.1-0.2l-0.1-0.3l-0.1-0.3l-0.1-0.3l-0.1-0.3v-0.3
		l-0.1-0.3v-1.3l0.1-0.3v-0.3l0.1-0.3l0.1-0.3l0.1-0.3l0.1-0.3l0.1-0.3l0.1-0.3l0.1-0.3l0.1-0.3l0.1-0.3l0.1-0.3l0.1-0.3l0.1-0.3
		l0.1-0.3l0.2-0.3l0.1-0.3l0.2-0.3l0.1-0.3l0.2-0.3l0.4-0.5l0.3-0.2l0.2-0.2l0.2-0.2l0.2-0.2l0.3-0.2l0.2-0.2l0.2-0.1l0.3-0.1
		l0.2-0.1l0.2-0.1l0.2-0.1l0.2-0.1l0.3,0l0.2,0h0.2l0.2,0l0.2,0l0.2,0l2.9,0.9c1,0.3,1.8,1.2,2.1,2.8C-3.4,313.1-4.7,317.3-7,319.5z
		"/>
	<path id="XMLID_502_" class="st1" d="M-12.9,316.9l-1.8,1.6l2.1-1l3.1,1c0.1,0,0.5,0,1-0.6c1.7-1.6,2.7-4.9,2.2-7.2
		c-0.2-0.8-0.5-1.1-0.6-1.1l-2.9-0.9l-1.8-1.8l1,2.1l-2.1-1.2l1.4,1.8l-0.3,0.4l-2.1-1l1.8,1.5l-2.4-0.4l2.1,1l-2.3-0.4l1.9,1.2
		l-2.4,0l2.2,0.6l-2.4,0l2.1,0.8l-2.4,0.5l2.4,0.2l-2.4,0.4l2.3,0.4l-2.3,0.8l2.3-0.2l-2.3,0.8l2.4-0.1l-2,1.5L-12.9,316.9
		L-12.9,316.9z M-7,319.5L-7,319.5L-7,319.5L-7,319.5z M-9.6,323c-0.5,0-0.9-0.1-1.4-0.2l-2.9-0.9c-0.1,0-0.5-0.2-0.6-0.2
		c-0.1-0.1-0.4-0.2-0.5-0.3c-0.1,0-0.4-0.3-0.5-0.3c-0.1-0.1-0.5-0.4-0.6-0.5c0-0.1-0.5-0.7-0.5-0.7c-0.1-0.1-0.3-0.5-0.4-0.6
		c0,0-0.2-0.5-0.3-0.6c0,0-0.3-0.8-0.3-0.8c0-0.1-0.2-0.7-0.2-0.7c0-0.1-0.1-0.7-0.1-0.8c0-0.1,0-0.7,0-0.8c0-0.1,0-0.8,0-0.8
		c0,0,0-0.7,0.1-0.7c0-0.1,0.1-0.8,0.1-0.8c0,0,0.1-0.7,0.1-0.8s0.2-0.7,0.2-0.7c0-0.1,0.3-0.7,0.3-0.8c0-0.1,0.3-0.7,0.3-0.8
		c0,0,0.3-0.7,0.3-0.7c0,0,0.3-0.6,0.3-0.7c0.1,0,0.4-0.6,0.4-0.7c0.1-0.1,0.4-0.6,0.4-0.7l0.6-0.8c0.1-0.1,0.6-0.6,0.6-0.7
		c0.1,0,0.5-0.4,0.5-0.4c0.1,0,0.5-0.4,0.6-0.5c0.1,0,0.8-0.4,0.8-0.4c0.1,0,0.6-0.3,0.7-0.3c0.1,0,0.6-0.2,0.8-0.2
		c0.1,0,0.6-0.1,0.7-0.1c0,0,0.6,0,0.8,0.1c0.1,0,0.5,0.1,0.6,0.1l2.9,0.9c1.9,0.5,3.2,2.2,3.8,4.5c0.8,3.8-0.6,8.9-3.5,11.6l0,0
		C-6.7,322.4-8.2,323-9.6,323z"/>
	<polygon id="XMLID_501_" class="st4" points="-10.2,320.6 -13.2,319.7 -13.4,319.7 -13.6,319.6 -13.7,319.5 -13.9,319.4 -14,319.3 
		-14.2,319.1 -14.3,319 -14.5,318.8 -14.6,318.6 -14.7,318.4 -14.9,318.2 -15,318 -15.1,317.8 -15.1,317.5 -15.3,317.2 -15.3,317 
		-15.4,316.7 -15.5,316.4 -15.5,316.1 -15.5,315.8 -15.5,314.5 -15.5,314.2 -15.5,313.9 -15.4,313.5 -15.3,313.2 -15.3,312.9 
		-15.2,312.6 -15.1,312.3 -15,311.9 -14.9,311.6 -14.8,311.3 -14.7,311 -14.5,310.7 -14.4,310.4 -14.3,310.1 -14.2,309.8 -14,309.5 
		-13.8,309.3 -13.6,309 -13.5,308.7 -13.3,308.5 -13.1,308.2 -12.9,308 -12.7,307.8 -12.5,307.6 -12.3,307.4 -12.1,307.2 
		-11.8,307.1 -11.6,306.9 -11.4,306.8 -11.2,306.7 -11,306.6 -10.8,306.5 -10.6,306.4 -10.4,306.4 -10.1,306.4 -9.9,306.4 
		-9.7,306.4 -9.5,306.4 -9.3,306.4 -9.1,306.4 -6.3,307.3 -6.4,307.3 -6.6,307.3 -6.8,307.2 -7,307.2 -7.3,307.3 -7.5,307.3 
		-7.6,307.3 -7.9,307.4 -8,307.5 -8.3,307.6 -8.5,307.7 -8.7,307.8 -8.9,307.9 -9.1,308.1 -9.3,308.3 -9.5,308.5 -9.8,308.7 
		-10,308.9 -10.2,309.1 -10.4,309.4 -10.6,309.6 -10.7,309.9 -10.9,310.1 -11,310.4 -11.2,310.7 -11.4,311 -11.5,311.3 -11.6,311.6 
		-11.7,311.9 -11.9,312.2 -12,312.5 -12.1,312.8 -12.2,313.1 -12.3,313.5 -12.3,313.8 -12.4,314.1 -12.5,314.4 -12.5,314.8 
		-12.5,315.1 -12.6,315.4 -12.6,316.7 -12.5,317 -12.5,317.3 -12.5,317.6 -12.4,317.9 -12.3,318.1 -12.3,318.4 -12.1,318.7 
		-12.1,318.9 -12,319.1 -11.8,319.3 -11.7,319.5 -11.6,319.7 -11.4,319.9 -11.3,320 -11.1,320.2 -11,320.3 -10.8,320.4 -10.6,320.5 
		-10.4,320.6 	"/>
	<path id="XMLID_486_" class="st1" d="M-11.6,306.9l0.1,0.3c0,0,0,0,0.1-0.1L-11.6,306.9L-11.6,306.9z M-12.7,307.8l0.3,0.4
		c0-0.1,0.1-0.1,0.1-0.1L-12.7,307.8L-12.7,307.8z M-13.5,308.7l0.6,0.4c0,0,0-0.1,0.1-0.1L-13.5,308.7L-13.5,308.7z M-13.8,309.3
		l0.5,0.4c0.1-0.1,0.1-0.2,0.1-0.2L-13.8,309.3L-13.8,309.3z M-14.4,310.4l0.6,0.3c0,0,0.1-0.1,0.1-0.2L-14.4,310.4L-14.4,310.4z
		 M-14.7,311l0.6,0.4c0-0.1,0.1-0.2,0.1-0.3L-14.7,311L-14.7,311z M-14.3,312.2l-0.8,0.1l0.7,0.2C-14.3,312.3-14.3,312.2-14.3,312.2
		L-14.3,312.2z M-14.5,312.9l-0.8,0l0.7,0.3C-14.5,313-14.5,313-14.5,312.9C-14.5,312.9-14.5,312.9-14.5,312.9L-14.5,312.9z
		 M-14.7,314l-0.7,0.2l0.7,0C-14.7,314.2-14.7,314.1-14.7,314L-14.7,314z M-14.8,314.7l-0.7,0.1l0.6,0.1
		C-14.9,314.9-14.8,314.8-14.8,314.7L-14.8,314.7z M-14.9,315.9l-0.6,0.2l0.6-0.1C-14.9,316-14.9,315.9-14.9,315.9L-14.9,315.9z
		 M-14.9,316.5l-0.5,0.2l0.5,0C-14.9,316.6-14.9,316.5-14.9,316.5L-14.9,316.5z M-14.7,317.8L-15,318L-14.7,317.8
		C-14.7,317.9-14.7,317.9-14.7,317.8L-14.7,317.8z M-10.4,322.9c-0.2,0-0.4,0-0.6-0.1l-2.9-0.9c-0.1,0-0.5-0.2-0.6-0.2
		c-0.1-0.1-0.4-0.2-0.5-0.3c-0.1,0-0.4-0.3-0.5-0.3c-0.1-0.1-0.5-0.4-0.5-0.5c-0.1,0-0.6-0.7-0.6-0.7c-0.1-0.1-0.3-0.5-0.4-0.6
		c0,0-0.2-0.5-0.3-0.6c0,0-0.3-0.8-0.3-0.8c0-0.1-0.2-0.7-0.2-0.7c0-0.1-0.1-0.7-0.1-0.8c0-0.1,0-0.7,0-0.8c0-0.1,0-0.8,0-0.8
		c0,0,0-0.7,0.1-0.7c0-0.1,0.1-0.8,0.1-0.8c0,0,0.1-0.7,0.1-0.8s0.2-0.7,0.2-0.7c0-0.1,0.3-0.7,0.3-0.8c0-0.1,0.3-0.7,0.3-0.8
		c0,0,0.3-0.7,0.3-0.7c0,0,0.3-0.6,0.3-0.7c0.1,0,0.4-0.6,0.4-0.7c0.1-0.1,0.4-0.6,0.4-0.7c0.1-0.1,0.5-0.6,0.5-0.6
		c0,0,0.5-0.5,0.5-0.6c0,0,0.5-0.5,0.5-0.5c0.1,0,0.5-0.4,0.5-0.4c0.1-0.1,0.6-0.4,0.6-0.4c0.1,0,0.8-0.4,0.8-0.4
		c0.1,0,0.5-0.2,0.6-0.2c0.1,0,0.6-0.1,0.8-0.2l0,0c0.1,0,0.9,0,0.9,0c0.1,0,0.6,0.1,0.8,0.1l3.2,0.9c1.2,0.4,1.9,1.6,1.6,2.8
		c-0.3,1.2-1.6,1.9-2.8,1.6l-0.1-0.1l-0.1,0.1l-0.6-0.2l0.1,0.4l-1.4-0.8l0.9,1.2l-2.2-1.1l1.6,1.7l-2.3-0.7l1.9,1.2l-2.3-0.6
		l1.9,1.4l-2.4-0.2l2.1,0.8l-2.4-0.2l2.1,1l-2.4,0.3l2.3,0.4l-2.4,0.2l2.2,0.6l-2.4,0.6h2.4l-2.4,0.6l2.4,0.2l-2,0.9l0.2,0.1
		l1.9-0.2l-0.7,0.6l0.7,0.3l0.3-0.1c1.2,0.4,2,1.9,1.6,3C-8.6,322.2-9.4,322.9-10.4,322.9z"/>
	<path id="XMLID_485_" class="st5" d="M17.1,207.4c22.1-12.8,40.1-2.4,40.1,23.1c0,25.5-18,56.6-40.1,69.3
		c-22.1,12.8-40,2.4-40-23.1C-22.9,251.3-5,220.2,17.1,207.4z"/>
	<path id="XMLID_482_" class="st6" d="M35,204.3c-5.1,0-10.8,1.7-16.7,5.2c-21.5,12.4-38.9,42.6-38.9,67.4c0,11.5,3.7,20,10.5,23.9
		c6.8,3.9,16.1,2.9,26-2.8c21.4-12.4,38.9-42.6,38.9-67.4c0-11.5-3.7-20-10.5-23.9C41.6,205,38.4,204.3,35,204.3L35,204.3z
		 M-0.8,307.7c-4.2,0-8.1-1-11.6-3c-8.3-4.8-12.9-14.7-12.9-27.9c0-26.2,18.5-58.2,41.2-71.3c11.4-6.6,22.3-7.6,30.6-2.8
		c8.3,4.8,12.9,14.7,12.9,27.9c0,26.2-18.5,58.2-41.2,71.3C11.6,305.8,5.1,307.7-0.8,307.7z"/>
	<path id="XMLID_481_" class="st0" d="M9.1,183.6l33.6,19.3c9.1,3.4,15,13.3,15,28c0,26.3-18.5,58.2-41.2,71.3
		c-12.8,7.4-24.3,7.3-31.8,1L-48.9,284c-8.7-7.8-9.9-18.8-9.2-29.8c1-9.4,3.2-16.9,6.8-25.7c3.3-7.1,6.6-12.9,11.1-19.3
		c4.6-6.1,8.9-10.7,14.8-15.7c4.9-3.8,8.9-6.4,14.6-8.8C-3.8,182.1,1.8,181.2,9.1,183.6z"/>
	<path id="XMLID_478_" class="st1" d="M1.1,184.5c-3.7,0-7.2,0.9-11.1,2.4c-5,2.2-8.8,4.5-13.9,8.5c-5.4,4.5-9.6,9-14.3,15.2
		c-4.5,6.2-7.7,11.9-10.9,18.8c-3.8,9.1-5.7,16.3-6.6,25c-0.6,8.9-0.1,20.2,8.4,27.9l33.1,19.1c7.3,6.1,18,5.6,29.5-1
		c22.1-12.7,40.1-43.8,40.1-69.3c0-13.2-4.9-22.7-13.5-25.9L8.1,185.7C5.6,184.9,3.3,184.5,1.1,184.5L1.1,184.5z M-2.1,310.2
		c-5.6,0-10.7-1.7-14.8-5.1L-50.1,286c-10.4-9.2-11-21.9-10.3-31.9c1-9.2,3-16.9,7-26.4c3.3-7.3,6.7-13.2,11.4-19.7
		c5-6.6,9.3-11.3,15.1-16.1c5.5-4.3,9.7-6.8,15.2-9.2c7.2-2.7,13.6-3.9,21.6-1.3c0.1,0.1,0.3,0.1,0.4,0.2l33.5,19.3
		c10.2,3.8,16.2,14.8,16.2,30c0,27-19.1,59.9-42.4,73.3C10.7,308.2,4,310.2-2.1,310.2z"/>
	<path id="XMLID_477_" class="st2" d="M9.1,183.6l33.6,19.3c2.7,1,5,2.5,7,4.6L7.7,236.6L-40,209.1l0,0c4.6-6,8.8-10.6,14.6-15.5
		c4.9-3.8,8.9-6.4,14.6-8.8C-3.8,182.1,1.8,181.2,9.1,183.6z"/>
	<path id="XMLID_474_" class="st1" d="M-36.6,208.4l44.2,25.5l38.4-26.6c-1.3-0.9-2.7-1.7-4.2-2.2L8.1,185.7
		c-6.6-2.1-11.9-1.1-18.2,1.2c-5,2.2-8.8,4.5-13.9,8.5C-28.8,199.4-32.5,203.3-36.6,208.4L-36.6,208.4z M7.7,238.9
		c-0.4,0-0.8-0.1-1.1-0.3l-47.7-27.6c-0.6-0.3-1-0.9-1.1-1.5c-0.1-0.6,0-1.3,0.4-1.8c4.8-6.3,9.3-11.1,14.9-15.9
		c5.4-4.3,9.6-6.8,15.2-9.2c7.2-2.7,13.6-3.9,21.6-1.3c0.1,0.1,0.3,0.1,0.4,0.2l33.5,19.3c2.7,0.9,5.3,2.7,7.6,5
		c0.4,0.5,0.7,1.1,0.6,1.8c-0.1,0.7-0.5,1.3-1,1.7L9,238.5C8.6,238.8,8.1,238.9,7.7,238.9z"/>
	<path id="XMLID_473_" class="st2" d="M16.4,207.2c22.7-13.1,41.2-2.5,41.2,23.8c0,26.3-18.5,58.2-41.2,71.3
		c-22.8,13.1-41.2,2.5-41.2-23.8C-24.8,252.2-6.3,220.3,16.4,207.2z"/>
	<path id="XMLID_470_" class="st1" d="M34.7,203.8c-5.2,0-11.1,1.8-17.2,5.3c-22,12.7-40,43.8-40,69.3c0,11.9,3.8,20.6,10.9,24.7
		c7.1,4.1,16.6,3.1,26.9-2.9c22.1-12.7,40.1-43.8,40.1-69.3c0-11.8-3.9-20.6-10.9-24.7C41.5,204.6,38.3,203.8,34.7,203.8L34.7,203.8
		z M-2,310.2c-4.4,0-8.3-1-11.9-3.1c-8.5-4.9-13.2-15.1-13.2-28.7c0-26.9,19-59.8,42.3-73.3c11.8-6.8,22.9-7.8,31.4-2.9
		c8.5,4.9,13.3,15.1,13.3,28.7c0,27-19.1,59.9-42.4,73.3C10.7,308.2,4,310.2-2,310.2z"/>
	<path id="XMLID_469_" class="st3" d="M138.8,188.9c-20.7,1-77,18.6-94.7,16.8c-6-0.6-12.9,1.1-20.3,5.4c-22.1,12.8-40,43.8-40,69.4
		c0,8.9,2.2,16,6,20.9c12.4,16,28.4,68.1,43.6,89.3c-6.8-9.8-9.3-17.6-11.2-29.3c-2.2-18.4-0.3-33.1,4.2-51
		c3.8-13.3,8.1-24.3,14.2-36.8c9.4-17.8,18.9-31.7,32.5-46.6c9.3-9.6,17.4-16.7,28.6-24.1c7.4-4.5,13.3-7.5,21.4-10.5
		C128.6,190.6,132.9,189.7,138.8,188.9L138.8,188.9z"/>
	<path id="XMLID_466_" class="st1" d="M41.8,207.9c-5.1,0-10.9,1.8-16.8,5.2c-21.5,12.4-38.9,42.6-38.9,67.4
		c0,8.1,1.9,14.8,5.5,19.5c6.2,8.1,13.2,24.6,20.6,42c2.4,5.7,4.8,11.6,7.3,17.2c-1.8-18.6,0.5-33.2,4.5-49.3
		c3.8-13.2,8.1-24.3,14.4-37.3c9.7-18.4,19.4-32.5,32.8-47.2c10-10.3,18.3-17.3,29.1-24.5c2.6-1.6,5-2.9,7.3-4.2
		c-3.4,0.8-6.9,1.6-10.5,2.4C75.8,204,54,209,43.9,208C43.1,208,42.5,207.9,41.8,207.9L41.8,207.9z M33.3,393c-0.7,0-1.4-0.3-1.8-1
		c-7.9-11.1-15.9-30-23.6-48.3c-7.2-17.2-14-33.4-20-41c-4.2-5.4-6.4-13.1-6.4-22.3c0-26.2,18.5-58.3,41.2-71.4
		c7.5-4.4,15-6.3,21.6-5.6c9.4,1,30.9-4,51.6-8.7c17.1-3.9,33.3-7.6,42.7-8.1c1.3,0,2.3,0.9,2.4,2.1c0.1,1.2-0.8,2.3-2,2.5
		c-5.5,0.7-9.6,1.5-15.5,3.4c-7.5,2.8-13.1,5.6-20.9,10.3c-10.3,6.9-18.5,13.8-28.2,23.7c-13,14.3-22.6,28.1-32,46.1
		c-6.2,12.6-10.4,23.5-14,36.4c-4.1,16.2-6.4,31-4.1,50.1c1.8,10.8,4.1,18.6,10.8,28.3c0.8,1,0.5,2.5-0.5,3.2
		C34.3,392.9,33.8,393,33.3,393z"/>
	<path id="XMLID_465_" class="st0" d="M162.8,192.8c-18.6-7.8-35.2-3.5-52.6,5.1c-15,8.3-25.5,16.9-37.3,29.1
		c-12.2,13.4-21,25.8-29.8,41.5c-9.2,17.6-15.2,33-19.3,52.5c-3.4,18.7-4.2,34.5,1.1,52.9c4.1,11.5,8.4,18.8,18.2,26.2l11.6,6.7
		l12.3,7.1l119.4-207.4L162.8,192.8z"/>
	<path id="XMLID_462_" class="st1" d="M143,191c-11.4,0-22,4.1-31.9,9c-13.6,7.5-24,15.6-36.7,28.7c-11.7,12.8-20.5,25.1-29.4,41
		C35.5,287.9,30,303,26,321.5c-3.1,17.7-4.2,33.3,1.1,51.8c3.7,10.4,7.6,17.5,17.4,25l21.7,12.5l117.1-203.4l-21.5-12.5
		C155.2,192.1,149,191,143,191L143,191z M67,416.2c-0.4,0-0.8-0.1-1.2-0.3L42,402.1c-11-8.2-15.3-16.2-19.2-27.4
		c-5.6-19.5-4.6-35.7-1.2-54.1c4.1-19.1,9.7-34.4,19.6-53.2c9.1-16.3,18.1-28.8,30-42c13.1-13.5,23.7-21.8,38-29.6
		c15.3-7.5,33.8-14,54.6-5.2c0.1,0,0.1,0.1,0.3,0.1l23.6,13.7c1.1,0.6,1.5,2,0.8,3.1L69,415.1c-0.3,0.5-0.9,0.9-1.4,1.1
		C67.4,416.2,67.2,416.2,67,416.2z"/>
	<path id="XMLID_461_" class="st2" d="M162.8,192.8c-18.6-7.8-35.2-3.5-52.6,5.1c-13.3,7.3-22.9,14.8-33.2,24.9
		c-11.6,13.3-21,24.9-25.2,31.2v0.1l56,32.3l56.2-40.9l22.4-38.9L162.8,192.8z"/>
	<path id="XMLID_458_" class="st1" d="M55.1,253.3l52.6,30.4l54.5-39.8l21-36.5l-21.5-12.5c-19-8-35.5-2.3-50.6,5.1
		c-12.3,6.7-21.7,13.8-32.5,24.4C67.8,236.8,59.5,247,55.1,253.3L55.1,253.3z M107.8,288.7c-0.4,0-0.8-0.1-1.2-0.3l-56-32.3
		c-0.5-0.3-1-0.8-1.1-1.4c-0.1-0.6,0-1.3,0.3-1.8c4.1-6.3,13.1-17.4,25.4-31.5c11.1-10.9,21.1-18.4,33.8-25.4
		c15.3-7.5,33.8-14,54.6-5.2c0.1,0,0.1,0.1,0.3,0.1l23.6,13.7c1.1,0.6,1.5,2,0.8,3.1L166,246.6c-0.1,0.3-0.3,0.5-0.6,0.7l-56.2,40.9
		C108.8,288.5,108.3,288.7,107.8,288.7z"/>
	<path id="XMLID_457_" class="st2" d="M129.8,409.8c46.8-27,84.7-92.7,84.7-146.7c0-54-37.9-76-84.7-48.9
		c-46.8,27-84.7,92.7-84.7,146.8C45.1,415,83,436.8,129.8,409.8z"/>
	<path id="XMLID_454_" class="st1" d="M167.6,204.8c-11.2,0-23.7,3.8-36.7,11.3c-46,26.6-83.6,91.6-83.6,144.8
		c0,25.3,8.4,44,23.7,52.8c15.3,8.8,35.7,6.7,57.6-5.9l0,0c46.1-26.6,83.6-91.5,83.6-144.7c0-25.3-8.4-44.1-23.7-52.9
		C182.3,206.6,175.3,204.8,167.6,204.8L167.6,204.8z M91.9,423.7c-8.4,0-16.2-2-23.2-6c-16.7-9.7-25.9-29.9-25.9-56.8
		c0-54.7,38.6-121.4,85.9-148.8c23.3-13.5,45.5-15.6,62.2-5.9c16.8,9.7,26,29.9,26,56.9c0,54.7-38.5,121.4-85.9,148.7
		C117.2,419.7,103.9,423.7,91.9,423.7z"/>
	<path id="XMLID_453_" class="st0" d="M129.8,388.5c37.5-21.6,67.8-74.1,67.8-117.4c0-43.2-30.4-60.8-67.8-39.2
		C92.4,253.6,62,306.2,62,349.4C62,392.7,92.4,410.2,129.8,388.5z"/>
	<path id="XMLID_450_" class="st1" d="M160,225c-8.8,0-18.7,3-29.1,9c-36.7,21.2-66.6,73-66.6,115.5c0,20.1,6.6,34.9,18.7,41.9
		c12.1,7,28.3,5.3,45.6-4.8l0,0c36.7-21.2,66.6-73,66.6-115.4c0-20.1-6.6-34.9-18.7-41.9C171.7,226.4,166.2,225,160,225L160,225z
		 M99.5,400.1c-6.8,0-13.2-1.6-18.8-4.8c-13.5-7.8-21-24.1-21-45.9c0-43.9,31-97.5,68.9-119.5c18.9-10.9,36.7-12.5,50.3-4.7
		c13.5,7.8,21,24.1,21,45.9c0,43.9-30.9,97.5-68.9,119.4C119.9,396.9,109.2,400.1,99.5,400.1z"/>
	<path id="XMLID_449_" class="st7" d="M163.6,222.8c-9.9-0.8-21.4,2-33.8,9.1C92.4,253.6,62,306.2,62,349.4c0,13.8,3.1,25,8.6,33.2
		c9.9,0.9,21.4-2,33.7-9.1c37.5-21.6,67.8-74.1,67.8-117.4C172.1,242.2,169,231,163.6,222.8z"/>
	<path id="XMLID_446_" class="st1" d="M71.9,380.4c9.5,0.5,20.3-2.5,31.3-8.9c36.7-21.2,66.7-73,66.7-115.4c0-12.4-2.6-23.1-7.5-31
		c-9.4-0.5-20.3,2.5-31.3,8.9c-36.7,21.2-66.6,73-66.6,115.5C64.3,361.8,66.9,372.5,71.9,380.4L71.9,380.4z M74,385
		c-1.2,0-2.5-0.1-3.6-0.2c-0.7-0.1-1.3-0.4-1.7-1c-5.9-8.7-9-20.6-9-34.4c0-43.9,31-97.5,68.9-119.5c12.3-7.1,24.4-10.3,35.1-9.4
		c0.7,0.1,1.3,0.4,1.7,1c5.8,8.7,9,20.7,9,34.5c0,43.9-31,97.5-68.9,119.4C94.6,381.8,83.8,385,74,385z"/>
	<path id="XMLID_445_" class="st0" d="M105.6,324.1l-35.4-16.8c6-16.4,15.2-32.4,26.2-46l33.3,21l-0.6-0.3l-0.6-0.3l-0.6-0.2
		l-0.6-0.2l-0.7-0.1l-0.7-0.1h-0.7l-0.8,0l-0.8,0.1l-0.8,0.2l-0.8,0.2l-0.8,0.3l-0.8,0.3l-0.8,0.4l-0.8,0.4l-0.9,0.5l-0.8,0.5
		l-0.9,0.6l-0.8,0.6l-0.9,0.6l-0.8,0.7l-0.8,0.7l-0.8,0.8l-0.8,0.8l-0.7,0.8l-0.8,0.9l-0.7,0.9l-0.6,0.9l-0.7,0.9l-0.6,1l-0.6,1
		l-0.6,1l-0.6,1l-0.5,1l-0.5,1l-0.5,1l-0.5,1.1l-0.4,1.1l-0.4,1.1l-0.3,1.1l-0.3,1.1l-0.3,1.1l-0.3,1.1l-0.1,1.1l-0.2,1.1l-0.1,1
		l-0.1,1l-0.1,1l0.1,1l0.1,0.9l0.1,0.9l0.2,0.9l0.1,0.8l0.3,0.8l0.3,0.8l0.3,0.7l0.3,0.7l0.4,0.6l0.4,0.6l0.5,0.5l0.5,0.5l0.5,0.5
		l0.5,0.4L105.6,324.1z"/>
	<path id="XMLID_442_" class="st1" d="M73.1,306.1L99,318.4l-0.6-4.2v-1.1l1.1-8l4.2-10l6.6-8.6l7.3-5.5l3.6-1.5L97,264.4
		C87.1,276.9,78.9,291.3,73.1,306.1L73.1,306.1z M105.6,326.4c-0.3,0-0.6-0.1-1-0.2l-35.4-16.8c-1.1-0.5-1.6-1.8-1.2-2.9
		c6.2-16.7,15.4-32.8,26.7-46.6c0.7-0.9,2-1.1,3-0.5l33.2,21.1c1.1,0.6,1.4,2,0.8,3.1c-0.6,1.1-2,1.5-3.1,0.9l-3.6-0.9l-4.7,1.2
		l-6.2,4.3l-6,7.4l-4.3,9.8l-0.9,6.8l1.4,6.5l2.5,2.6c1,0.7,1.4,2,0.8,3.1C107.2,326,106.4,326.4,105.6,326.4z"/>
	<path id="XMLID_441_" class="st3" d="M117.6,322.9c-9.4,5.4-17,1-17-9.8c0-10.9,7.7-24.1,17-29.5c9.4-5.4,17-1,17,9.8
		C134.7,304.3,127.1,317.5,117.6,322.9z"/>
	<path id="XMLID_438_" class="st1" d="M125.3,283.5c-1.9,0-4.1,0.7-6.4,2c-8.8,5.1-15.9,17.4-15.9,27.5c0,4.4,1.4,7.6,3.8,9
		c2.5,1.4,5.9,1,9.8-1.2c0,0,0,0,0,0c8.7-5.1,15.9-17.4,15.9-27.5c0-4.4-1.4-7.6-3.8-9C127.6,283.8,126.5,283.5,125.3,283.5
		L125.3,283.5z M110,327.6c-2,0-3.9-0.5-5.6-1.4c-4-2.3-6.1-6.9-6.1-13c0-11.8,8-25.6,18.2-31.5c5.3-3.1,10.3-3.5,14.3-1.2
		c4,2.3,6.2,6.9,6.2,13c0,11.8-8,25.6-18.2,31.5l0,0C115.8,326.7,112.8,327.6,110,327.6z"/>
</g>
</svg>
