<?xml version="1.0" encoding="utf-8"?>
<!-- Generator: Adobe Illustrator 19.0.0, SVG Export Plug-In . SVG Version: 6.00 Build 0)  -->
<svg version="1.1" id="Capa_1" xmlns="http://www.w3.org/2000/svg" xmlns:xlink="http://www.w3.org/1999/xlink" x="0px" y="0px"
	 viewBox="-178 55.9 483.3 483.3" style="enable-background:new -178 55.9 483.3 483.3;" xml:space="preserve">
<style type="text/css">
	.st0{fill-rule:evenodd;clip-rule:evenodd;fill:#E51550;}
	.st1{fill-rule:evenodd;clip-rule:evenodd;fill:#D80927;}
	.st2{fill-rule:evenodd;clip-rule:evenodd;fill:#FFFFFF;}
	.st3{fill-rule:evenodd;clip-rule:evenodd;fill:#F93E78;}
	.st4{fill-rule:evenodd;clip-rule:evenodd;fill:#BDEDF8;}
</style>
<g id="XMLID_216_">
	<path id="XMLID_435_" class="st0" d="M120.4,104.8c-2.7-1.2-6.6-0.2-9.2,1.1l-0.9,0.5L-4,172.5c-9.9,5.9-16.7,19.5-16.8,30.9
		l0.1,263.3c0.1,4.5,0.9,8.6,4.4,11.7l20.9,12c-3.5-3-4.3-7.2-4.4-11.7L0,215.5c0.1-11.3,7-25,16.9-30.9l114.4-66.1
		c3.3-1.8,6.4-2.8,10.1-1.6L120.4,104.8z"/>
	<path id="XMLID_432_" class="st1" d="M117.6,107.1c-1.6,0-3.6,0.6-5.1,1.4l-0.8,0.4L-2.6,174.9c-8.6,5.1-15.4,17.6-15.5,28.5
		l0.1,263.3c0.1,4.7,1.1,7.5,3.4,9.5l12.3,7.1c-0.3-1.5-0.4-3.1-0.4-4.5l-0.1-263.4c0.1-12.9,7.9-27.2,18.2-33.3l114.4-66.1
		c0.8-0.4,1.6-0.9,2.4-1.2l-13.1-7.5C118.7,107.1,118.2,107.1,117.6,107.1L117.6,107.1z M4.5,493.3c-0.5,0-0.9-0.1-1.4-0.4
		l-20.9-12.1c-5-4.3-5.7-9.7-5.8-14l-0.1-263.4c0.1-12.9,8-27.2,18.2-33.3l115.3-66.6c3.3-1.7,8-2.9,11.7-1.3c0.1,0,0.2,0.1,0.3,0.1
		l20.9,12.1c1.2,0.7,1.7,2.2,1.2,3.5c-0.6,1.3-2,2-3.4,1.5c-2.5-0.8-4.7-0.4-7.9,1.4L18.3,187c-8.6,5.1-15.4,17.6-15.5,28.5
		l0.1,263.3c0.1,4.7,1.1,7.5,3.4,9.6c1.1,0.9,1.3,2.5,0.4,3.7C6.2,492.9,5.4,493.3,4.5,493.3z"/>
	<path id="XMLID_431_" class="st0" d="M17,490.2l114.4-66.1c9.3-5.4,16.9-19.2,16.9-30.9l-0.1-263.4c0-11.6-7.6-16.7-16.9-11.4
		L16.9,184.6C7.6,190,0,203.8,0,215.5l0.1,263.4C0.1,490.5,7.7,495.6,17,490.2z"/>
	<path id="XMLID_428_" class="st1" d="M138.3,119.1c-1.7,0-3.6,0.6-5.6,1.8L18.3,187c-8.4,4.9-15.5,17.9-15.5,28.5l0.1,263.4
		c0,4.8,1.5,8.5,4.1,10c2.2,1.3,5.3,0.9,8.6-1l0,0L130,421.7c8.4-4.8,15.5-17.9,15.5-28.4l-0.1-263.4c0-4.8-1.5-8.5-4-10
		C140.4,119.4,139.4,119.1,138.3,119.1L138.3,119.1z M9.9,495.1c-2.1,0-4-0.5-5.8-1.5c-4.4-2.5-6.9-7.9-6.9-14.8l-0.1-263.4
		c0-12.5,8.2-27.5,18.2-33.3l114.4-66.1c5.2-3,10.2-3.3,14.2-1c4.4,2.5,6.8,7.9,6.8,14.8l0.1,263.4c0,12.5-8.2,27.5-18.2,33.3
		L18.4,492.6C15.5,494.3,12.6,495.1,9.9,495.1z"/>
	<path id="XMLID_427_" class="st2" d="M148.2,390.1l-0.1-260.2c0-11.6-7.6-16.7-16.9-11.4L16.9,184.6C7.6,189.9,0,203.8,0,215.5
		l0.1,260.1L148.2,390.1z"/>
	<path id="XMLID_424_" class="st1" d="M138.3,119.1c-1.7,0-3.6,0.6-5.6,1.8L18.3,187c-8.4,4.9-15.5,17.9-15.5,28.5l0.1,255.3
		l142.5-82.4l-0.1-258.6c0-4.8-1.5-8.5-4-10C140.4,119.4,139.4,119.1,138.3,119.1L138.3,119.1z M0.1,478.4c-0.5,0-1-0.1-1.4-0.4
		c-0.9-0.5-1.4-1.4-1.4-2.4l-0.1-260.1c0-12.5,8.2-27.5,18.2-33.3l114.4-66.1c5.1-3,10.2-3.3,14.2-1c4.4,2.5,6.9,7.9,6.9,14.8
		l0.1,260.2c0,1-0.5,1.9-1.4,2.4L1.5,478C1.1,478.3,0.6,478.4,0.1,478.4z"/>
	<path id="XMLID_423_" class="st3" d="M-16.9,187.5c-2.4,5-3.9,10.4-4,15.9l0.1,263.3c0.1,4.4,0.9,8.6,4.4,11.7l20.9,12
		c-3.5-3-4.3-7.2-4.4-11.7L0,215.5c0.1-5.8,1.5-10.6,4-15.9L-16.9,187.5z"/>
	<path id="XMLID_420_" class="st1" d="M-15.6,191.5c-1.6,4-2.4,8-2.5,12l0.1,263.3c0.1,4.7,1.1,7.5,3.4,9.5l12.3,7.1
		c-0.3-1.5-0.4-3.1-0.4-4.5l-0.1-263.4c0.1-5.1,1.1-9.6,3.2-14.8L-15.6,191.5L-15.6,191.5z M4.5,493.3c-0.5,0-0.9-0.1-1.4-0.4
		l-20.9-12.1c-5-4.3-5.7-9.7-5.8-14l-0.1-263.4c0.1-5.8,1.5-11.6,4.3-17.2c0.3-0.7,0.9-1.2,1.7-1.4c0.8-0.2,1.6-0.1,2.2,0.3
		l20.9,12.1c1.3,0.7,1.7,2.3,1.1,3.6c-2.5,5.4-3.6,9.8-3.7,14.8l0.1,263.3c0.1,4.7,1.1,7.5,3.4,9.5c1.1,0.9,1.3,2.6,0.4,3.7
		C6.2,492.9,5.4,493.3,4.5,493.3z"/>
	<path id="XMLID_419_" class="st1" d="M-10,303.6c-1.5,0-2.8-1.2-2.8-2.8v-26.5c0-1.5,1.3-2.8,2.8-2.8c1.5,0,2.8,1.3,2.8,2.8v26.5
		C-7.2,302.4-8.5,303.6-10,303.6z"/>
	<path id="XMLID_418_" class="st1" d="M-10,259.8c-1.5,0-2.8-1.3-2.8-2.8v-26.5c0-1.5,1.3-2.8,2.8-2.8c1.5,0,2.8,1.3,2.8,2.8V257
		C-7.2,258.5-8.5,259.8-10,259.8z"/>
	<path id="XMLID_417_" class="st2" d="M66.4,452.5c-1,0-1.9-0.5-2.4-1.4c-0.8-1.3-0.3-3,1-3.8L87.9,434c1.3-0.8,3-0.3,3.8,1
		c0.8,1.3,0.3,3-1,3.8l-22.9,13.2C67.3,452.3,66.9,452.5,66.4,452.5z"/>
	<path id="XMLID_416_" class="st4" d="M126.3,133.6L126.3,133.6c-1.7,1-3,3.4-3,5.5l0,0c0,2.1,1.3,3,3,2l0,0c1.7-1,3-3.4,3-5.5l0,0
		C129.3,133.6,127.9,132.7,126.3,133.6z"/>
	<path id="XMLID_413_" class="st1" d="M126.3,133.6L126.3,133.6L126.3,133.6L126.3,133.6z M125,144.4c-0.8,0-1.5-0.2-2.2-0.6
		c-1.5-0.9-2.4-2.5-2.4-4.6c0-3.1,1.9-6.5,4.4-7.9c1.6-0.9,3.4-1,4.8-0.2c1.5,0.9,2.4,2.6,2.4,4.6c0,3.1-1.9,6.5-4.4,7.9
		C126.8,144.1,125.9,144.4,125,144.4z"/>
	<path id="XMLID_412_" class="st1" d="M36.5,393.4c-1,0-1.9-0.5-2.4-1.4c-0.8-1.4-0.3-3,1-3.8l22.5-12.9c1.3-0.8,3-0.3,3.8,1
		c0.8,1.4,0.3,3.1-1,3.8L37.9,393C37.5,393.2,37,393.4,36.5,393.4z"/>
	<path id="XMLID_411_" class="st1" d="M36.5,426.1c-1,0-1.9-0.5-2.4-1.4c-0.8-1.3-0.3-3,1-3.8L57.6,408c1.3-0.8,3-0.3,3.8,1
		c0.8,1.3,0.3,3-1,3.8l-22.5,12.9C37.5,426,37,426.1,36.5,426.1z"/>
	<path id="XMLID_410_" class="st1" d="M97.5,358.3c-1,0-1.9-0.5-2.4-1.4c-0.8-1.3-0.3-3,1-3.8l22.5-12.9c1.3-0.8,3-0.3,3.8,1
		c0.8,1.3,0.3,3-1,3.8l-22.5,12.9C98.5,358.2,98,358.3,97.5,358.3z"/>
	<path id="XMLID_409_" class="st1" d="M97.5,391.1c-1,0-1.9-0.5-2.4-1.4c-0.8-1.3-0.3-3,1-3.8l22.5-12.9c1.3-0.8,3-0.3,3.8,1
		c0.8,1.3,0.3,3-1,3.8l-22.5,12.9C98.5,391,98,391.1,97.5,391.1z"/>
	<path id="XMLID_406_" class="st1" d="M48.7,261.8L48.7,261.8L48.7,261.8L48.7,261.8z M49.8,268.2c0.8,0,1.5-0.2,2.2-0.6l20.7-12
		c1.6-0.9,2.1-3,1.2-4.6c-0.9-1.6-3-2.2-4.6-1.2l-16.9,9.8v-9.4l19-11c1.7-1,2.9-3,2.9-5v-14.4c0-1.6-0.8-2.9-2-3.7
		c-1.2-0.7-2.8-0.7-4.2,0.1l-20.7,12c-1.6,0.9-2.1,3-1.2,4.6c0.9,1.6,3,2.2,4.6,1.2l16.9-9.8v9.4l-19,11c-1.7,1-2.9,3-2.9,5V264
		c0,1.6,0.8,2.9,2,3.7C48.4,268,49.1,268.2,49.8,268.2z"/>
	<path id="XMLID_400_" class="st1" d="M103.4,203.7L103.4,203.7L103.4,203.7L103.4,203.7z M100,232.2L100,232.2L100,232.2L100,232.2
		z M84.3,214.7v26.5l15.2-8.8v-26.5L84.3,214.7L84.3,214.7z M82.2,246.3L82.2,246.3L82.2,246.3L82.2,246.3z M81.7,249.8
		c-0.7,0-1.4-0.2-2-0.5c-1.3-0.7-2-2.1-2-3.7v-31.5c0-1.9,1.2-4,2.9-5l19.5-11.3c1.4-0.8,2.9-0.8,4.2-0.1c1.3,0.7,2,2.1,2,3.7V233
		c0,1.9-1.2,4-2.9,5l-19.5,11.3h0C83.2,249.6,82.4,249.8,81.7,249.8z"/>
	<path id="XMLID_399_" class="st1" d="M19.1,208.6c-1,0-1.9-0.5-2.4-1.4c-0.8-1.3-0.3-3,1-3.8l6.6-3.8c1.3-0.8,3-0.3,3.8,1
		c0.8,1.3,0.3,3-1,3.8l-6.6,3.8C20.1,208.5,19.6,208.6,19.1,208.6z"/>
	<path id="XMLID_398_" class="st1" d="M32.4,201c-1,0-1.9-0.5-2.4-1.4c-0.8-1.3-0.3-3,1-3.8l6.6-3.8c1.3-0.7,3-0.3,3.8,1
		c0.8,1.3,0.3,3-1,3.8l-6.6,3.8C33.3,201,32.8,201,32.4,201z"/>
	<path id="XMLID_397_" class="st1" d="M45.6,193.5c-1,0-1.9-0.5-2.4-1.4c-0.8-1.3-0.3-3,1-3.8l6.6-3.8c1.3-0.8,3-0.3,3.8,1
		c0.7,1.3,0.3,3-1,3.8l-6.6,3.8C46.5,193.4,46,193.5,45.6,193.5z"/>
	<path id="XMLID_396_" class="st1" d="M36.5,360.6c-1,0-1.9-0.5-2.4-1.4c-0.8-1.3-0.3-3,1-3.8l22.5-12.9c1.3-0.8,3-0.3,3.8,1
		c0.8,1.3,0.3,3-1,3.8l-22.5,12.9C37.5,360.4,37,360.6,36.5,360.6z"/>
	<path id="XMLID_395_" class="st1" d="M97.5,325.5c-1,0-1.9-0.5-2.4-1.4c-0.8-1.3-0.3-3,1-3.8l22.5-12.9c1.3-0.8,3-0.3,3.8,1
		c0.8,1.3,0.3,3-1,3.8l-22.5,12.9C98.5,325.4,98,325.5,97.5,325.5z"/>
	<path id="XMLID_392_" class="st1" d="M68.2,285.9C68.2,285.9,68.2,285.9,68.2,285.9L68.2,285.9L68.2,285.9L68.2,285.9z M50.4,320.5
		c-1.2,0-2.3-0.6-2.9-1.7c-0.9-1.6-0.4-3.7,1.2-4.6l19-11v-9.4l-15.7,9c-1.6,0.9-3.7,0.4-4.6-1.2c-0.9-1.6-0.4-3.7,1.2-4.6l19-11
		v-9.4l-16.9,9.8c-1.6,0.9-3.6,0.4-4.6-1.2c-0.9-1.6-0.4-3.7,1.2-4.6l20.7-12c1.4-0.8,2.9-0.8,4.2-0.1c1.3,0.7,2,2.1,2,3.7v14.4
		c0,0.5-0.1,0.9-0.2,1.4c0.1,0.4,0.2,0.9,0.2,1.3v14.4c0,1.9-1.2,4-2.9,5L52,320.1C51.5,320.4,50.9,320.5,50.4,320.5z"/>
	<path id="XMLID_389_" class="st1" d="M103.4,257.5L103.4,257.5L103.4,257.5L103.4,257.5z M81.7,303.6c-0.7,0-1.4-0.2-2-0.5
		c-1.3-0.7-2-2.1-2-3.7v-14.3c0-1.9,1.2-4,2.9-5l19.1-11v-9.4l-16.9,9.7c-1.6,0.9-3.6,0.4-4.6-1.2c-0.9-1.6-0.4-3.7,1.2-4.6
		l20.7-11.9c1.3-0.8,2.9-0.8,4.2-0.1c1.3,0.7,2,2.1,2,3.7v14.4c0,1.9-1.2,4-2.9,5l-19.1,11v9.3l16.9-9.7c1.6-0.9,3.6-0.4,4.6,1.2
		c0.9,1.6,0.4,3.6-1.2,4.6l-20.7,12C83.2,303.4,82.4,303.6,81.7,303.6z"/>
</g>
</svg>
