<svg xmlns:dc="http://purl.org/dc/elements/1.1/" xmlns:cc="http://creativecommons.org/ns#" xmlns:rdf="http://www.w3.org/1999/02/22-rdf-syntax-ns#" xmlns:svg="http://www.w3.org/2000/svg" xmlns="http://www.w3.org/2000/svg" viewBox="0 0 644.40002 644.40002" height="644.40002" width="644.40002" xml:space="preserve" id="svg2"><metadata></metadata><defs id="defs6"><clipPath id="clipPath18" clipPathUnits="userSpaceOnUse"><path id="path16" d="M 0,483.3 H 483.3 V 0 H 0 Z"></path></clipPath></defs><g transform="matrix(1.3333333,0,0,-1.3333333,0,644.4)" id="g10"><g id="g12"><g clip-path="url(#clipPath18)" id="g14"><g transform="translate(226.7746,191.4661)" id="g20"><path id="path22" style="fill:#d80927;fill-opacity:1;fill-rule:evenodd;stroke:none" d="m 0,0 c -3.059,0 -5.927,0.742 -8.472,2.222 -5.99,3.447 -9.273,10.468 -9.273,19.678 0,8.47 2.802,18.005 7.919,26.861 5.092,8.856 11.952,16.07 19.293,20.289 7.987,4.606 15.686,5.218 21.677,1.805 6.021,-3.48 9.307,-10.467 9.307,-19.711 0,-8.47 -2.802,-18.035 -7.923,-26.827 C 27.44,15.462 20.579,8.213 13.235,3.995 8.632,1.354 4.155,0 0,0 m 11.336,7.28 h 0.127 z m 11.336,58.196 c -2.801,0 -5.99,-1.03 -9.403,-2.995 C 7.054,58.907 1.16,52.689 -3.287,44.96 -7.762,37.231 -10.176,29.051 -10.176,21.9 c 0,-6.409 1.932,-11.079 5.506,-13.139 3.574,-2.029 8.564,-1.417 14.137,1.803 6.185,3.577 12.045,9.791 16.522,17.52 4.445,7.699 6.893,15.879 6.893,23.06 0,6.409 -1.966,11.079 -5.506,13.142 -1.387,0.803 -2.965,1.19 -4.704,1.19"></path></g><g transform="translate(280.4605,203.1592)" id="g24"><path id="path26" style="fill:#d80927;fill-opacity:1;fill-rule:evenodd;stroke:none" d="m 0,0 c -0.642,0 -1.287,0.16 -1.899,0.515 l -22.997,13.299 c -1.801,1.033 -2.446,3.35 -1.383,5.155 1.028,1.835 3.349,2.447 5.154,1.384 L 1.902,7.084 C 3.704,6.021 4.316,3.701 3.287,1.9 2.577,0.675 1.29,0 0,0"></path></g><g transform="translate(195.8549,155.6552)" id="g28"><path id="path30" style="fill:#d80927;fill-opacity:1;fill-rule:evenodd;stroke:none" d="m 0,0 c -0.642,0 -1.287,0.16 -1.899,0.515 -1.805,1.063 -2.417,3.349 -1.384,5.151 l 22.445,38.873 c 1.064,1.836 3.35,2.447 5.155,1.418 1.835,-1.063 2.447,-3.381 1.384,-5.185 L 3.287,1.898 C 2.577,0.675 1.321,0 0,0"></path></g><g transform="translate(232.4747,371.4348)" id="g32"><path id="path34" style="fill:#e51550;fill-opacity:1;fill-rule:evenodd;stroke:none" d="M 0,0 C 13.913,7.632 28.406,12.112 43.286,4.315 32.464,10.564 16.682,21.837 5.636,23.191 -5.733,24.605 -16.361,20.452 -26.119,15.103 -59.87,-5.379 -84.124,-46.636 -87.117,-85.893 l 26.15,-15.074 C -58.036,-61.739 -33.752,-20.45 0,0"></path></g><g transform="translate(171.5072,266.6676)" id="g36"><path id="path38" style="fill:#d80927;fill-opacity:1;fill-rule:evenodd;stroke:none" d="m 0,0 c -0.675,0 -1.321,0.163 -1.899,0.518 l -26.119,15.07 c -1.256,0.742 -1.999,2.127 -1.902,3.578 3.125,41.252 28.376,83.024 62.836,103.927 8.986,4.928 20.87,10.307 34.139,8.632 9.434,-1.194 21.158,-8.374 31.465,-14.752 2.704,-1.675 5.281,-3.253 7.602,-4.604 1.768,-1.033 2.414,-3.287 1.447,-5.121 -1.029,-1.772 -3.286,-2.481 -5.088,-1.515 -11.467,5.991 -23.284,4.734 -39.615,-4.218 C 30.951,82.095 6.636,41.805 3.768,3.51 3.671,2.223 2.899,1.063 1.773,0.451 1.193,0.163 0.582,0 0,0 M -22.157,20.934 -3.189,10.019 c 4.927,39.257 29.405,78.1 62.19,98.001 0.067,0.034 0.131,0.064 0.161,0.097 7.184,3.928 15.686,7.793 24.962,8.665 -6.475,3.671 -12.981,6.793 -18.004,7.438 -11.08,1.354 -21.611,-3.349 -29.436,-7.666 C 5.51,97.65 -18.486,58.553 -22.157,20.934"></path></g><g transform="translate(257.9186,462.0313)" id="g40"><path id="path42" style="fill:#e51766;fill-opacity:1;fill-rule:evenodd;stroke:none" d="m 0,0 c -7.924,4.606 -25.668,16.424 -32.882,17.327 -35.493,4.412 -74.076,-72.207 -44.092,-90.339 l 26.119,-15.104 C -83.706,-67.279 -34.367,18.035 0,0 m -25.411,-90.563 -0.033,-0.033 -26.119,15.103 h 0.033 z"></path></g><g transform="translate(232.4747,367.6674)" id="g44"><path id="path46" style="fill:#d80927;fill-opacity:1;fill-rule:evenodd;stroke:none" d="m 0,0 c -0.645,0 -1.287,0.16 -1.9,0.515 l -26.088,15.073 c -1.223,0.676 -1.963,1.997 -1.898,3.38 0.029,1.387 0.835,2.674 2.091,3.287 1.128,0.578 2.511,0.548 3.608,-0.098 L 1.899,7.084 C 3.059,6.442 3.767,5.218 3.831,3.928 3.864,2.64 3.219,1.354 2.126,0.675 L 2.093,0.644 C 1.481,0.223 0.742,0 0,0 m -25.411,2.48 c -0.675,0 -1.32,0.16 -1.898,0.515 l -26.123,15.073 c -13.041,7.89 -16.197,25.699 -8.599,47.696 9.245,26.634 32.305,52.433 55.04,49.664 5.991,-0.709 16.234,-6.763 28.055,-13.977 2.414,-1.484 4.573,-2.835 6.245,-3.802 1.805,-1.032 2.45,-3.285 1.451,-5.121 -1,-1.805 -3.286,-2.447 -5.058,-1.514 C 8.855,98.776 -10.467,82.803 -21.901,62.995 -33.367,43.188 -37.552,18.453 -23.415,9.467 -21.677,8.34 -21.128,6.054 -22.192,4.316 -22.9,3.125 -24.154,2.48 -25.411,2.48 m 14.944,105.604 c -17.876,0 -36.683,-22.577 -44.379,-44.831 -6.412,-18.357 -4.413,-32.818 5.282,-38.679 l 10.982,-6.345 c -4.029,14.172 1.157,33.106 10.112,48.568 9.017,15.618 22.994,29.693 37.455,33.072 -6.538,3.868 -13.559,7.636 -16.908,8.053 -0.836,0.127 -1.708,0.162 -2.544,0.162"></path></g><g transform="translate(275.7605,375.7501)" id="g48"><path id="path50" style="fill:#e51550;fill-opacity:1;fill-rule:evenodd;stroke:none" d="m 0,0 c -11.531,6.666 -26.989,5.122 -43.286,-4.315 -16.876,-9.725 -32.143,-26.474 -43.221,-45.602 -10.144,-17.585 -16.746,-37.198 -17.746,-55.365 L 17.745,-34.847 C 16.745,-17.842 10.143,-5.86 0,0"></path></g><g transform="translate(171.5072,266.6676)" id="g52"><path id="path54" style="fill:#d80927;fill-opacity:1;fill-rule:evenodd;stroke:none" d="m 0,0 c -0.708,0 -1.384,0.193 -1.996,0.581 -1.193,0.709 -1.902,2.06 -1.804,3.447 1.063,18.163 7.537,38.421 18.262,57.002 11.885,20.58 27.728,37.265 44.606,47.024 17.584,10.143 34.3,11.69 47.054,4.315 11.623,-6.699 18.613,-20.162 19.677,-37.876 0.064,-1.448 -0.646,-2.802 -1.902,-3.541 L 1.869,0.518 C 1.291,0.163 0.645,0 0,0 m 88.31,109.373 c -7.696,0 -16.361,-2.64 -25.444,-7.858 C 47.117,92.401 32.24,76.685 21.031,57.263 12.272,42.096 6.506,25.832 4.477,10.758 l 113.592,65.573 c -1.32,13.944 -6.859,24.378 -15.719,29.499 -4.151,2.384 -8.885,3.543 -14.04,3.543"></path></g><g transform="translate(232.4747,376.4596)" id="g56"><path id="path58" style="fill:#ffffff;fill-opacity:1;fill-rule:evenodd;stroke:none" d="m 0,0 h 0.033 c 9.919,5.733 18.905,15.589 25.411,26.828 6.505,11.272 10.531,23.993 10.531,35.459 0,11.467 -4.026,19.55 -10.531,23.285 C 18.938,89.339 9.918,88.791 0,83.061 -9.92,77.327 -18.905,67.472 -25.411,56.199 -31.916,44.927 -35.975,32.206 -35.975,20.74 -35.975,9.306 -31.916,1.223 -25.411,-2.544 -18.905,-6.281 -9.92,-5.764 0,0"></path></g><g transform="translate(216.4043,367.7303)" id="g60"><path id="path62" style="fill:#d80927;fill-opacity:1;fill-rule:evenodd;stroke:none" d="m 0,0 c -4.058,0 -7.859,0.966 -11.239,2.932 -8.02,4.607 -12.467,14.041 -12.467,26.537 0,11.757 3.932,25.026 11.08,37.359 7.087,12.335 16.618,22.351 26.797,28.245 10.852,6.248 21.222,7.117 29.242,2.513 8.02,-4.606 12.432,-14.073 12.432,-26.57 0,-11.754 -3.931,-24.993 -11.049,-37.328 C 37.65,21.322 28.148,11.306 18.002,5.443 H 17.969 C 11.691,1.836 5.603,0 0,0 m 32.14,92.916 c -4.283,0 -9.08,-1.481 -14.171,-4.412 C 8.919,83.285 0.385,74.236 -6.054,63.06 -12.56,51.821 -16.104,39.906 -16.104,29.469 c 0,-9.661 3.059,-16.779 8.632,-19.998 5.603,-3.223 13.299,-2.32 21.643,2.544 0.064,0.031 0.128,0.064 0.224,0.097 h 0.033 c 8.792,5.118 17.358,14.138 23.8,25.343 6.472,11.21 10.048,23.128 10.048,33.561 0,9.695 -3.092,16.779 -8.665,19.998 -2.189,1.291 -4.7,1.902 -7.471,1.902"></path></g><g transform="translate(238.1438,253.4659)" id="g64"><path id="path66" style="fill:#d80927;fill-opacity:1;fill-rule:evenodd;stroke:none" d="m 0,0 c -2.095,0 -3.77,1.671 -3.77,3.767 v 35.78 c 0,2.093 1.675,3.802 3.77,3.802 2.093,0 3.798,-1.709 3.798,-3.802 V 3.767 C 3.798,1.671 2.093,0 0,0"></path></g><g transform="translate(144.7438,104.7673)" id="g68"><path id="path70" style="fill:#e51550;fill-opacity:1;fill-rule:evenodd;stroke:none" d="M 0,0 C 13.883,7.602 28.375,12.079 43.255,4.316 32.434,10.531 16.65,21.804 5.606,23.191 c -11.37,1.414 -21.967,-2.772 -31.725,-8.117 -33.752,-20.484 -58.036,-61.739 -60.998,-101 l 26.119,-15.071 C -58.066,-61.77 -33.752,-20.483 0,0"></path></g><g transform="translate(83.7462)" id="g72"><path id="path74" style="fill:#d80927;fill-opacity:1;fill-rule:evenodd;stroke:none" d="m 0,0 c -0.675,0 -1.321,0.164 -1.898,0.485 l -26.12,15.074 c -1.257,0.738 -1.999,2.123 -1.868,3.573 3.092,41.256 28.341,83.027 62.802,103.928 8.985,4.961 20.773,10.307 34.139,8.632 9.434,-1.16 21.125,-8.341 31.431,-14.719 2.737,-1.675 5.315,-3.283 7.632,-4.637 1.806,-1.03 2.45,-3.286 1.451,-5.088 -0.999,-1.802 -3.287,-2.481 -5.058,-1.545 -11.434,5.988 -23.285,4.735 -39.612,-4.219 C 30.95,82.062 6.636,41.805 3.767,3.48 3.67,2.189 2.899,1.033 1.772,0.421 1.19,0.13 0.578,0 0,0 M -22.157,20.934 -3.189,9.986 c 4.927,39.291 29.405,78.1 62.224,98.004 0.03,0.03 0.096,0.064 0.16,0.094 7.151,3.931 15.652,7.795 24.959,8.665 -6.472,3.671 -12.978,6.796 -18.002,7.438 -11.176,1.417 -21.61,-3.38 -29.469,-7.662 C 5.539,97.586 -18.487,58.52 -22.157,20.934"></path></g><g transform="translate(170.1566,195.3637)" id="g76"><path id="path78" style="fill:#e51766;fill-opacity:1;fill-rule:evenodd;stroke:none" d="m 0,0 c -7.922,4.573 -25.67,16.394 -32.884,17.294 -35.458,4.413 -74.072,-72.206 -44.089,-90.336 l 26.12,-15.073 C -83.706,-67.312 -34.366,18.002 0,0 m -25.413,-90.596 h -0.031 l -26.088,15.073 v 0.03 z"></path></g><g transform="translate(144.7126,100.9668)" id="g80"><path id="path82" style="fill:#d80927;fill-opacity:1;fill-rule:evenodd;stroke:none" d="m 0,0 c -0.645,0 -1.289,0.193 -1.902,0.517 l -26.086,15.072 c -1.093,0.644 -1.801,1.804 -1.898,3.059 -0.067,1.256 0.515,2.48 1.51,3.252 1.227,0.903 2.899,1.033 4.19,0.257 L 1.933,7.087 C 3.059,6.442 3.768,5.252 3.832,3.931 3.865,2.64 3.219,1.387 2.126,0.679 L 2.093,0.644 C 1.481,0.226 0.74,0 0,0 m -25.409,2.48 c -0.646,0 -1.321,0.16 -1.903,0.515 l -26.12,15.074 c -13.041,7.889 -16.196,25.701 -8.564,47.698 9.243,26.634 32.367,52.432 55.006,49.661 5.991,-0.742 16.264,-6.763 28.051,-13.977 2.417,-1.481 4.574,-2.801 6.282,-3.802 1.802,-1.029 2.414,-3.285 1.418,-5.121 C 27.795,90.757 25.474,90.081 23.702,91.017 8.856,98.81 -10.499,82.804 -21.9,62.996 -33.366,43.189 -37.552,18.457 -23.381,9.471 -21.642,8.344 -21.127,6.057 -22.19,4.286 -22.899,3.125 -24.156,2.48 -25.409,2.48 m 14.943,105.604 c -17.875,0 -36.684,-22.576 -44.382,-44.798 -6.376,-18.356 -4.41,-32.851 5.281,-38.712 l 11.016,-6.345 c -4.058,14.172 1.127,33.11 10.083,48.568 9.015,15.619 22.992,29.726 37.455,33.109 -6.539,3.831 -13.56,7.599 -16.909,8.017 -0.839,0.13 -1.709,0.161 -2.544,0.161"></path></g><g transform="translate(187.9985,109.0828)" id="g84"><path id="path86" style="fill:#e51550;fill-opacity:1;fill-rule:evenodd;stroke:none" d="m 0,0 c -11.529,6.636 -26.989,5.089 -43.286,-4.316 -16.875,-9.757 -32.143,-26.503 -43.221,-45.635 -10.143,-17.584 -16.715,-37.198 -17.745,-55.361 l 122.03,70.465 C 16.746,-17.875 10.143,-5.86 0,0"></path></g><g transform="translate(83.7462)" id="g88"><path id="path90" style="fill:#d80927;fill-opacity:1;fill-rule:evenodd;stroke:none" d="m 0,0 c -0.708,0 -1.385,0.164 -1.996,0.548 -1.193,0.743 -1.868,2.062 -1.806,3.447 1.034,18.133 7.54,38.388 18.264,57.036 11.882,20.549 27.726,37.231 44.603,46.989 17.587,10.147 34.299,11.691 47.053,4.316 h 0.033 c 11.594,-6.699 18.584,-20.161 19.648,-37.873 0.096,-1.451 -0.646,-2.801 -1.869,-3.511 L 1.869,0.485 C 1.287,0.164 0.646,0 0,0 m 88.343,109.374 c -7.732,0 -16.394,-2.641 -25.477,-7.89 C 47.116,92.368 32.27,76.652 21.031,57.232 12.272,42.062 6.506,25.799 4.476,10.724 l 113.593,65.574 c -1.32,13.977 -6.86,24.381 -15.719,29.499 -4.122,2.353 -8.856,3.577 -14.007,3.577"></path></g><g transform="translate(144.7126,109.7592)" id="g92"><path id="path94" style="fill:#ffffff;fill-opacity:1;fill-rule:evenodd;stroke:none" d="m 0,0 h 0.064 c 9.889,5.733 18.874,15.588 25.38,26.827 6.536,11.272 10.531,23.997 10.531,35.46 0,11.466 -4.025,19.55 -10.531,23.318 C 18.938,89.342 9.953,88.794 0,83.061 -9.918,77.327 -18.905,67.472 -25.409,56.199 -31.915,44.93 -35.943,32.206 -35.943,20.743 -35.943,9.276 -31.915,1.226 -25.409,-2.511 -18.905,-6.279 -9.918,-5.731 0,0"></path></g><g transform="translate(128.6434,101.033)" id="g96"><path id="path98" style="fill:#d80927;fill-opacity:1;fill-rule:evenodd;stroke:none" d="m 0,0 c -4.059,0 -7.859,0.966 -11.243,2.929 -8.017,4.607 -12.429,14.043 -12.429,26.54 0,11.754 3.928,25.023 11.045,37.358 7.087,12.336 16.619,22.352 26.828,28.245 10.821,6.249 21.191,7.148 29.211,2.511 8.021,-4.606 12.433,-14.04 12.433,-26.57 C 55.845,59.259 51.914,45.99 44.797,33.655 37.678,21.352 28.178,11.336 18.035,5.473 L 17.969,5.443 C 11.721,1.836 5.603,0 0,0 M 32.14,92.946 C 27.887,92.946 23.057,91.432 18.002,88.5 8.919,83.285 0.385,74.236 -6.058,63.06 -12.563,51.851 -16.104,39.936 -16.104,29.469 c 0,-9.664 3.059,-16.782 8.662,-20.001 5.539,-3.19 13.238,-2.351 21.643,2.544 v -0.033 c 9.18,5.378 17.617,14.365 24.06,25.477 6.438,11.205 10.015,23.09 10.015,33.557 0,9.695 -3.062,16.812 -8.665,20.031 -2.189,1.258 -4.7,1.902 -7.471,1.902 M 16.069,8.726 h 0.127 z"></path></g><g transform="translate(364.6486,231.7261)" id="g100"><path id="path102" style="fill:#e51550;fill-opacity:1;fill-rule:evenodd;stroke:none" d="M 0,0 C 13.88,7.632 28.406,12.108 43.252,4.316 32.43,10.564 16.682,21.803 5.603,23.187 -5.764,24.604 -16.361,20.419 -26.119,15.103 -59.871,-5.38 -84.155,-46.668 -87.117,-85.926 L -60.998,-101 C -58.036,-61.74 -33.752,-20.483 0,0"></path></g><g transform="translate(303.6511,126.9589)" id="g104"><path id="path106" style="fill:#d80927;fill-opacity:1;fill-rule:evenodd;stroke:none" d="m 0,0 c -0.678,0 -1.29,0.16 -1.902,0.514 l -26.086,15.074 c -1.287,0.709 -1.996,2.093 -1.898,3.54 3.088,41.257 28.338,83.028 62.799,103.962 8.985,4.928 20.742,10.276 34.171,8.632 9.438,-1.19 21.129,-8.404 31.435,-14.75 2.704,-1.674 5.282,-3.285 7.632,-4.637 1.773,-0.999 2.415,-3.285 1.418,-5.088 -0.966,-1.804 -3.287,-2.48 -5.058,-1.514 -11.434,5.958 -23.252,4.7 -39.612,-4.219 C 30.98,82.092 6.666,41.804 3.767,3.51 3.67,2.189 2.899,1.062 1.772,0.418 1.19,0.127 0.611,0 0,0 M -22.127,20.934 -3.189,9.982 c 4.961,39.294 29.405,78.134 62.224,98.038 0.063,0.03 0.094,0.064 0.16,0.064 7.148,3.927 15.652,7.825 24.959,8.662 -6.475,3.703 -12.981,6.829 -18.002,7.44 -11.209,1.385 -21.613,-3.349 -29.439,-7.665 C 5.539,97.616 -18.454,58.55 -22.127,20.934"></path></g><g transform="translate(390.0583,322.3215)" id="g108"><path id="path110" style="fill:#e51766;fill-opacity:1;fill-rule:evenodd;stroke:none" d="m 0,0 c -7.923,4.574 -25.634,16.391 -32.882,17.294 -35.46,4.413 -74.041,-72.206 -44.091,-90.339 l 26.119,-15.07 C -83.703,-67.278 -34.363,18.002 0,0 m -25.377,-90.565 -0.033,-0.03 -26.119,15.07 0.033,0.033 z"></path></g><g transform="translate(364.6486,227.9245)" id="g112"><path id="path114" style="fill:#d80927;fill-opacity:1;fill-rule:evenodd;stroke:none" d="m 0,0 c -0.676,0 -1.321,0.194 -1.9,0.515 l -26.119,15.104 c -1.193,0.678 -1.932,1.999 -1.902,3.383 0.033,1.384 0.839,2.64 2.097,3.253 1.157,0.578 2.51,0.548 3.606,-0.063 L 1.902,7.118 C 3.028,6.442 3.767,5.249 3.8,3.962 3.834,2.641 3.222,1.385 2.125,0.675 L 2.092,0.646 C 1.45,0.225 0.708,0 0,0 m -25.444,2.481 c -0.642,0 -1.287,0.193 -1.9,0.515 l -26.085,15.07 c -13.044,7.893 -16.234,25.702 -8.602,47.699 9.245,26.667 32.401,52.465 55.043,49.693 5.958,-0.738 16.231,-6.795 28.018,-14.01 2.417,-1.448 4.574,-2.802 6.281,-3.798 1.803,-1 2.415,-3.286 1.448,-5.091 C 27.763,90.757 25.477,90.111 23.671,91.014 8.888,98.777 -10.497,82.8 -21.931,63.026 -33.364,43.219 -37.553,18.454 -23.415,9.468 c 1.742,-1.094 2.286,-3.38 1.194,-5.152 -0.71,-1.16 -1.933,-1.835 -3.223,-1.835 m 14.947,105.603 c -17.875,0 -36.685,-22.575 -44.383,-44.8 -6.375,-18.357 -4.412,-32.818 5.282,-38.679 l 11.015,-6.375 c -4.058,14.171 1.161,33.106 10.113,48.564 9.017,15.622 22.994,29.726 37.422,33.11 -6.535,3.831 -13.556,7.632 -16.906,8.02 -0.838,0.127 -1.675,0.16 -2.543,0.16"></path></g><g transform="translate(407.9002,236.0416)" id="g116"><path id="path118" style="fill:#e51550;fill-opacity:1;fill-rule:evenodd;stroke:none" d="m 0,0 c -11.496,6.633 -26.988,5.088 -43.252,-4.316 -16.876,-9.759 -32.174,-26.473 -43.219,-45.636 -10.146,-17.584 -16.748,-37.198 -17.778,-55.363 L 17.779,-34.847 C 16.749,-17.875 10.179,-5.864 0,0"></path></g><g transform="translate(303.6511,126.9589)" id="g120"><path id="path122" style="fill:#d80927;fill-opacity:1;fill-rule:evenodd;stroke:none" d="m 0,0 c -0.709,0 -1.387,0.193 -1.999,0.548 -1.19,0.738 -1.866,2.059 -1.769,3.444 1.03,18.165 7.502,38.391 18.26,57.038 11.885,20.547 27.697,37.261 44.606,47.02 17.584,10.145 34.33,11.66 47.053,4.285 11.594,-6.669 18.581,-20.128 19.644,-37.876 0.098,-1.417 -0.642,-2.802 -1.865,-3.51 L 1.899,0.514 C 1.288,0.16 0.642,0 0,0 m 88.34,109.37 c -7.729,0 -16.391,-2.641 -25.441,-7.889 C 47.116,92.368 32.237,76.682 21.061,57.229 12.269,42.061 6.536,25.798 4.476,10.724 l 113.59,65.603 c -1.32,13.945 -6.86,24.381 -15.716,29.469 -4.121,2.384 -8.856,3.574 -14.01,3.574"></path></g><g transform="translate(364.6486,236.7169)" id="g124"><path id="path126" style="fill:#ffffff;fill-opacity:1;fill-rule:evenodd;stroke:none" d="m 0,0 0.033,0.033 c 9.919,5.73 18.871,15.555 25.377,26.794 h 0.033 c 6.506,11.274 10.53,23.993 10.53,35.491 0,11.466 -4.024,19.516 -10.563,23.287 C 18.904,89.373 9.918,88.791 0,83.092 -9.953,77.327 -18.938,67.503 -25.444,56.233 -31.95,44.96 -35.975,32.237 -35.975,20.774 -35.975,9.307 -31.95,1.257 -25.444,-2.511 -18.938,-6.282 -9.953,-5.733 0,0"></path></g><g transform="translate(348.578,227.9888)" id="g128"><path id="path130" style="fill:#d80927;fill-opacity:1;fill-rule:evenodd;stroke:none" d="m 0,0 c -4.092,0 -7.889,0.966 -11.273,2.932 -8.02,4.636 -12.433,14.073 -12.433,26.57 0,11.721 3.933,24.992 11.049,37.358 7.117,12.303 16.649,22.352 26.828,28.245 10.821,6.249 21.222,7.118 29.242,2.481 8.02,-4.607 12.4,-14.045 12.4,-26.54 0,-11.755 -3.929,-25.023 -11.046,-37.359 C 37.649,21.352 28.148,11.336 18.002,5.476 L 17.972,5.442 C 11.691,1.834 5.573,0 0,0 m 32.11,92.946 c -4.252,0 -9.083,-1.481 -14.138,-4.41 C 8.92,83.318 0.355,74.268 -6.088,63.06 -12.559,51.854 -16.137,39.935 -16.137,29.502 c 0,-9.695 3.062,-16.779 8.665,-20.001 5.603,-3.253 13.268,-2.318 21.643,2.514 0.064,0.029 0.127,0.094 0.194,0.094 l 0.03,0.033 c 8.826,5.088 17.36,14.137 23.833,25.346 6.475,11.176 10.016,23.091 10.016,33.558 0,9.664 -3.059,16.782 -8.632,20.001 -2.221,1.257 -4.734,1.899 -7.502,1.899"></path></g></g></g></g></svg>