<svg xmlns:dc="http://purl.org/dc/elements/1.1/" xmlns:cc="http://creativecommons.org/ns#" xmlns:rdf="http://www.w3.org/1999/02/22-rdf-syntax-ns#" xmlns:svg="http://www.w3.org/2000/svg" xmlns="http://www.w3.org/2000/svg" viewBox="0 0 644.40002 644.40002" height="644.40002" width="644.40002" xml:space="preserve" id="svg2"><metadata></metadata><defs id="defs6"><clipPath id="clipPath18" clipPathUnits="userSpaceOnUse"><path id="path16" d="M 0.059,0 H 483.3 V 483.3 H 0.059 Z"></path></clipPath></defs><g transform="matrix(1.3333333,0,0,-1.3333333,0,644.4)" id="g10"><g id="g12"><g clip-path="url(#clipPath18)" id="g14"><g transform="translate(223.6969,349.2038)" id="g20"><path id="path22" style="fill:#e51550;fill-opacity:1;fill-rule:nonzero;stroke:none" d="m 0,0 -55.2,31.8 c -34.7,14.7 -70.5,-8.1 -95.6,-30.6 -2.9,-2.6 -6.4,-6.4 -9,-9 -23.4,-25.1 -42.5,-58.1 -52.6,-91 -10.7,-35.3 -15.3,-85.8 17.9,-110.7 l 54.9,-31.8 c 18.2,-12.7 31.5,-19.4 73.1,4.9 41.6,24 98.8,122.5 98.8,171.1 0,48.3 -12.7,56.6 -32.9,65.9 z"></path></g><g transform="translate(112.7969,92.9038)" id="g24"><path id="path26" style="fill:#d80927;fill-opacity:1;fill-rule:nonzero;stroke:none" d="m 0,0 c -11.8,0 -20.5,5.2 -30.6,11.8 l -54.9,31.5 c -41,30.9 -25.1,95.6 -19.4,114.7 10.1,33.2 29.5,67 53.5,92.5 2.6,2.9 6.4,6.6 9.2,9.2 36.1,32.8 70.5,43.7 99.4,31.6 l 55.5,-32.1 c 21.1,-9.8 33.8,-19.9 33.8,-68.8 C 146.5,140.4 89.3,41.3 45.9,16.5 25.4,4.7 11.3,0 0,0 m 32.6,289.6 c -21.1,0 -44.8,-11.6 -70.2,-34.7 -2.9,-2.6 -6.4,-6.1 -9,-9 -23.1,-24.6 -41.9,-57.2 -51.7,-89.6 -5.5,-17.9 -20.2,-79.2 16.8,-106.9 L -26.9,17.6 C -9,5.2 2.9,-0.6 42.7,22.5 c 40.8,23.5 97.1,120.9 97.1,168 0,46.2 -11,53.7 -30.6,62.7 -0.3,0.3 -0.6,0.3 -0.9,0.6 l -54,31.2 c -6.9,3.1 -14.2,4.6 -21.7,4.6"></path></g><g transform="translate(157.2969,112.6038)" id="g28"><path id="path30" style="fill:#e51550;fill-opacity:1;fill-rule:nonzero;stroke:none" d="m 0,0 c 54.6,31.5 98.8,107.8 98.8,170.8 0,63 -44.2,88.4 -98.8,56.9 C -54.6,196.2 -98.8,119.6 -98.8,56.6 -98.8,-6.1 -54.6,-31.5 0,0"></path></g><g transform="translate(113.3969,95.5038)" id="g32"><path id="path34" style="fill:#d80927;fill-opacity:1;fill-rule:nonzero;stroke:none" d="M 0,0 C -10.1,0 -19.4,2.3 -27.4,7.2 -47,18.5 -58,42.5 -58,73.9 c 0,63.9 45.1,142.2 100.6,173.9 27.4,15.9 53.5,18.2 73.1,6.9 19.6,-11.3 30.6,-35.3 30.6,-67 C 146.3,123.8 101.2,45.8 45.7,13.8 29.4,4.7 14.1,0 0,0 m 88.1,255.2 c -13,0 -27.4,-4.3 -42.5,-13 C -7.9,211.3 -51.5,135.9 -51.5,74 c 0,-29.2 9.8,-50.9 27.2,-61 17.6,-10.1 41,-7.8 66.5,6.9 53.4,31 97,106.4 97,168 0,29.2 -9.8,50.9 -27.2,61 -7.1,4.3 -15.2,6.3 -23.9,6.3"></path></g><g transform="translate(153.4969,157.1038)" id="g36"><path id="path38" style="fill:#ffffff;fill-opacity:1;fill-rule:nonzero;stroke:none" d="M 0,0 C 35,20.2 63.3,69.3 63.3,109.5 63.3,150 35,166.1 0,145.9 -35,125.7 -63.3,76.6 -63.3,36.4 -63.3,-4.1 -34.9,-20.2 0,0"></path></g><g transform="translate(125.1969,145.0038)" id="g40"><path id="path42" style="fill:#1a87c7;fill-opacity:1;fill-rule:nonzero;stroke:none" d="m 0,0 c -6.6,0 -12.7,1.4 -18.2,4.6 -13,7.5 -20.2,23.1 -20.2,43.9 0,41.3 29.2,91.9 65,112.7 17.9,10.4 35.2,11.8 48.2,4.3 C 87.8,158 95,142.4 95,121.6 95,80.3 65.8,29.7 30,8.9 19.7,3.1 9.3,0 0,0 m 56.6,163.5 c -8.1,0 -17,-2.9 -26.6,-8.1 C -3.8,135.8 -31.5,88.1 -31.5,48.8 -31.5,30.6 -25.4,17 -14.7,10.9 -4,4.5 10.7,6.3 26.6,15.2 c 33.8,19.6 61.5,67.3 61.5,106.6 0,18.2 -6.1,31.8 -16.8,37.9 -4.3,2.4 -9.2,3.8 -14.7,3.8"></path></g><g transform="translate(205.4969,314.3038)" id="g44"><path id="path46" style="fill:#e51766;fill-opacity:1;fill-rule:nonzero;stroke:none" d="m 0,0 c -17,7.2 -32.4,2 -47.7,-6.4 -22,-13.3 -37.3,-31.2 -50.3,-53.2 -10.4,-18.8 -17,-35.8 -19.9,-57.2 -2,-21.1 -0.6,-43.9 17.6,-57.5 l 9.8,-5.5 10.1,-6.1 c 13,-9 22.5,-13.9 52.9,3.5 30.1,17.3 71.1,88.4 71.1,123.1 0,34.7 -9,40.7 -23.7,47.4 z"></path></g><g transform="translate(145.6969,116.9038)" id="g48"><path id="path50" style="fill:#d80927;fill-opacity:1;fill-rule:nonzero;stroke:none" d="m 0,0 c -8.7,0 -15.3,3.8 -22.5,9 l -19.9,11.6 c -21.4,16.2 -21.4,42.5 -19.4,61 2.9,20.5 9,38.1 20.5,58.4 15,25.1 30.6,41.9 51.4,54.3 14.4,7.8 31.5,14.7 50.9,6.6 0,0 0.3,0 0.3,-0.3 L 81.2,189 c 15.6,-7.2 25.1,-14.2 25.1,-50.6 C 106.3,102.3 64.7,30.3 33.5,12.1 18.5,3.5 8.4,0 0,0 m 43.4,197.4 c -11,0 -20.8,-4.3 -29.5,-9.2 -19.6,-11.8 -34.7,-28 -48.8,-51.7 -11,-19.6 -16.8,-36.4 -19.6,-55.8 -2.6,-26.6 2.3,-43.9 16.5,-54.3 L -18.4,15.1 C -6.8,7 1.2,1.5 30.7,18.6 59.9,35.4 100,105 100,138.8 c 0,34.4 -9,38.4 -21.7,44.2 l -19.9,11.6 c -5.2,1.9 -10.4,2.8 -15,2.8"></path></g><g transform="translate(177.7969,132.0038)" id="g52"><path id="path54" style="fill:#e51766;fill-opacity:1;fill-rule:nonzero;stroke:none" d="M 0,0 C 39.3,22.5 71.1,77.7 71.1,123.1 71.1,168.5 39.3,187 0,164.1 -39.3,141.6 -71.1,86.4 -71.1,41 -71.1,-4.4 -39.3,-22.6 0,0"></path></g><g transform="translate(145.9969,119.0038)" id="g56"><path id="path58" style="fill:#d80927;fill-opacity:1;fill-rule:nonzero;stroke:none" d="m 0,0 c -7.2,0 -14.2,1.7 -20.2,5.2 -14.4,8.4 -22.5,25.7 -22.5,49.1 0,46.5 32.7,102.9 72.8,126.3 20.2,11.6 39.3,13.3 53.7,4.9 14.4,-8.4 22.5,-25.7 22.5,-49.1 C 106.3,90.2 73.6,33.5 33.5,10.1 21.7,3.4 10.4,0 0,0 m 63.6,183.7 c -9.2,0 -19.4,-3.2 -30.1,-9.2 -38.4,-22 -69.3,-76 -69.3,-120.2 0,-20.8 6.6,-35.8 19.1,-43.1 C -4.6,4 12.2,6 30.1,16.1 c 38.4,22 69.3,76 69.3,120.2 0,20.5 -6.6,35.8 -19.1,43.1 -4.9,2.9 -10.6,4.3 -16.7,4.3"></path></g><g transform="translate(455.1969,113.5038)" id="g60"><path id="path62" style="fill:#ffffff;fill-opacity:1;fill-rule:nonzero;stroke:none" d="m 0,0 c -5.2,-4 -5.8,-8.4 -5.8,-14.7 0.3,-5.5 0.6,-10.4 -0.6,-15.9 -0.6,-3.2 -1.4,-5.5 -4,-7.5 l -74.8,-45.1 c -22,-12.7 -53.2,-6.4 -87,8.1 -60.1,25.9 -112.1,70.7 -149.1,92.1 -16.2,12.1 -18.5,31.5 -17.3,50.6 3.2,30.3 15.9,57.2 35,80.9 33.8,39.6 53.2,24.3 74.5,74.8 8.1,18.8 17,56.1 23.7,74 0.6,1.2 1.2,1.2 2,0.3 2.6,6.9 7.5,22.2 10.1,28 4,9.5 10.4,18.2 17.9,20.2 6.6,1.7 25.1,0.6 33.8,-12.1 5.5,-8.4 -0.3,-49.4 -1.2,-61 -0.3,-3.2 -1.7,-10.7 -3.5,-18.8 -4,-19.9 -6.1,-26 -2,-46.5 2.6,-13.3 7.2,-27.7 13.3,-32.4 l 0.3,19.6 c 0,1.7 1.2,2.9 2.9,3.5 45.7,13.9 61.5,16.2 107.5,-13.6 15.3,-10.1 42.2,-27.2 47.4,-46.2 2.6,-10.1 1.4,-19.1 -0.9,-28.9 -2.9,-13 -1.2,-15.6 1.2,-27.7 1.4,-8.4 1.7,-19.1 -1.4,-27.2 -4.3,-9 -6.9,-8.7 -6.4,-20.2 0.9,-7.5 2.3,-14.4 0,-22 -1.2,-2.6 -2,-3.8 -4.3,-5.5 z"></path></g><g transform="translate(341.8969,20.1038)" id="g64"><path id="path66" style="fill:#d80927;fill-opacity:1;fill-rule:nonzero;stroke:none" d="m 0,0 c -16.5,0 -36.7,5.2 -60.1,15.3 -39.6,17 -75.1,41.9 -106.3,63.6 -15.9,11 -30.6,21.4 -43.3,28.6 -19.1,14.4 -19.9,37.6 -19.1,53.7 3.2,29.2 15,57.2 35.8,82.6 14.4,17 26.3,24.3 37,30.3 14.2,8.4 25.1,15 37.3,43.6 4.3,10.4 9,26.6 13.6,41.9 3.5,12.1 6.9,23.7 10.1,31.8 0.9,2 2,2.9 3.2,3.2 0.9,2.6 2,5.8 3.2,9 2,6.4 4.3,13 6.1,16.8 3.8,8.7 10.4,19.6 20.2,22 8.4,2 28,0.3 37.6,-13.6 4.9,-7.5 2.6,-31.8 0,-55.8 -0.3,-3.2 -0.6,-5.8 -0.9,-7.5 -0.3,-3.2 -1.7,-10.1 -3.5,-19.1 l -0.9,-3.8 c -3.5,-16.8 -4.9,-22.8 -1.2,-41.3 1.7,-9 4,-16.8 6.6,-22.2 v 9.2 c 0,3.2 2.3,5.8 5.2,6.6 45.9,13.9 62.7,16.8 110.4,-14.2 l 1.4,-0.9 c 15.6,-10.4 41.9,-27.4 47.4,-47.1 2.9,-11.8 1.2,-22.2 -0.9,-30.6 -2,-9.8 -1.4,-13 0,-20.2 0.3,-1.7 0.9,-3.8 1.2,-6.1 0.9,-5.5 2.6,-18.8 -1.7,-29.2 -1.2,-2.9 -2.3,-4.6 -3.5,-6.4 -2,-3.8 -3.2,-5.2 -2.6,-12.4 0,-1.2 0.3,-2.6 0.6,-4 0.9,-6.1 1.4,-12.4 -0.6,-19.4 -1.7,-3.5 -2.9,-5.2 -5.5,-7.2 l -11.6,-6.9 c -3.8,-2.9 -4.3,-6.1 -4.3,-11.8 v -2 c 0.3,-4.9 0.3,-9.5 -0.6,-14.4 -0.6,-3.5 -1.7,-6.6 -5.2,-9.5 L 29.7,7.2 C 21.4,2.3 11.6,0 0,0 m -89.3,387.2 c -2.6,-7.5 -5.8,-18.2 -9,-29.2 -4.6,-15.9 -9.5,-32.1 -13.9,-42.8 -13,-30.6 -25.4,-38.1 -40.2,-46.8 -10.1,-6.1 -21.4,-12.7 -35.3,-28.9 -19.9,-24.6 -31.5,-51.1 -34.4,-78.9 -1.4,-23.4 3.5,-37.9 15.9,-47.4 12.7,-7.2 27.4,-17.6 43.3,-28.6 C -132,62.9 -96.7,38.4 -57.7,21.6 -19.8,5.4 7.6,2.5 26.4,13.2 l 74.8,45.1 c 1.2,1.2 1.7,2.3 2.3,5.2 0.9,4.3 0.6,8.4 0.6,13 v 2.3 c 0,6.6 0.9,12.7 7.2,17.3 0,0 0.3,0 0.3,0.3 l 11.3,6.9 c 1.4,1.2 2,2 3.2,4 1.7,4.9 0.9,10.1 0.3,15.9 0,1.4 -0.3,2.9 -0.6,4.3 -0.6,9.2 0.9,11.8 3.8,16.8 0.9,1.4 1.7,3.2 2.9,5.5 3.5,8.7 2,20.5 1.2,25.1 -0.3,2 -0.9,4 -1.2,5.8 -1.7,7.8 -2.6,11.8 0,23.4 2,8.1 3.5,17 1.2,27.4 -4.9,17 -29.8,33.5 -44.5,43.1 l -1.4,0.9 c -45.4,29.2 -60.1,26.6 -104.6,13.3 l -0.6,-19.9 c 0,-1.2 -0.6,-2.3 -1.7,-3.2 -1.2,-0.6 -2.6,-0.6 -3.5,0.3 -8.1,5.8 -12.7,24 -14.7,34.4 -3.8,19.6 -2.3,26.9 1.2,43.9 l 0.9,3.8 c 1.4,6.9 3.2,15.3 3.5,18.5 0.3,2 0.6,4.6 0.9,7.8 1.4,13.6 4.9,45.1 0.9,51.1 -7.5,11 -24.6,12.1 -30.1,10.7 -5.5,-1.4 -11.3,-8.1 -15.6,-18.2 -1.4,-3.2 -3.8,-9.8 -5.8,-16.2 -1.7,-4.6 -3.2,-9 -4.3,-11.8 -0.3,-1.2 -1.4,-2 -2.6,-2 z"></path></g><g transform="translate(320.7969,307.9038)" id="g68"><path id="path70" style="fill:#e51550;fill-opacity:1;fill-rule:nonzero;stroke:none" d="m 0,0 c -0.6,-9 3.5,-14.4 23.7,-14.7 l 11.6,1.2 c 17.3,1.7 23.1,-3.2 31.5,-8.1 l 12.7,-7.8 c 3.2,-1.7 4.6,-4.9 4.3,-8.7 -0.3,-3.5 -2.6,-6.4 -5.8,-7.5 l -9,-3.5 c -15.3,-5.5 -46.5,9.8 -54.9,17 L -0.1,-20 V 0 Z"></path></g><g transform="translate(381.7969,254.5038)" id="g72"><path id="path74" style="fill:#d80927;fill-opacity:1;fill-rule:nonzero;stroke:none" d="m 0,0 c -17.9,0 -42.5,13.3 -49.4,19.1 l -13.9,12.1 c -0.9,0.6 -1.2,1.7 -1.2,2.6 l 0.3,17 v 2.9 c 0,1.7 1.7,3.5 3.5,3.2 1.7,0 3.2,-1.7 3.2,-3.5 v -2.3 c 0,-2 0.6,-3.5 1.7,-4.3 2.3,-2.6 8.7,-4.3 18.8,-4.3 l 11.3,1.2 c 16.8,1.7 24,-2.6 31.5,-7.2 l 15,-9 c 4.3,-2.6 6.4,-6.9 6.1,-11.8 -0.6,-4.9 -3.5,-9 -8.1,-10.4 L 9.8,1.8 C 6.4,0.3 3.2,0 0,0 m -57.8,35.2 13,-11.3 C -36.4,16.4 -6.4,2.5 6.6,7.4 l 9,3.2 c 2,0.9 3.5,2.6 3.8,4.6 0.3,2.3 -0.9,4.3 -2.6,5.5 l -15,9 c -6.9,4.3 -12.4,7.8 -27.2,6.4 L -37,34.9 c -9.8,0.3 -16.5,1.4 -20.8,4 z"></path></g><g transform="translate(252.0969,410.8038)" id="g76"><path id="path78" style="fill:#ffffff;fill-opacity:1;fill-rule:nonzero;stroke:none" d="m 0,0 c 0.6,6.4 6.9,33.2 16.2,44.2 2.6,3.2 8.7,-4.9 7.2,-9.5 L 14.7,9 C 11.8,0 8.9,-8 2,-2.3 0.8,-1.5 1.4,-1.7 0,0"></path></g><g transform="translate(258.6969,402.7038)" id="g80"><path id="path82" style="fill:#d80927;fill-opacity:1;fill-rule:nonzero;stroke:none" d="m 0,0 c -2,0 -4.3,0.9 -6.4,2.9 -0.9,0.9 -1.4,1.2 -1.7,2 -0.3,0.3 -0.3,0.3 -0.9,0.9 -0.6,0.6 -0.9,1.7 -0.9,2.6 0.6,6.9 7.2,34.4 17,46.2 1.7,2 4.6,2.6 7.2,1.2 4,-2.3 7.8,-9 6.1,-13.9 L 11.7,16.2 C 9.4,9 7.1,2.3 1.9,0.9 1.2,0 0.6,0 0,0 M -2.9,9 C -2.9,8.7 -2.6,8.7 -2.6,8.7 -0.9,7 -0.3,7 0,7 1.7,7.6 4,14.5 5.2,18 l 8.7,25.6 C 14.2,45 13,47.6 11.6,48.8 4,39 -2,17 -2.9,9"></path></g><g transform="translate(368.1969,256.5038)" id="g84"><path id="path86" style="fill:#d80927;fill-opacity:1;fill-rule:nonzero;stroke:none" d="m 0,0 c -2,0 -3.5,1.4 -3.5,3.5 v 34.7 c 0,1.7 1.4,3.5 3.5,3.5 1.7,0 3.5,-1.4 3.5,-3.5 V 3.5 C 3.2,1.4 1.7,0 0,0"></path></g><g transform="translate(394.7969,163.4038)" id="g88"><path id="path90" style="fill:#d80927;fill-opacity:1;fill-rule:nonzero;stroke:none" d="m 0,0 c -1.2,0 -2.3,0.6 -2.9,1.7 -0.9,1.7 -0.3,3.8 1.2,4.6 l 81.2,46.8 c 1.7,0.9 3.8,0.3 4.6,-1.2 0.9,-1.7 0.3,-3.8 -1.2,-4.6 L 1.7,0.5 C 1.2,0.3 0.6,0 0,0"></path></g><g transform="translate(389.5969,113.5038)" id="g92"><path id="path94" style="fill:#d80927;fill-opacity:1;fill-rule:nonzero;stroke:none" d="m 0,0 c -1.2,0 -2.3,0.6 -2.9,1.7 -0.9,1.7 -0.3,3.8 1.2,4.6 l 87.3,50.6 c 1.7,0.9 3.8,0.3 4.6,-1.2 C 91.1,54 90.5,51.9 89,51.1 L 1.4,0.2 C 1.2,0 0.6,0 0,0"></path></g><g transform="translate(367.0969,59.1038)" id="g96"><path id="path98" style="fill:#d80927;fill-opacity:1;fill-rule:nonzero;stroke:none" d="m 0,0 c -1.2,0 -2.3,0.6 -2.9,1.7 -0.9,1.7 -0.3,3.8 1.2,4.6 l 87.3,50.3 c 1.7,0.9 3.8,0.3 4.6,-1.2 0.9,-1.7 0.3,-3.8 -1.2,-4.6 L 1.7,0.5 C 1.1,0 0.5,0 0,0"></path></g></g></g></g></svg>