<svg xmlns:dc="http://purl.org/dc/elements/1.1/" xmlns:cc="http://creativecommons.org/ns#" xmlns:rdf="http://www.w3.org/1999/02/22-rdf-syntax-ns#" xmlns:svg="http://www.w3.org/2000/svg" xmlns="http://www.w3.org/2000/svg" viewBox="0 0 644.40002 644.40002" height="644.40002" width="644.40002" xml:space="preserve" id="svg2"><metadata></metadata><defs id="defs6"><clipPath id="clipPath18" clipPathUnits="userSpaceOnUse"><path id="path16" d="M 0,0 H 483.3 V 483.3 H 0 Z"></path></clipPath></defs><g transform="matrix(1.3333333,0,0,-1.3333333,0,644.4)" id="g10"><g id="g12"><g clip-path="url(#clipPath18)" id="g14"><g transform="translate(445.0516,426.1916)" id="g20"><path id="path22" style="fill:#e51766;fill-opacity:1;fill-rule:evenodd;stroke:none" d="m 0,0 -80.763,46.757 c -35.522,16.729 -81.066,-14.239 -105.053,-39.654 -26.413,-28.083 -45.541,-65.155 -54.649,-102.562 l -3.037,-14.239 81.065,-46.758 c 7.895,37.133 19.13,67.647 42.203,98.463 22.773,30.394 65.887,67.678 106.268,62.061 z"></path></g><g transform="translate(282.6146,266.1529)" id="g24"><path id="path26" style="fill:#d80927;fill-opacity:1;fill-rule:evenodd;stroke:none" d="m 0,0 c -0.605,0 -1.214,0.182 -1.516,0.486 l -81.068,46.757 c -1.517,0.759 -2.125,2.306 -1.823,3.825 l 3.038,14.24 c 9.411,39.442 29.146,76.451 55.563,104.296 22.163,23.621 70.137,58.689 108.999,40.409 l 81.065,-46.88 c 1.822,-0.91 2.431,-2.82 1.519,-4.491 -0.608,-1.67 -2.43,-2.521 -4.252,-2.036 l -13.964,4.069 C 106.571,166.354 63.76,125.153 45.241,99.89 24.595,72.2 12.145,43.174 3.643,2.855 3.34,1.73 2.43,0.788 1.519,0.334 0.91,0.123 0.608,0 0,0 M -76.815,52.131 -2.428,9.108 c 8.806,38.925 21.558,67.586 41.898,95.065 18.522,24.958 59.513,64.671 101.715,64.063 L 79.852,203.697 C 44.936,220.096 0.305,186.908 -20.646,164.684 -46.149,137.753 -65.277,101.895 -74.384,63.728 Z"></path></g><g transform="translate(254.379,314.4572)" id="g28"><path id="path30" style="fill:#e51766;fill-opacity:1;fill-rule:evenodd;stroke:none" d="m 0,0 c -12.751,7.319 -79.852,46.972 -87.747,49.827 -37.344,13.42 -82.887,-22.773 -105.964,-49.461 -32.789,-37.983 -54.652,-90.206 -54.345,-140.729 0,-38.468 20.34,-61.665 51.919,-80.063 l 81.065,-46.757 c -44.33,26.111 -57.384,55.288 -50.098,106.783 8.198,59.873 48.883,127.003 102.623,155.241 16.398,8.623 37.65,14.756 55.869,8.226 z"></path></g><g transform="translate(139.3075,43.69)" id="g32"><path id="path34" style="fill:#d80927;fill-opacity:1;fill-rule:evenodd;stroke:none" d="M 0,0 C -0.609,0 -1.216,0.152 -1.821,0.486 L -82.89,47.243 c -37.041,21.649 -53.436,47.306 -53.738,83.161 0,49.156 20.646,102.626 55.562,143.068 27.324,31.698 72.564,63.879 109.607,50.46 6.376,-2.247 42.808,-23.407 76.206,-43.054 l 12.147,-7.044 c 1.519,-0.94 2.124,-3.003 1.519,-4.706 -0.912,-1.67 -3.038,-2.398 -4.861,-1.607 l -6.678,3.067 C 86.836,277.783 63.152,267.278 54.044,262.45 4.554,236.308 -37.952,172.153 -46.757,109.881 -53.742,59.632 -40.687,31.636 1.822,6.65 3.643,5.648 3.946,3.461 3.035,1.791 2.429,0.637 1.214,0 0,0 m 10.321,319.925 c -32.789,0 -68.313,-30.424 -86.227,-51.099 -33.7,-39.196 -53.742,-90.933 -53.742,-138.391 0.306,-33.034 15.79,-56.807 50.404,-77.028 l 42.203,-24.228 c -17.003,20.737 -21.556,45.968 -16.701,81.705 9.109,64.336 52.831,130.737 104.445,157.882 9.108,4.797 24.898,11.415 40.99,11.415 h 0.302 c -23.984,13.997 -60.418,35.1 -65.884,37.041 -5.162,1.853 -10.628,2.703 -15.79,2.703"></path></g><g transform="translate(282.6146,3.5829)" id="g36"><path id="path38" style="fill:#e51550;fill-opacity:1;fill-rule:evenodd;stroke:none" d="M 0,0 C 62.849,91.419 195.532,254.158 195.532,349.466 195.532,493.686 27.63,420.604 0,266.153 -27.627,388.662 -195.226,267.975 -195.226,123.785 -195.226,28.479 -62.849,18.853 0,0"></path></g><g transform="translate(282.6146)" id="g40"><path id="path42" style="fill:#d80927;fill-opacity:1;fill-rule:evenodd;stroke:none" d="M 0,0 C -0.303,0 -0.605,0.06 -0.911,0.151 -12.144,3.491 -25.503,6.59 -39.774,9.836 -107.177,25.2 -198.87,46.24 -198.87,127.368 c 0,97.218 76.814,189.094 139.969,196.137 16.396,1.822 44.633,-1.335 58.296,-39.073 21.251,88.806 88.655,149.925 141.182,149.925 1.821,0 3.644,-0.091 5.465,-0.242 33.703,-2.976 53.133,-32.547 53.133,-81.067 0,-79.457 -90.782,-204.942 -156.972,-296.606 C 27.63,36.587 14.27,17.822 3.038,1.547 2.43,0.576 1.216,0 0,0 m -51.614,316.768 c -2.124,0 -4.252,-0.123 -6.681,-0.366 -53.739,-6.013 -133.59,-88.018 -133.59,-189.034 0,-75.449 88.654,-95.761 153.63,-110.58 13.36,-3.035 26.111,-5.95 36.739,-9.045 10.93,15.818 23.984,33.852 37.952,52.89 65.582,90.842 155.452,215.265 155.452,292.415 0,45.028 -16.394,71.29 -46.148,73.963 C 94.123,431.597 20.344,363.645 3.643,269.096 3.34,267.429 1.821,266.212 0,266.153 c -1.516,-0.031 -3.035,1.122 -3.338,2.792 -7.287,31.425 -23.684,47.823 -48.276,47.823"></path></g></g></g></g></svg>