<svg xmlns:dc="http://purl.org/dc/elements/1.1/" xmlns:cc="http://creativecommons.org/ns#" xmlns:rdf="http://www.w3.org/1999/02/22-rdf-syntax-ns#" xmlns:svg="http://www.w3.org/2000/svg" xmlns="http://www.w3.org/2000/svg" viewBox="0 0 644.40002 644.40002" height="644.40002" width="644.40002" xml:space="preserve" id="svg2"><metadata></metadata><defs id="defs6"><clipPath id="clipPath18" clipPathUnits="userSpaceOnUse"><path id="path16" d="M 1.099,0 H 483.3 V 483.3 H 1.099 Z"></path></clipPath></defs><g transform="matrix(1.3333333,0,0,-1.3333333,0,644.4)" id="g10"><g id="g12"><g clip-path="url(#clipPath18)" id="g14"><g transform="translate(408.1952,407.0962)" id="g20"><path id="path22" style="fill:#ffffff;fill-opacity:1;fill-rule:nonzero;stroke:none" d="m 0,0 c -21.704,21.704 -47.514,39.106 -76.257,51.034 -27.57,11.34 -57.877,17.793 -89.749,17.793 -31.872,0 -62.179,-6.257 -89.749,-17.793 -28.743,-11.928 -54.553,-29.33 -76.257,-51.034 -21.704,-21.704 -39.106,-47.514 -51.034,-76.257 -11.536,-27.57 -17.793,-57.877 -17.793,-89.749 0,-31.872 6.257,-62.179 17.793,-89.749 11.928,-28.743 29.33,-54.553 51.034,-76.257 21.704,-21.704 47.514,-39.106 76.257,-51.034 27.765,-11.536 58.073,-17.793 89.749,-17.793 31.872,0 62.179,6.257 89.749,17.793 28.743,11.928 54.553,29.33 76.257,51.034 21.704,21.704 39.106,47.514 51.034,76.257 11.536,27.57 17.793,57.877 17.793,89.749 0,31.871 -6.257,62.179 -17.793,89.749 C 39.106,-47.514 21.704,-21.704 0,0"></path></g><g transform="translate(242.1891,2.5419)" id="g24"><path id="path26" style="fill:#d80927;fill-opacity:1;fill-rule:nonzero;stroke:none" d="m 0,0 c -31.676,0 -62.374,6.061 -91.313,17.989 -28.939,11.927 -54.944,29.525 -77.431,51.816 -22.29,22.486 -39.692,48.491 -51.62,77.43 -11.927,28.939 -17.989,59.637 -17.989,91.313 0,31.676 6.062,62.375 17.989,91.118 11.928,28.938 29.525,55.14 51.816,77.43 22.291,22.486 48.296,39.889 77.235,51.816 57.877,23.855 124.553,23.855 182.431,0 28.938,-12.123 54.944,-29.525 77.43,-51.816 22.291,-22.29 39.693,-48.296 51.816,-77.43 11.927,-28.939 17.989,-59.637 17.989,-91.118 0,-31.676 -6.062,-62.374 -17.989,-91.313 C 208.436,118.296 190.839,92.291 168.548,69.805 146.257,47.514 120.252,30.112 91.118,17.989 62.179,6.061 31.481,0 0,0 m 0,469.666 c -30.698,0 -60.419,-5.866 -88.38,-17.402 -28.157,-11.732 -53.576,-28.548 -75.28,-50.252 -21.704,-21.704 -38.519,-46.927 -50.251,-75.084 -11.537,-28.156 -17.598,-57.877 -17.598,-88.38 0,-30.503 5.866,-60.419 17.598,-88.38 11.536,-28.156 28.547,-53.38 50.251,-75.084 21.704,-21.704 46.928,-38.52 75.084,-50.252 27.961,-11.536 57.878,-17.597 88.38,-17.597 30.699,0 60.42,5.866 88.381,17.597 28.156,11.732 53.38,28.548 75.084,50.252 21.704,21.704 38.519,46.928 50.251,75.084 11.537,27.961 17.402,57.877 17.402,88.38 0,30.699 -5.865,60.419 -17.402,88.38 -11.732,28.157 -28.547,53.38 -50.251,75.084 -21.704,21.704 -46.928,38.52 -75.084,50.252 C 60.224,463.8 30.503,469.666 0,469.666"></path></g><g transform="translate(393.7259,392.6268)" id="g28"><path id="path30" style="fill:#ffffff;fill-opacity:1;fill-rule:nonzero;stroke:none" d="m 0,0 c -19.749,19.749 -43.408,35.782 -69.609,46.536 -25.224,10.364 -52.989,16.23 -81.928,16.23 -29.134,0 -56.704,-5.671 -81.927,-16.23 C -259.666,35.587 -283.325,19.749 -303.073,0 c -19.749,-19.749 -35.783,-43.408 -46.537,-69.609 -10.559,-25.224 -16.229,-52.989 -16.229,-81.928 0,-29.134 5.67,-56.704 16.229,-81.927 10.754,-26.202 26.788,-49.861 46.537,-69.61 19.748,-19.748 43.407,-35.782 69.609,-46.536 25.223,-10.559 52.989,-16.229 81.927,-16.229 28.939,0 56.704,5.67 81.928,16.229 26.201,10.754 49.86,26.788 69.609,46.536 19.749,19.749 35.782,43.408 46.536,69.61 10.364,25.223 16.23,52.989 16.23,81.927 0,29.134 -5.671,56.704 -16.23,81.928 C 35.587,-43.408 19.749,-19.749 0,0"></path></g><g transform="translate(242.1891,23.0727)" id="g32"><path id="path34" style="fill:#d80927;fill-opacity:1;fill-rule:nonzero;stroke:none" d="m 0,0 c -28.939,0 -56.9,5.475 -83.296,16.425 -26.593,11.145 -50.447,26.983 -70.783,47.514 -20.53,20.335 -36.368,44.19 -47.318,70.782 -10.95,26.397 -16.425,54.553 -16.425,83.296 0,28.939 5.671,56.9 16.425,83.297 10.95,26.592 26.788,50.251 47.318,70.782 20.531,20.531 44.19,36.369 70.783,47.319 52.989,21.899 113.799,21.899 166.788,0 26.592,-10.95 50.251,-26.984 70.782,-47.319 20.335,-20.335 36.369,-44.19 47.319,-70.782 10.95,-26.397 16.424,-54.358 16.424,-83.297 0,-28.938 -5.475,-56.899 -16.424,-83.296 C 190.643,108.129 174.609,84.47 154.274,63.939 133.939,43.408 110.084,27.57 83.492,16.62 56.9,5.67 28.743,0 0,0 m 0,428.605 c -27.961,0 -54.944,-5.28 -80.559,-15.838 -25.615,-10.559 -48.687,-26.006 -68.436,-45.755 -19.749,-19.748 -35.195,-42.821 -45.754,-68.436 -10.559,-25.614 -16.034,-52.598 -16.034,-80.559 0,-27.961 5.475,-55.139 16.034,-80.559 10.559,-25.614 26.005,-48.687 45.754,-68.435 19.749,-19.749 42.821,-35.196 68.436,-45.755 51.034,-21.117 110.084,-21.117 161.118,0 25.614,10.559 48.687,26.006 68.436,45.755 19.749,19.748 35.195,42.625 45.754,68.435 10.559,25.615 15.838,52.598 15.838,80.559 0,27.961 -5.279,54.945 -15.838,80.559 -10.559,25.615 -26.006,48.688 -45.754,68.436 -19.749,19.749 -42.822,35.196 -68.436,45.755 C 54.944,423.325 27.765,428.605 0,428.605"></path></g><g transform="translate(405.0667,380.5039)" id="g36"><path id="path38" style="fill:#e51766;fill-opacity:1;fill-rule:nonzero;stroke:none" d="m 0,0 c 7.821,-8.994 27.57,-38.129 35.978,-59.246 10.558,-26.397 15.642,-54.358 15.447,-82.319 -0.196,-27.961 -6.062,-55.922 -17.207,-81.927 -10.754,-25.028 -26.592,-48.688 -47.319,-69.023 -20.726,-20.335 -44.581,-35.587 -70,-45.754 -10.559,-4.302 19.358,31.285 0.782,50.838 -18.575,19.553 -97.179,-3.128 -95.028,36.955 2.151,40.28 19.749,40.084 28.939,61.006 9.19,20.922 20.335,3.911 59.637,17.402 39.302,13.492 91.704,11.341 108.715,29.33 17.011,17.794 -65.307,-3.519 -80.559,0.391 -15.056,3.715 -18.184,21.9 -29.134,21.313 -10.95,-0.586 -4.693,-20.14 -16.816,-23.855 -12.123,-3.715 -44.776,-9.385 -46.732,4.498 -7.625,53.184 33.436,36.368 35.978,39.301 10.754,12.514 -12.905,22.486 1.76,40.28 14.665,17.793 29.134,20.922 36.955,33.24 7.626,12.319 -17.988,21.9 -6.257,31.481 C -72.738,13.296 -8.212,9.386 0,0"></path></g><g transform="translate(320.5972,38.1286)" id="g40"><path id="path42" style="fill:#d80927;fill-opacity:1;fill-rule:nonzero;stroke:none" d="m 0,0 c -1.564,0 -2.542,0.587 -3.128,1.369 -2.542,2.542 -1.174,6.061 1.564,12.514 4.301,10.363 11.536,27.765 1.368,38.519 -6.452,6.844 -23.659,7.822 -40.279,8.799 -26.788,1.565 -57.291,3.324 -55.922,30.894 1.564,27.57 9.972,37.151 18.185,46.537 4.106,4.692 8.016,8.994 10.949,15.838 6.062,13.882 13.883,13.687 24.833,13.687 8.212,0 19.944,0 36.955,5.67 16.229,5.671 34.414,8.408 51.816,11.341 23.855,3.715 46.145,7.43 55.531,17.011 0.195,0.391 0.586,0.587 0.586,0.782 -5.866,1.369 -26.396,-1.368 -40.279,-3.519 -17.402,-2.542 -32.654,-4.693 -39.106,-2.933 -8.799,2.151 -14.079,8.603 -18.185,13.687 -3.715,4.693 -6.257,7.43 -9.385,7.43 h -0.391 c -2.347,-0.195 -3.129,-1.955 -4.497,-7.821 -1.369,-5.67 -3.325,-13.492 -11.341,-15.838 -8.799,-2.737 -34.414,-8.212 -45.755,-0.978 -3.128,1.956 -5.083,4.889 -5.67,8.408 -2.542,17.207 -0.391,29.134 6.648,36.369 8.408,8.799 21.117,7.43 27.961,6.844 0.978,0 2.151,-0.196 2.933,-0.196 2.346,3.324 1.369,6.453 -1.173,11.927 -2.933,6.844 -7.235,16.034 2.151,27.375 7.821,9.385 15.251,14.665 22.095,19.553 6.257,4.497 11.145,7.821 14.469,13.296 2.151,3.52 0.391,6.648 -4.106,12.319 -3.911,5.083 -10.168,12.905 -1.369,20.139 12.71,10.364 79.777,7.431 89.553,-4.106 8.017,-9.19 28.157,-38.911 36.76,-60.419 10.755,-26.592 16.034,-54.749 15.643,-83.687 -0.391,-28.939 -6.257,-56.9 -17.402,-83.297 C 110.671,91.313 94.637,67.654 73.911,47.319 53.185,27.179 29.33,11.536 2.737,0.782 1.76,0.196 0.978,0 0,0 m -44.19,160.727 c -8.995,0 -12.319,-0.587 -16.229,-9.386 -3.324,-7.821 -7.821,-12.905 -12.123,-17.598 -7.821,-8.799 -15.056,-17.011 -16.425,-42.039 -0.977,-18.966 18.771,-21.508 49.079,-23.268 18.771,-1.173 36.564,-2.151 44.972,-10.95 13.491,-14.078 4.888,-35 0.195,-46.145 C 5.084,10.754 4.693,9.972 4.497,9.19 c 24.246,10.363 45.755,24.832 64.526,43.212 19.944,19.554 35.586,42.431 46.536,67.85 10.95,25.614 16.62,52.598 16.816,80.559 0.391,27.961 -4.693,55.14 -15.056,80.95 -8.408,20.726 -27.766,49.469 -35.391,58.463 -6.453,7.626 -68.632,11.928 -79.582,3.129 -2.737,-2.151 -2.737,-3.52 2.542,-10.168 4.106,-5.279 9.581,-12.318 4.498,-20.53 -4.107,-6.648 -10.168,-10.95 -16.425,-15.447 -6.257,-4.498 -13.492,-9.581 -20.726,-18.185 -6.453,-7.821 -3.911,-13.296 -1.174,-19.748 2.542,-5.866 5.866,-13.101 -0.586,-20.531 -1.76,-1.956 -4.302,-1.76 -8.408,-1.369 -6.062,0.587 -16.229,1.564 -22.095,-4.693 -5.084,-5.475 -6.844,-15.642 -4.693,-30.503 0.196,-1.368 0.978,-2.346 2.347,-3.324 7.234,-4.497 27.765,-1.955 39.888,1.76 3.911,1.173 5.084,4.888 6.452,10.754 1.369,5.475 3.129,12.905 11.146,13.492 7.234,0.391 11.536,-4.888 15.838,-10.168 3.91,-4.692 8.017,-9.776 14.469,-11.341 5.084,-1.368 21.704,1.174 36.369,3.129 32.067,4.497 45.363,5.866 48.687,-0.391 1.369,-2.738 0.391,-5.67 -2.737,-8.995 -10.95,-11.34 -33.436,-15.055 -59.637,-19.357 -17.207,-2.738 -35,-5.671 -50.643,-10.95 -18.184,-6.257 -30.307,-6.257 -39.302,-6.061 -0.977,0 -1.759,0 -2.346,0"></path></g><g transform="translate(227.7198,455.0013)" id="g44"><path id="path46" style="fill:#e51766;fill-opacity:1;fill-rule:nonzero;stroke:none" d="m 0,0 c -50.056,-3.324 -99.134,-24.05 -137.263,-62.374 -20.531,-20.531 -35.978,-44.191 -46.536,-69.414 -21.704,-52.402 -21.704,-111.844 0,-164.442 8.603,-20.922 20.921,-40.866 36.759,-58.855 1.174,-1.369 2.738,-1.955 4.498,-2.151 1.759,0 3.324,0.391 4.497,1.76 14.274,16.425 55.531,27.766 58.464,49.469 2.151,16.034 -24.637,22.487 -31.676,37.151 -8.017,16.621 -1.565,38.716 -11.928,53.967 -10.754,15.838 -51.424,17.207 -62.57,32.849 -6.061,8.604 -1.564,21.313 1.565,31.285 1.368,4.302 6.648,6.844 11.145,8.017 6.257,1.564 12.905,-0.195 19.357,-0.195 0.391,0 61.202,9.19 79.777,17.206 18.576,8.017 8.408,18.771 16.62,22.095 8.213,3.324 21.118,-21.313 33.632,-10.558 12.514,10.949 22.486,63.743 26.983,76.061 4.497,12.123 21.313,0.391 25.615,-2.346 4.497,-2.542 -7.822,-26.201 -2.151,-30.503 5.67,-4.302 29.329,10.754 32.262,13.687 17.794,17.598 13.297,33.827 3.324,41.844 C 52.402,-7.43 21.9,-17.989 4.302,-1.564 3.324,-0.391 1.76,0.196 0,0"></path></g><g transform="translate(85.373,94.246)" id="g48"><path id="path50" style="fill:#d80927;fill-opacity:1;fill-rule:nonzero;stroke:none" d="m 0,0 h -0.391 c -2.738,0.196 -5.279,1.173 -7.039,3.324 -15.643,17.793 -28.157,38.129 -37.347,59.833 -22.095,53.184 -22.095,113.994 0,167.179 10.95,26.397 26.788,50.251 47.319,70.587 37.346,37.346 87.011,59.832 139.609,63.352 2.933,0.195 5.28,-0.782 7.43,-2.542 9.386,-8.799 23.269,-8.995 35.392,-9.19 9.385,-0.196 17.402,-0.391 22.486,-4.302 6.061,-4.888 9.581,-11.732 9.972,-19.162 0.391,-6.452 -1.564,-16.816 -13.101,-28.156 -1.369,-1.369 -28.352,-20.727 -37.151,-13.883 -4.888,3.911 -2.737,12.318 -0.391,21.117 0.782,3.129 2.151,7.822 1.956,9.581 l -0.783,0.587 c -3.324,1.955 -11.927,7.43 -16.424,5.866 -0.782,-0.196 -1.76,-0.782 -2.347,-2.738 -1.173,-3.128 -2.737,-9.581 -4.692,-17.011 -7.04,-27.374 -14.079,-52.598 -23.464,-60.614 -9.777,-8.408 -19.749,-0.391 -26.397,4.888 -2.542,2.151 -7.039,5.67 -8.408,5.084 -1.173,-0.587 -1.368,-0.782 -1.759,-4.106 -0.587,-4.889 -1.76,-12.319 -14.665,-17.989 -18.576,-8.017 -79.19,-17.598 -81.341,-17.598 -2.347,0 -4.498,0.195 -6.844,0.391 -4.106,0.391 -8.017,0.782 -11.536,-0.196 -3.52,-0.977 -7.626,-2.737 -8.408,-5.67 l -0.391,-0.978 c -2.933,-8.994 -6.648,-20.335 -1.76,-27.179 4.888,-6.843 17.207,-10.949 29.33,-14.86 13.296,-4.497 27.179,-8.994 33.24,-17.989 6.062,-8.994 6.844,-19.944 7.626,-30.503 0.586,-8.603 1.173,-16.815 4.497,-23.855 C 36.76,87.989 43.017,83.492 48.883,78.995 58.073,72.347 67.654,65.503 66.09,54.162 64.134,39.106 47.319,29.33 31.089,19.944 21.313,14.274 12.123,8.799 6.844,2.933 5.279,0.978 2.737,0 0,0 m -50.056,188.101 c -8.017,-40.67 -4.106,-83.492 11.927,-122.011 8.799,-21.118 20.922,-40.671 35.978,-57.878 0.587,-0.586 1.173,-0.782 1.76,-0.977 1.173,0 1.564,0.391 1.76,0.586 5.866,6.844 15.642,12.514 26.005,18.576 14.861,8.603 30.112,17.598 31.481,28.938 0.978,6.648 -4.888,11.341 -14.274,18.185 -6.648,4.888 -13.687,9.776 -17.011,17.011 -3.911,8.212 -4.693,17.598 -5.279,26.592 -0.783,9.972 -1.369,19.553 -6.453,26.984 -4.693,6.843 -17.402,11.145 -29.525,15.055 -13.101,4.302 -26.788,8.995 -32.849,17.598 -2.347,3.324 -3.324,7.235 -3.52,11.341 m 192.794,169.135 h -0.196 C 91.704,353.912 43.799,332.012 7.626,296.034 c -19.749,-19.748 -35.196,-42.821 -45.755,-68.24 -1.759,-4.106 -3.128,-8.017 -4.497,-12.123 3.324,3.715 8.604,5.475 11.145,6.061 4.889,1.174 9.581,0.783 14.079,0.392 2.151,-0.196 4.106,-0.392 6.257,-0.392 3.324,0.392 61.005,9.386 78.212,17.012 9.386,3.91 9.777,8.016 10.363,12.318 0.391,3.129 0.978,7.626 6.257,9.777 5.28,2.151 10.559,-1.956 15.643,-6.062 7.43,-5.866 12.123,-9.19 17.011,-5.084 8.408,7.235 16.229,38.325 21.117,56.9 1.956,8.017 3.52,14.078 4.889,17.598 1.76,4.497 4.693,6.452 6.843,7.235 7.626,2.541 17.403,-3.324 22.486,-6.649 l 1.369,-0.782 c 4.497,-2.542 2.738,-8.994 0.587,-17.206 -0.978,-3.911 -3.129,-11.928 -2.151,-13.688 3.911,-1.564 23.855,9.972 27.374,13.492 7.626,7.43 11.341,15.251 10.95,22.486 -0.391,5.475 -2.933,10.363 -7.43,13.883 -3.129,2.542 -10.363,2.737 -18.185,2.737 -12.905,0.196 -28.743,0.587 -40.083,11.146 -0.196,0.195 -0.587,0.391 -1.369,0.391 m 26.788,-39.889 z m -27.179,43.408 z"></path></g><g transform="translate(242.1891)" id="g52"><path id="path54" style="fill:#d80927;fill-opacity:1;fill-rule:nonzero;stroke:none" d="m 0,0 c -132.961,0 -241.09,108.129 -241.09,241.09 0,132.961 108.129,241.09 241.09,241.09 132.961,0 241.09,-108.129 241.09,-241.09 C 240.895,108.129 132.766,0 0,0 m 0,474.75 c -128.855,0 -233.855,-104.805 -233.855,-233.855 C -233.855,112.039 -129.051,7.039 0,7.039 128.855,7.039 233.66,111.844 233.66,240.895 233.66,369.945 128.855,474.75 0,474.75"></path></g><g transform="translate(242.1891,21.5084)" id="g56"><path id="path58" style="fill:#d80927;fill-opacity:1;fill-rule:nonzero;stroke:none" d="m 0,0 c -130.81,0 -237.179,90.335 -237.179,201.202 0,111.061 106.369,201.397 237.179,201.397 130.81,0 237.179,-90.336 237.179,-201.202 C 237.179,90.335 130.81,0 0,0 m 0,395.364 c -126.9,0 -229.945,-87.011 -229.945,-193.967 C -229.945,94.442 -126.704,7.43 0,7.43 126.704,7.43 229.945,94.442 229.945,201.397 229.945,308.353 126.704,395.364 0,395.364"></path></g><g transform="translate(242.1891,99.1343)" id="g60"><path id="path62" style="fill:#d80927;fill-opacity:1;fill-rule:nonzero;stroke:none" d="m 0,0 c -132.961,0 -241.09,71.76 -241.09,159.749 0,1.955 1.564,3.715 3.519,3.715 1.956,0 3.716,-1.564 3.716,-3.715 C -233.855,75.671 -129.051,7.235 0,7.235 c 128.855,0 233.66,68.436 233.66,152.514 0,1.955 1.564,3.715 3.715,3.715 1.955,0 3.52,-1.564 3.52,-3.715 C 240.895,71.76 132.766,0 0,0"></path></g><g transform="translate(242.1891,231.7046)" id="g64"><path id="path66" style="fill:#d80927;fill-opacity:1;fill-rule:nonzero;stroke:none" d="m 0,0 c -110.475,0 -200.224,52.402 -200.224,116.732 0,17.598 8.212,38.324 21.313,54.358 1.369,1.564 3.519,1.76 5.084,0.391 1.564,-1.173 1.759,-3.52 0.391,-5.084 -12.123,-14.665 -19.749,-33.827 -19.749,-49.665 0,-60.419 86.62,-109.497 192.989,-109.497 106.369,0 192.99,49.078 192.99,109.497 0,23.464 -11.732,45.95 -33.24,63.352 -1.565,1.173 -1.76,3.52 -0.587,5.084 1.173,1.564 3.519,1.76 5.084,0.587 23.072,-18.771 35.782,-43.213 35.782,-69.023 C 200.224,52.402 110.28,0 0,0"></path></g><g transform="translate(242.1891)" id="g68"><path id="path70" style="fill:#d80927;fill-opacity:1;fill-rule:nonzero;stroke:none" d="m 0,0 c -1.955,0 -3.715,1.564 -3.715,3.715 v 474.75 c 0,1.955 1.564,3.715 3.715,3.715 1.955,0 3.52,-1.564 3.52,-3.715 V 3.715 C 3.52,1.76 1.955,0 0,0"></path></g><g transform="translate(121.7419,32.8492)" id="g72"><path id="path74" style="fill:#d80927;fill-opacity:1;fill-rule:nonzero;stroke:none" d="m 0,0 c -0.782,0 -1.369,0.196 -2.151,0.587 -41.061,28.352 -60.419,69.022 -57.682,121.229 5.475,101.872 99.917,227.207 180.867,271.202 76.257,41.452 145.866,26.201 191.034,-41.844 1.173,-1.76 0.587,-3.91 -0.978,-5.084 -1.564,-1.173 -3.91,-0.586 -5.084,0.978 C 263.185,411.593 196.9,425.867 124.553,386.565 45.363,343.548 -47.123,220.95 -52.402,121.229 -55.14,71.76 -36.76,33.24 2.151,6.452 3.715,5.279 4.106,3.128 3.128,1.369 2.151,0.587 1.173,0 0,0"></path></g><g transform="translate(362.4409,32.8492)" id="g76"><path id="path78" style="fill:#d80927;fill-opacity:1;fill-rule:nonzero;stroke:none" d="m 0,0 c -1.173,0 -2.346,0.587 -2.933,1.564 -1.173,1.564 -0.782,3.911 0.978,5.084 38.715,26.788 57.095,65.307 54.553,114.777 -5.279,99.721 -97.766,222.319 -176.956,265.336 -72.542,39.302 -138.632,25.028 -181.453,-39.497 -1.173,-1.76 -3.324,-2.151 -5.084,-0.978 -1.76,1.173 -2.151,3.324 -0.977,5.084 45.167,68.045 114.776,83.101 191.034,41.843 C -39.888,349.219 54.553,223.883 60.028,122.012 62.766,70 43.408,29.134 2.346,0.782 1.564,0.196 0.782,0 0,0"></path></g></g></g></g></svg>