<?xml version="1.0" encoding="utf-8"?>
<!-- Generator: Adobe Illustrator 19.0.0, SVG Export Plug-In . SVG Version: 6.00 Build 0)  -->
<svg version="1.1" id="Capa_1" xmlns="http://www.w3.org/2000/svg" xmlns:xlink="http://www.w3.org/1999/xlink" x="0px" y="0px"
	 viewBox="-178 56 483.3 483.3" style="enable-background:new -178 56 483.3 483.3;" xml:space="preserve">
<style type="text/css">
	.st0{fill:#E51550;}
	.st1{fill:#D80927;}
	.st2{fill:#E51766;}
	.st3{fill:#FFFFFF;}
	.st4{fill:#BDEDF8;}
	.st5{fill:#F93E78;}
</style>
<g>
	<path id="XMLID_374_" class="st0" d="M-77.8,373.3l-7-4.8c-1.1-1.9-1.4-3.5-1.4-5.7V249.6c0.2-7.8,5.1-16.4,11.8-20.5l159.4-92
		c2.7-1.5,5.5-2.3,8.4-0.8l7,4.8c-2.9-1.5-5.7-0.7-8.4,0.8l-159.4,92c-6.7,4.1-11.7,12.7-11.8,20.5v113.2
		C-79.2,369.7-78.9,371.4-77.8,373.3z"/>
	<path id="XMLID_371_" class="st1" d="M-83,366.9l1.6,1.1c0-0.1,0-0.2,0-0.3l0.1-113.2c0.2-8.6,5.6-18,12.9-22.4l159.5-92
		c0.7-0.4,1.4-0.7,2.2-1l-1-0.7c-1.5-0.8-3.3-0.6-6,0.9l-159.5,91.8c-6,3.6-10.5,11.5-10.7,18.6L-84,362.8
		C-83.9,364.4-83.7,365.6-83,366.9L-83,366.9z M-77.8,375.5c-0.4,0-0.9-0.1-1.3-0.4l-7-4.8c-0.3-0.2-0.5-0.4-0.7-0.7
		c-1.4-2.3-1.7-4.4-1.7-6.8V249.6c0.2-8.7,5.5-17.9,12.9-22.4l159.5-92c2.6-1.4,6.5-3,10.6-0.9l7.2,4.9c1,0.7,1.3,2,0.7,3.1
		c-0.6,1-1.9,1.4-3,0.8c-1.7-0.9-3.5-0.7-6.2,0.8l-159.4,91.9c-6,3.6-10.6,11.5-10.7,18.6L-77,367.5c0.1,1.8,0.2,3,1.1,4.5
		c0.5,0.9,0.4,2.1-0.4,2.8C-76.7,375.3-77.2,375.5-77.8,375.5z"/>
	<path id="XMLID_370_" class="st2" d="M-67.3,233.9l159.4-92c6.5-3.8,11.8-0.7,11.8,6.8v113.2c0,7.5-5.3,16.7-11.8,20.5l-159.4,92
		c-6.5,3.8-11.8,0.7-11.8-6.8V254.4C-79.2,246.9-73.8,237.7-67.3,233.9z"/>
	<path id="XMLID_366_" class="st1" d="M-67.3,233.9L-67.3,233.9L-67.3,233.9L-67.3,233.9z M97.3,142.7c-1.2,0-2.6,0.4-4.1,1.3
		l-159.4,92l0,0c-5.8,3.3-10.7,11.8-10.7,18.5L-77,367.7c0,2.8,0.9,4.8,2.3,5.7c1.5,0.9,3.7,0.6,6.1-0.8l159.4-92
		c5.8-3.3,10.7-11.8,10.7-18.5V148.9c0-2.7-0.9-4.8-2.3-5.7C98.7,142.8,98.1,142.7,97.3,142.7L97.3,142.7z M-72.6,378.3
		c-1.5,0-3-0.4-4.2-1.1c-3-1.7-4.6-5.2-4.6-9.6l0.1-113.2c0-8.3,5.8-18.3,13-22.5l159.4-92c3.9-2.2,7.7-2.5,10.6-0.8
		c3,1.7,4.6,5.2,4.6,9.6v113.2c0,8.4-5.7,18.3-13,22.5l-159.4,92C-68.4,377.7-70.6,378.3-72.6,378.3z"/>
	<path id="XMLID_365_" class="st3" d="M-66.6,242.4l42-24.2l116-66.9c3-1.7,5.4-0.3,5.4,3.1v110.2c0,3.4-2.4,7.7-5.4,9.4
		l-130.9,75.5l-27.2,15.6c-3,1.7-5.4,0.3-5.4-3.1V251.8C-72,248.4-69.6,244.1-66.6,242.4z"/>
	<path id="XMLID_361_" class="st1" d="M-66.6,242.4L-66.6,242.4L-66.6,242.4L-66.6,242.4z M93.8,152.8c-0.3,0-0.7,0.1-1.3,0.4
		l-158,91.1l0,0c-2.3,1.3-4.3,4.8-4.3,7.4v110.2c0,0.9,0.2,1.4,0.4,1.5c0.2,0.1,0.8,0.1,1.6-0.4l158-91.1c2.2-1.3,4.2-4.8,4.2-7.4
		l0.1-110.2c0-0.9-0.2-1.4-0.4-1.5C94,152.8,93.9,152.8,93.8,152.8L93.8,152.8z M-69.1,368.1c-0.9,0-1.8-0.2-2.6-0.7
		c-1.7-1-2.7-3-2.7-5.5V251.7c0-4.2,2.9-9.2,6.6-11.4l158-91.1c2.1-1.2,4.4-1.4,6.1-0.4s2.7,3,2.7,5.5v110.2c0,4.2-2.9,9.2-6.6,11.4
		l-158,91.1C-66.7,367.8-67.9,368.1-69.1,368.1z"/>
	<polygon id="XMLID_360_" class="st3" points="-42.4,256.7 67.2,193.4 67.2,269 -42.4,332.2 	"/>
	<path id="XMLID_357_" class="st1" d="M-40.2,258v70.3l105.1-60.6v-70.3L-40.2,258L-40.2,258z M-42.4,334.5c-0.4,0-0.8-0.1-1.1-0.3
		c-0.7-0.4-1.1-1.2-1.1-2v-75.5c0-0.8,0.4-1.6,1.1-2L66,191.4c0.7-0.4,1.6-0.4,2.3,0c0.7,0.4,1.1,1.1,1.1,2v75.5
		c0,0.8-0.4,1.6-1.1,2l-109.6,63.3C-41.6,334.4-42,334.5-42.4,334.5z"/>
	<polygon id="XMLID_356_" class="st2" points="-42.4,256.7 67.2,193.4 67.2,182.5 -42.4,245.8 	"/>
	<path id="XMLID_353_" class="st1" d="M-40.2,247.1v5.6l105.1-60.6v-5.6L-40.2,247.1L-40.2,247.1z M-42.4,259
		c-0.4,0-0.8-0.1-1.1-0.3c-0.7-0.4-1.1-1.1-1.1-2v-10.9c0-0.8,0.4-1.6,1.1-2L66,180.5c0.7-0.4,1.6-0.4,2.3,0c0.7,0.4,1.1,1.2,1.1,2
		v10.9c0,0.8-0.4,1.6-1.1,2l-109.6,63.3C-41.6,258.9-42,259-42.4,259z"/>
	<path id="XMLID_352_" class="st4" d="M-14.6,258.6L-14.6,258.6c1.5-0.9,2.7-0.2,2.7,1.6l0,0c0,1.7-1.2,3.8-2.7,4.7l0,0
		c-1.5,0.9-2.7,0.2-2.7-1.6l0,0C-17.3,261.6-16.1,259.5-14.6,258.6z"/>
	<path id="XMLID_349_" class="st1" d="M-14.6,258.6L-14.6,258.6L-14.6,258.6L-14.6,258.6z M-15.8,267.5c-0.6,0-1.3-0.2-1.8-0.5
		c-1.2-0.7-1.9-2.1-1.9-3.7c0-2.5,1.6-5.4,3.8-6.6c1.4-0.8,2.9-0.9,4.2-0.2c1.2,0.7,1.9,2.1,1.9,3.7c0,2.5-1.6,5.4-3.8,6.6
		C-14.3,267.3-15.1,267.5-15.8,267.5z"/>
	<path id="XMLID_348_" class="st4" d="M-14.6,275.3L-14.6,275.3c1.5-0.9,2.7-0.2,2.7,1.5l0,0c0,1.7-1.2,3.8-2.7,4.7l0,0
		c-1.5,0.9-2.7,0.2-2.7-1.6l0,0C-17.3,278.3-16.1,276.2-14.6,275.3z"/>
	<path id="XMLID_345_" class="st1" d="M-14.6,275.3L-14.6,275.3L-14.6,275.3L-14.6,275.3z M-15.8,284.2c-0.6,0-1.3-0.2-1.8-0.5
		c-1.2-0.7-1.9-2.1-1.9-3.7c0-2.5,1.6-5.4,3.8-6.6c1.4-0.8,2.9-0.9,4.2-0.2c1.2,0.7,1.9,2.1,1.9,3.7c0,2.5-1.6,5.4-3.8,6.6
		C-14.3,284-15.1,284.2-15.8,284.2z"/>
	<path id="XMLID_344_" class="st4" d="M-14.6,293L-14.6,293c1.5-0.9,2.7-0.2,2.7,1.5l0,0c0,1.7-1.2,3.8-2.7,4.7l0,0
		c-1.5,0.9-2.7,0.2-2.7-1.5l0,0C-17.3,296-16.1,293.9-14.6,293z"/>
	<path id="XMLID_341_" class="st1" d="M-14.6,293L-14.6,293L-14.6,293L-14.6,293z M-15.8,301.9c-0.6,0-1.3-0.2-1.8-0.5
		c-1.2-0.7-1.9-2.1-1.9-3.7c0-2.5,1.6-5.4,3.8-6.6c1.4-0.8,2.9-0.9,4.2-0.2c1.2,0.7,1.9,2.1,1.9,3.7c0,2.5-1.6,5.4-3.8,6.6
		C-14.3,301.6-15.1,301.9-15.8,301.9z"/>
	<path id="XMLID_340_" class="st5" d="M213.4,350.4v8.6c-0.8,2.6-2.5,4.1-4.7,5.5L48.6,456.9c-3.5,1.9-7.1,2.6-11.1,2.8
		c-4.5,0.1-8.7-0.6-12.7-2.8l-98.2-56.8c-2.2-1.4-4-2.9-4.7-5.5V386c0.8,2.6,2.5,4.1,4.7,5.5l98.3,56.8c4,2.2,8.1,2.9,12.7,2.8
		c4-0.2,7.5-0.9,11.1-2.8l160.1-92.4C210.9,354.5,212.6,353,213.4,350.4z"/>
	<path id="XMLID_337_" class="st1" d="M-75.9,394.2c0.5,1.5,1.5,2.6,3.6,3.9L26,454.9c3.3,1.8,6.8,2.6,11.5,2.5
		c4.1-0.2,7.1-0.9,10-2.5l160-92.4c2-1.3,3.1-2.3,3.6-3.9v-1.7c-0.4,0.3-0.9,0.6-1.3,0.8L49.7,450.2c-3.6,2-7.3,2.9-12.1,3.1
		c-5.6,0.1-9.9-0.9-13.9-3.1l-98.3-56.9c-0.4-0.3-0.9-0.5-1.3-0.9L-75.9,394.2L-75.9,394.2z M37,462c-5.3,0-9.5-1-13.3-3.1
		L-74.6,402c-2.3-1.4-4.7-3.3-5.8-6.8c-0.1-0.2-0.1-0.4-0.1-0.6V386c0-1.1,0.8-2.1,2-2.3c1.1-0.1,2.2,0.5,2.5,1.6
		c0.5,1.7,1.5,2.8,3.7,4.2L26,446.3c3.3,1.8,6.8,2.6,11.5,2.5c4.1-0.2,7.1-0.9,10-2.5l160-92.4c2.2-1.3,3.2-2.5,3.7-4.1
		c0.3-1.1,1.4-1.8,2.5-1.6c1.1,0.2,2,1.1,2,2.3v8.6c0,0.2,0,0.4-0.1,0.6c-1,3.5-3.5,5.4-5.7,6.8L49.7,458.9c-3.6,2-7.3,2.9-12.1,3.1
		C37.4,462,37.2,462,37,462z"/>
	<path id="XMLID_336_" class="st2" d="M-73.4,377.6l160.1-92.4c6.5-3.8,17.2-3.8,23.7,0l98.3,56.8c6.5,3.8,6.5,10,0,13.7L48.6,448.2
		c-6.5,3.8-17.2,3.8-23.7,0l-98.3-56.8C-80,387.6-80,381.4-73.4,377.6z"/>
	<path id="XMLID_332_" class="st1" d="M-73.4,377.6L-73.4,377.6L-73.4,377.6L-73.4,377.6z M-72.3,379.6c-2.4,1.4-3.8,3.2-3.8,4.9
		c0,1.7,1.4,3.5,3.8,4.9L26,446.3c5.8,3.4,15.6,3.4,21.5,0l160.1-92.4c2.4-1.4,3.8-3.2,3.8-4.9c0-1.7-1.4-3.5-3.8-4.9l-98.3-56.8
		c-5.8-3.4-15.6-3.4-21.5,0L-72.3,379.6L-72.3,379.6L-72.3,379.6z M36.7,453.3c-4.7,0-9.4-1-13-3.1l-98.3-56.8c-3.9-2.3-6-5.4-6-8.8
		s2.2-6.6,6-8.8l160.1-92.4c7.2-4.1,18.9-4.1,26,0l98.3,56.9c3.9,2.2,6,5.4,6,8.8s-2.2,6.6-6,8.8L49.7,450.2
		C46.1,452.3,41.4,453.3,36.7,453.3z"/>
	<polygon id="XMLID_331_" class="st2" points="98.6,410 142.4,384.7 108.9,365.3 65.1,390.6 	"/>
	<path id="XMLID_328_" class="st1" d="M69.7,390.6l29,16.8l39.2-22.7l-29-16.7L69.7,390.6L69.7,390.6z M98.6,412.3
		c-0.4,0-0.8-0.1-1.1-0.3L64,392.6c-0.7-0.4-1.1-1.1-1.1-2c0-0.8,0.4-1.6,1.1-2l43.8-25.3c0.7-0.4,1.6-0.4,2.3,0l33.5,19.4
		c0.7,0.4,1.1,1.2,1.1,2s-0.4,1.6-1.1,2L99.8,412C99.4,412.2,99,412.3,98.6,412.3z"/>
	<path id="XMLID_327_" class="st5" d="M-53.4,380.9c48.5-28,97-56,145.5-84c3.5-2,9.2-2,12.7,0l49.6,28.7c3.5,2,3.5,5.3,0,7.3
		c-48.5,28-97,56-145.5,84c-3.5,2-9.2,2-12.7,0l-49.6-28.7C-56.9,386.2-56.9,382.9-53.4,380.9z"/>
	<path id="XMLID_324_" class="st1" d="M-53.4,380.9l1.1,2c-0.9,0.5-1.5,1.2-1.5,1.7s0.6,1.2,1.5,1.7L-2.7,415
		c2.8,1.6,7.6,1.6,10.4,0l145.5-84c0.9-0.5,1.5-1.2,1.5-1.7s-0.6-1.2-1.5-1.7l-49.6-28.7c-2.8-1.6-7.6-1.6-10.4,0l-145.5,84
		L-53.4,380.9L-53.4,380.9z M2.5,420.7c-2.7,0-5.4-0.6-7.5-1.8l-49.6-28.7c-2.4-1.4-3.7-3.4-3.7-5.6s1.4-4.2,3.8-5.6L91,295
		c4.2-2.4,10.8-2.4,14.9,0l49.6,28.7c2.4,1.4,3.7,3.4,3.7,5.6s-1.4,4.2-3.8,5.6L10,418.9C7.9,420.1,5.2,420.7,2.5,420.7z"/>
	<path id="XMLID_323_" class="st3" d="M10.5,372.8l7.2-4.1c1.4-0.8,3.8-0.8,5.2,0l7.2,4.1c1.4,0.8,1.4,2.2,0,3l-7.2,4.1
		c-1.4,0.8-3.8,0.8-5.2,0l-7.2-4.1C9,375,9,373.7,10.5,372.8z"/>
	<path id="XMLID_320_" class="st1" d="M12.4,374.3l6.4,3.7c0.7,0.4,2.2,0.4,2.9,0l6.3-3.7l-6.3-3.7c-0.7-0.4-2.2-0.4-2.9,0
		L12.4,374.3L12.4,374.3z M20.2,382.9c-1.4,0-2.7-0.3-3.8-0.9l-7.2-4.1c-1.4-0.8-2.2-2.1-2.2-3.5s0.8-2.7,2.2-3.5l0,0l7.2-4.1
		c2.1-1.2,5.4-1.2,7.5,0l7.2,4.1c1.4,0.8,2.2,2.1,2.2,3.5s-0.8,2.7-2.2,3.5l-7.2,4.1C22.9,382.6,21.6,382.9,20.2,382.9z"/>
	<path id="XMLID_319_" class="st3" d="M-17.6,389l-7.1,4.1c-1.4,0.8-1.4,2.2,0,3l7.2,4.1c1.5,0.8,3.8,0.8,5.2,0l7.2-4.1
		c1.5-0.8,1.5-2.2,0-3l-7.2-4.1C-13.8,388.2-16.2,388.2-17.6,389z"/>
	<path id="XMLID_316_" class="st1" d="M-22.8,394.7l6.3,3.7c0.7,0.4,2.2,0.4,2.9,0l6.4-3.7l-6.4-3.7c-0.7-0.4-2.2-0.4-2.9,0
		L-22.8,394.7L-22.8,394.7z M-15,403.2c-1.3,0-2.7-0.3-3.7-0.9l-7.2-4.1c-1.4-0.8-2.2-2.1-2.2-3.5s0.8-2.7,2.2-3.5l7.2-4.1l0,0
		c2.1-1.2,5.4-1.2,7.5,0l7.2,4.1c1.4,0.8,2.2,2.1,2.2,3.5s-0.8,2.7-2.2,3.5l-7.2,4.1C-12.3,402.9-13.7,403.2-15,403.2z"/>
	<path id="XMLID_315_" class="st3" d="M0,399.2l-7.2,4.1c-1.4,0.9-1.4,2.2,0,3l7.2,4.1c1.4,0.8,3.8,0.8,5.2,0l7.2-4.1
		c1.5-0.8,1.5-2.2,0-3l-7.2-4.1C3.8,398.4,1.4,398.4,0,399.2z"/>
	<path id="XMLID_312_" class="st1" d="M-5.2,404.9l6.3,3.7c0.7,0.4,2.2,0.4,2.9,0l6.3-3.7L4,401.2c-0.7-0.4-2.2-0.4-2.9,0
		L-5.2,404.9L-5.2,404.9z M2.6,413.4c-1.3,0-2.7-0.3-3.7-0.9l-7.2-4.1c-1.4-0.8-2.2-2.1-2.2-3.5s0.8-2.7,2.2-3.5l7.2-4.1l0,0
		c2.2-1.2,5.4-1.2,7.5,0l7.1,4.1c1.4,0.8,2.2,2.1,2.2,3.5s-0.8,2.7-2.2,3.5l-7.2,4.1C5.3,413.1,3.9,413.4,2.6,413.4z"/>
	<path id="XMLID_311_" class="st3" d="M-12.4,380l7.2-4.1c1.5-0.8,1.5-2.2,0-3l-7.2-4.1c-1.4-0.9-3.8-0.9-5.2,0l-7.2,4.1
		c-1.5,0.8-1.5,2.2,0,3l7.1,4.1C-16.2,380.8-13.8,380.8-12.4,380z"/>
	<path id="XMLID_307_" class="st1" d="M-22.8,374.3l6.3,3.7c0.7,0.4,2.2,0.4,2.9,0l6.3-3.7l-6.3-3.7c-0.7-0.4-2.2-0.4-2.9,0
		L-22.8,374.3L-22.8,374.3z M-12.4,380L-12.4,380L-12.4,380L-12.4,380z M-15,382.9c-1.3,0-2.7-0.3-3.7-0.9l-7.2-4.1
		c-1.4-0.8-2.2-2.1-2.2-3.5s0.8-2.7,2.2-3.5l7.2-4.1c2.1-1.2,5.4-1.2,7.5,0l7.2,4.1c1.4,0.8,2.2,2.1,2.2,3.5s-0.8,2.7-2.2,3.5
		l-7.2,4.1l0,0C-12.3,382.6-13.6,382.9-15,382.9z"/>
	<path id="XMLID_306_" class="st3" d="M5.2,369.8l7.2-4.1c1.5-0.8,1.5-2.2,0-3l-7.2-4.1c-1.5-0.8-3.8-0.8-5.2,0l-7.2,4.1
		c-1.5,0.8-1.5,2.2,0,3l7.2,4.1C1.4,370.6,3.8,370.6,5.2,369.8z"/>
	<path id="XMLID_302_" class="st1" d="M-5.2,364.1l6.3,3.7c0.7,0.4,2.2,0.4,2.9,0l6.4-3.7l-6.3-3.7c-0.7-0.4-2.2-0.4-3,0L-5.2,364.1
		L-5.2,364.1z M5.2,369.8L5.2,369.8L5.2,369.8L5.2,369.8z M2.6,372.7c-1.3,0-2.7-0.3-3.7-0.9l-7.2-4.1c-1.4-0.8-2.2-2.1-2.2-3.5
		s0.8-2.7,2.2-3.5l7.2-4.1c2.2-1.2,5.4-1.2,7.5,0l7.2,4.1c1.4,0.8,2.2,2.1,2.2,3.5s-0.8,2.7-2.2,3.5l-7.2,4.1l0,0
		C5.3,372.4,4,372.7,2.6,372.7z"/>
	<path id="XMLID_301_" class="st3" d="M-22.8,386l-7.2,4.1c-1.4,0.8-3.8,0.8-5.2,0l-7.2-4.1c-1.4-0.8-1.4-2.2,0-3l7.2-4.1
		c1.4-0.8,3.8-0.8,5.2,0l7.2,4.1C-21.4,383.8-21.4,385.2-22.8,386z"/>
	<path id="XMLID_298_" class="st1" d="M-40.4,384.5l6.3,3.7c0.7,0.4,2.2,0.4,2.9,0l6.3-3.7l-6.3-3.7c-0.7-0.4-2.2-0.4-2.9,0
		L-40.4,384.5L-40.4,384.5z M-32.6,393.1c-1.3,0-2.7-0.3-3.8-0.9l-7.2-4.1c-1.4-0.8-2.2-2.1-2.2-3.5s0.8-2.7,2.2-3.5l7.2-4.1
		c2.1-1.2,5.4-1.2,7.5,0l7.2,4.1c1.4,0.8,2.2,2.1,2.2,3.5s-0.8,2.7-2.2,3.5l-7.2,4.1C-29.9,392.7-31.3,393.1-32.6,393.1z"/>
	<path id="XMLID_297_" class="st3" d="M-7.1,383l7.2-4.1c1.4-0.8,3.8-0.8,5.2,0l7.2,4.1c1.4,0.8,1.4,2.2,0,3l-7.3,4.1
		c-1.4,0.8-3.8,0.8-5.2,0l-7.2-4.1C-8.6,385.2-8.6,383.8-7.1,383z"/>
	<path id="XMLID_294_" class="st1" d="M-5.2,384.5l6.3,3.7c0.7,0.4,2.2,0.4,2.9,0l6.4-3.7L4,380.8c-0.7-0.4-2.2-0.4-2.9,0
		L-5.2,384.5L-5.2,384.5z M2.6,393.1c-1.4,0-2.7-0.3-3.8-0.9l-7.2-4.1c-1.4-0.8-2.2-2.1-2.2-3.5s0.8-2.7,2.2-3.5l0,0l7.2-4.1
		c2.1-1.2,5.3-1.2,7.5,0l7.2,4.1c1.4,0.8,2.2,2.1,2.2,3.5s-0.8,2.7-2.2,3.5l-7.1,4C5.3,392.7,4,393.1,2.6,393.1z"/>
	<path id="XMLID_293_" class="st3" d="M45.7,352.5l7.2-4.1c1.5-0.8,3.8-0.8,5.2,0l7.2,4.1c1.4,0.8,1.4,2.2,0,3l-7.2,4.1
		c-1.5,0.8-3.8,0.8-5.2,0l-7.2-4.1C44.3,354.7,44.3,353.3,45.7,352.5z"/>
	<path id="XMLID_289_" class="st1" d="M45.7,352.5L45.7,352.5L45.7,352.5L45.7,352.5z M47.7,354l6.3,3.7c0.7,0.4,2.2,0.4,2.9,0
		l6.3-3.7l-6.3-3.7c-0.7-0.4-2.2-0.4-2.9,0L47.7,354L47.7,354z M55.5,362.5c-1.4,0-2.7-0.3-3.8-0.9l-7.2-4.1
		c-1.4-0.8-2.2-2.1-2.2-3.5s0.8-2.7,2.2-3.5l7.2-4.1c2.1-1.2,5.4-1.2,7.5,0l7.1,4.1c1.4,0.8,2.2,2.1,2.2,3.5s-0.8,2.7-2.2,3.5
		l-7.2,4.1C58.1,362.2,56.8,362.5,55.5,362.5z"/>
	<path id="XMLID_288_" class="st3" d="M63.3,362.7l7.2-4.1c1.4-0.8,3.8-0.8,5.2,0l7.1,4.1c1.5,0.8,1.5,2.2,0,3l-7.2,4.1
		c-1.4,0.8-3.8,0.8-5.2,0l-7.2-4.1C61.9,364.9,61.9,363.5,63.3,362.7z"/>
	<path id="XMLID_284_" class="st1" d="M63.3,362.7L63.3,362.7L63.3,362.7L63.3,362.7z M65.3,364.2l6.3,3.7c0.7,0.4,2.2,0.4,2.9,0
		l6.4-3.7l-6.3-3.7c-0.7-0.4-2.2-0.4-3,0L65.3,364.2L65.3,364.2z M73.1,372.7c-1.4,0-2.7-0.3-3.8-0.9l-7.1-4.1
		c-1.4-0.8-2.2-2.1-2.2-3.5s0.8-2.7,2.2-3.5l7.2-4.1c2.2-1.2,5.4-1.2,7.5,0l7.1,4.1c1.4,0.8,2.2,2.1,2.2,3.5s-0.8,2.7-2.2,3.5
		l-7.2,4.1C75.7,372.4,74.4,372.7,73.1,372.7z"/>
	<path id="XMLID_283_" class="st3" d="M22.9,359.6l7.2-4.1c1.4-0.8,1.4-2.2,0-3l-7.1-4.1c-1.4-0.8-3.8-0.8-5.2,0l-7.2,4.1
		c-1.4,0.8-1.4,2.2,0,3l7.2,4.1C19.1,360.5,21.4,360.5,22.9,359.6z"/>
	<path id="XMLID_280_" class="st1" d="M12.4,354l6.4,3.7c0.7,0.4,2.2,0.4,2.9,0l0,0L28,354l-6.3-3.7c-0.7-0.4-2.2-0.4-2.9,0
		L12.4,354L12.4,354z M20.2,362.5c-1.3,0-2.7-0.3-3.7-0.9l-7.2-4.1c-1.4-0.8-2.2-2.1-2.2-3.5s0.8-2.7,2.2-3.5l7.2-4.1
		c2.2-1.2,5.4-1.2,7.5,0l7.2,4.1c1.4,0.8,2.2,2.1,2.2,3.5s-0.8,2.7-2.2,3.5l-7.2,4.1C22.9,362.2,21.6,362.5,20.2,362.5z"/>
	<path id="XMLID_279_" class="st3" d="M40.5,349.5l7.2-4.1c1.4-0.8,1.4-2.2,0-3l-7.2-4.1c-1.4-0.8-3.8-0.8-5.2,0l-7.2,4.1
		c-1.4,0.8-1.4,2.2,0,3l7.2,4.1C36.7,350.3,39,350.3,40.5,349.5z"/>
	<path id="XMLID_275_" class="st1" d="M30.1,343.8l6.3,3.7c0.7,0.4,2.2,0.4,2.9,0l6.3-3.7l-6.3-3.7c-0.7-0.4-2.2-0.4-2.9,0
		L30.1,343.8L30.1,343.8z M40.5,349.5L40.5,349.5L40.5,349.5L40.5,349.5z M37.9,352.4c-1.4,0-2.7-0.3-3.8-0.9l-7.2-4.1
		c-1.4-0.8-2.2-2.1-2.2-3.5s0.8-2.7,2.2-3.5l7.2-4.1c2.2-1.2,5.4-1.2,7.5,0l7.2,4.1c1.4,0.8,2.2,2.1,2.2,3.5s-0.8,2.7-2.2,3.5
		l-7.2,4.1l0,0C40.5,352,39.2,352.4,37.9,352.4z"/>
	<path id="XMLID_274_" class="st3" d="M28.1,362.7l7.2-4.1c1.5-0.8,3.8-0.8,5.2,0l7.2,4.1c1.4,0.8,1.4,2.2,0,3l-7.2,4.1
		c-1.5,0.8-3.8,0.8-5.2,0l-7.2-4.1C26.7,364.8,26.7,363.5,28.1,362.7z"/>
	<path id="XMLID_270_" class="st1" d="M28.1,362.7L28.1,362.7L28.1,362.7L28.1,362.7z M30,364.2l6.4,3.7c0.7,0.4,2.2,0.4,2.9,0
		l6.4-3.7l-6.4-3.7c-0.7-0.4-2.2-0.4-2.9,0L30,364.2L30,364.2z M37.9,372.7c-1.4,0-2.7-0.3-3.8-0.9l-7.2-4.1
		c-1.4-0.8-2.2-2.1-2.2-3.5s0.8-2.7,2.2-3.5l7.2-4.1c2.2-1.2,5.4-1.2,7.5,0l7.2,4.1c1.4,0.8,2.2,2.1,2.2,3.5s-0.8,2.7-2.2,3.5
		l-7.2,4.1C40.5,372.4,39.2,372.7,37.9,372.7z"/>
	<path id="XMLID_269_" class="st3" d="M10.4,393.2l42.4-24.5c1.5-0.8,3.8-0.8,5.2,0l7.1,4.1c1.4,0.8,1.4,2.2,0,3l-42.4,24.5
		c-1.5,0.8-3.8,0.8-5.2,0l-7.2-4.1C9,395.4,9,394,10.4,393.2z"/>
	<path id="XMLID_266_" class="st1" d="M12.4,394.7l6.3,3.7c0.7,0.4,2.2,0.4,2.9,0l41.6-24l-6.3-3.7c-0.7-0.4-2.2-0.4-2.9,0
		L12.4,394.7L12.4,394.7z M20.2,403.2c-1.3,0-2.7-0.3-3.7-0.9l-7.2-4.1c-1.4-0.8-2.2-2.1-2.2-3.5s0.8-2.7,2.2-3.5l0,0l42.4-24.5
		c2.2-1.2,5.4-1.2,7.5,0l7.2,4.1c1.4,0.8,2.2,2.1,2.2,3.5s-0.8,2.7-2.2,3.5L24,402.3C22.9,402.9,21.6,403.2,20.2,403.2z"/>
	<path id="XMLID_265_" class="st3" d="M104.3,318.6l7.1-4.1c1.4-0.8,3.8-0.8,5.2,0l7.1,4.1c1.4,0.8,1.4,2.2,0,3l-7.1,4.1
		c-1.5,0.8-3.8,0.8-5.2,0l-7.1-4.1C102.8,320.8,102.8,319.5,104.3,318.6z"/>
	<path id="XMLID_261_" class="st1" d="M104.3,318.6L104.3,318.6L104.3,318.6L104.3,318.6z M106.2,320.2l6.4,3.7
		c0.7,0.4,2.2,0.4,2.9,0l6.3-3.7l-6.3-3.7c-0.7-0.4-2.2-0.4-2.9,0L106.2,320.2L106.2,320.2z M114,328.7c-1.3,0-2.7-0.3-3.7-0.9
		l-7.2-4.1c-1.4-0.8-2.2-2.1-2.2-3.5s0.8-2.7,2.2-3.5l7.2-4.1c2.1-1.3,5.3-1.2,7.5,0l7.2,4.1c1.4,0.8,2.2,2.1,2.2,3.5
		s-0.8,2.7-2.2,3.5l-7.1,4.1C116.7,328.4,115.4,328.7,114,328.7z"/>
	<path id="XMLID_260_" class="st3" d="M121.9,328.8l7.2-4.1c1.4-0.8,3.8-0.8,5.2,0l7.2,4.1c1.5,0.8,1.5,2.2,0,3l-7.2,4.1
		c-1.4,0.8-3.8,0.8-5.2,0l-7.2-4.1C120.4,331,120.4,329.6,121.9,328.8z"/>
	<path id="XMLID_256_" class="st1" d="M121.9,328.8L121.9,328.8L121.9,328.8L121.9,328.8z M123.8,330.3l6.3,3.7
		c0.7,0.4,2.2,0.4,2.9,0l6.3-3.7l-6.3-3.7c-0.7-0.4-2.2-0.4-2.9,0L123.8,330.3L123.8,330.3z M131.6,338.9c-1.3,0-2.7-0.3-3.8-0.9
		l-7.2-4.1c-1.4-0.8-2.2-2.1-2.2-3.5s0.8-2.7,2.2-3.5l7.1-4.1c2.2-1.2,5.4-1.2,7.5,0l7.2,4.1c1.4,0.8,2.2,2.1,2.2,3.5
		s-0.8,2.7-2.2,3.5l-7.2,4.1C134.3,338.6,133,338.9,131.6,338.9z"/>
	<path id="XMLID_255_" class="st3" d="M99,315.6l7.2-4.1c1.4-0.8,1.4-2.2,0-3l-7.2-4.1c-1.4-0.8-3.8-0.8-5.2,0l-7.2,4.1
		c-1.5,0.8-1.5,2.2,0,3l7.2,4.1C95.2,316.4,97.6,316.4,99,315.6z"/>
	<path id="XMLID_252_" class="st1" d="M88.6,310l6.3,3.7c0.7,0.4,2.2,0.4,2.9,0l0,0l6.3-3.7l-6.3-3.7c-0.7-0.4-2.2-0.4-2.9,0
		L88.6,310L88.6,310z M96.4,318.5c-1.3,0-2.7-0.3-3.7-0.9l-7.2-4.1c-1.4-0.8-2.2-2.1-2.2-3.5s0.8-2.7,2.2-3.5l7.2-4.1
		c2.2-1.2,5.4-1.2,7.5,0l7.2,4.1c1.4,0.8,2.2,2.1,2.2,3.5s-0.8,2.7-2.2,3.5l-7.2,4.1C99.1,318.2,97.8,318.5,96.4,318.5z"/>
	<path id="XMLID_251_" class="st3" d="M86.6,328.8l7.2-4.1c1.5-0.8,3.8-0.8,5.2,0l7.2,4.1c1.4,0.8,1.4,2.2,0,3l-7.2,4.1
		c-1.5,0.8-3.8,0.8-5.2,0l-7.2-4.1C85.2,331,85.2,329.6,86.6,328.8z"/>
	<path id="XMLID_247_" class="st1" d="M86.6,328.8L86.6,328.8L86.6,328.8L86.6,328.8z M88.6,330.3l6.3,3.7c0.7,0.4,2.2,0.4,2.9,0
		l6.3-3.7l-6.3-3.7c-0.7-0.4-2.2-0.4-2.9,0L88.6,330.3L88.6,330.3z M96.4,338.9c-1.3,0-2.7-0.3-3.8-0.9l-7.2-4.1
		c-1.4-0.8-2.2-2.1-2.2-3.5s0.8-2.7,2.2-3.5l7.2-4.1c2.1-1.2,5.4-1.2,7.5,0l7.2,4.1c1.4,0.8,2.2,2.1,2.2,3.5s-0.8,2.7-2.2,3.5
		l-7.1,4.1C99.1,338.6,97.8,338.9,96.4,338.9z"/>
	<path id="XMLID_246_" class="st3" d="M104.3,339l7.1-4.1c1.4-0.8,3.8-0.8,5.2,0l7.1,4.1c1.5,0.8,1.5,2.2,0,3l-7.2,4.1
		c-1.4,0.8-3.8,0.8-5.2,0l-7.2-4.1C102.8,341.2,102.8,339.8,104.3,339z"/>
	<path id="XMLID_242_" class="st1" d="M104.3,339L104.3,339L104.3,339L104.3,339z M106.2,340.5l6.3,3.7c0.7,0.4,2.2,0.4,3,0l6.3-3.7
		l-6.3-3.7c-0.7-0.4-2.2-0.4-2.9,0L106.2,340.5L106.2,340.5z M114,349c-1.3,0-2.7-0.3-3.7-0.9l-7.2-4.1c-1.4-0.8-2.2-2.1-2.2-3.5
		s0.8-2.7,2.2-3.5l7.2-4.1c2.2-1.2,5.4-1.2,7.5,0l7.1,4.1c1.4,0.8,2.2,2.1,2.2,3.5s-0.8,2.7-2.2,3.5l-7.2,4.1
		C116.7,348.7,115.4,349,114,349z"/>
	<path id="XMLID_241_" class="st3" d="M63.8,336l7.2-4.1c1.4-0.8,1.4-2.2,0-3l-7.2-4.1c-1.4-0.8-3.8-0.8-5.2,0l-7.2,4.1
		c-1.4,0.8-1.5,2.2,0,3l7.2,4.1C60,336.8,62.4,336.8,63.8,336z"/>
	<path id="XMLID_237_" class="st1" d="M53.4,330.3l6.4,3.7c0.7,0.4,2.2,0.4,2.9,0l6.3-3.7l-6.3-3.7c-0.7-0.4-2.2-0.4-2.9,0
		L53.4,330.3L53.4,330.3z M63.8,336L63.8,336L63.8,336L63.8,336z M61.2,338.9c-1.3,0-2.7-0.3-3.7-0.9l-7.2-4.1
		c-1.4-0.8-2.2-2.1-2.2-3.5s0.8-2.7,2.2-3.5l7.2-4.1c2.1-1.2,5.4-1.2,7.5,0l7.2,4.1c1.4,0.8,2.2,2.1,2.2,3.5s-0.8,2.7-2.2,3.5
		L65,338l0,0C63.9,338.5,62.5,338.9,61.2,338.9z"/>
	<path id="XMLID_236_" class="st3" d="M81.4,325.8l7.2-4.1c1.4-0.8,1.4-2.2,0-3l-7.2-4.1c-1.4-0.8-3.8-0.8-5.2,0l-7.2,4.1
		c-1.4,0.8-1.4,2.2,0,3l7.2,4.1C77.6,326.6,80,326.6,81.4,325.8z"/>
	<path id="XMLID_233_" class="st1" d="M71,320.1l6.3,3.7c0.7,0.4,2.2,0.4,2.9,0l0,0l6.3-3.7l-6.3-3.7c-0.7-0.4-2.2-0.4-2.9,0
		L71,320.1L71,320.1z M78.8,328.7c-1.4,0-2.7-0.3-3.8-0.9l-7.1-4.1c-1.4-0.8-2.2-2.1-2.2-3.5s0.8-2.7,2.2-3.5l7.1-4.1
		c2.1-1.2,5.4-1.2,7.5,0l7.2,4.1c1.4,0.8,2.2,2.1,2.2,3.5s-0.8,2.7-2.2,3.5l-7.2,4.1C81.5,328.4,80.2,328.7,78.8,328.7z"/>
	<path id="XMLID_232_" class="st3" d="M69.1,339l7.2-4.1c1.4-0.8,3.8-0.8,5.2,0l7.2,4.1c1.4,0.8,1.4,2.2,0,3l-7.2,4.1
		c-1.5,0.8-3.8,0.8-5.2,0l-7.2-4.1C67.6,341.2,67.6,339.8,69.1,339z"/>
	<path id="XMLID_229_" class="st1" d="M71,340.5l6.3,3.7c0.7,0.4,2.2,0.4,2.9,0l6.3-3.7l-6.3-3.7c-0.7-0.4-2.2-0.4-2.9,0L71,340.5
		L71,340.5z M78.8,349c-1.4,0-2.7-0.3-3.8-0.9l-7.2-4.1c-1.4-0.8-2.2-2.1-2.2-3.5s0.8-2.7,2.2-3.5l0,0l7.1-4.1
		c2.1-1.2,5.3-1.2,7.5,0l7.2,4.1c1.4,0.8,2.2,2.1,2.2,3.5s-0.8,2.7-2.2,3.5l-7.2,4.1C81.5,348.7,80.1,349,78.8,349z"/>
	<path id="XMLID_228_" class="st3" d="M86.6,349.2l7.2-4.1c1.4-0.8,3.8-0.8,5.2,0l7.2,4.1c1.4,0.8,1.4,2.2,0,3l-7.1,4.1
		c-1.5,0.8-3.8,0.8-5.2,0l-7.1-4.1C85.2,351.4,85.2,350,86.6,349.2z"/>
	<path id="XMLID_225_" class="st1" d="M88.6,350.7l6.4,3.7c0.7,0.4,2.2,0.4,2.9,0l6.3-3.7l-6.3-3.7c-0.7-0.4-2.2-0.4-2.9,0
		L88.6,350.7L88.6,350.7z M96.4,359.2c-1.3,0-2.7-0.3-3.7-0.9l-7.2-4.1c-1.4-0.8-2.2-2.1-2.2-3.5s0.8-2.7,2.2-3.5l0,0l7.2-4.1
		c2.1-1.2,5.3-1.2,7.5,0l7.2,4.1c1.4,0.8,2.2,2.1,2.2,3.5s-0.8,2.7-2.2,3.5l-7.1,4.1C99.1,358.9,97.8,359.2,96.4,359.2z"/>
	<path id="XMLID_224_" class="st5" d="M37.6,459.7v-8.6h-0.1c-4.5,0.1-8.7-0.6-12.7-2.8l-98.3-56.8c-2.3-1.4-4-2.9-4.7-5.5v8.6
		c0.8,2.6,2.5,4.1,4.7,5.5l98.3,56.8C28.8,459.1,33,459.8,37.6,459.7L37.6,459.7z"/>
	<path id="XMLID_220_" class="st1" d="M-75.9,394.2c0.5,1.5,1.5,2.6,3.6,3.9L26,454.9c2.7,1.5,5.7,2.3,9.4,2.5v-4.1
		c-4.5-0.2-8.2-1.2-11.6-3.1l-98.3-56.9c-0.4-0.3-0.9-0.5-1.3-0.9L-75.9,394.2L-75.9,394.2z M37.6,459.7L37.6,459.7L37.6,459.7
		L37.6,459.7z M37,462c-5.3,0-9.5-1-13.3-3.1L-74.6,402c-2.3-1.4-4.7-3.3-5.8-6.8c-0.1-0.2-0.1-0.4-0.1-0.6V386c0-1.1,0.8-2.1,2-2.2
		c1.1-0.2,2.2,0.5,2.5,1.6c0.5,1.7,1.5,2.8,3.7,4.1L26,446.3c3.2,1.8,6.8,2.6,11.5,2.5c0.5,0,1.2,0.2,1.7,0.7c0.4,0.4,0.7,1,0.7,1.6
		v8.6c0,1.2-0.9,2.2-2.2,2.3h-0.1C37.4,462,37.2,462,37,462z"/>
	<path id="XMLID_219_" class="st1" d="M-4.3,274.7c-0.8,0-1.6-0.4-2-1.1c-0.6-1.1-0.3-2.5,0.8-3.1l42.8-24.7
		c1.1-0.6,2.5-0.3,3.1,0.8s0.3,2.5-0.8,3.1l-42.8,24.7C-3.5,274.6-3.9,274.7-4.3,274.7z"/>
	<path id="XMLID_218_" class="st1" d="M-4.3,258c-0.8,0-1.6-0.4-2-1.1c-0.6-1.1-0.3-2.5,0.8-3.1l42.8-24.7c1.1-0.6,2.5-0.3,3.1,0.8
		s0.3,2.5-0.8,3.1l-42.8,24.7C-3.5,257.9-3.9,258-4.3,258z"/>
	<path id="XMLID_217_" class="st1" d="M-4.3,292.4c-0.8,0-1.6-0.4-2-1.1c-0.6-1.1-0.3-2.5,0.8-3.1l34.6-20c1.1-0.6,2.5-0.3,3.1,0.8
		s0.3,2.5-0.8,3.1l-34.6,20C-3.5,292.3-3.9,292.4-4.3,292.4z"/>
</g>
</svg>
